<?xml version="1.0" standalone="no"?>
<!DOCTYPE svg PUBLIC "-//W3C//DTD SVG 1.1//EN" "http://www.w3.org/Graphics/SVG/1.1/DTD/svg11.dtd">
<svg
	xmlns="http://www.w3.org/2000/svg"
	xmlns:xlink="http://www.w3.org/1999/xlink" version="1.1">
	<symbol id="custom-ai" viewBox="0 0 40 40" stroke="currentcolor" strokeLinecap="round" strokeLinejoin="round"
		xmlns="http://www.w3.org/2000/svg">
		<g clip-path="url(#clip0_7812_146649)">
			<path d="M10.8982 17.8761C11.2963 17.6273 11.6475 17.3104 11.9357 16.9399L15 13L18.5 17L23 20L19.1926 21.9037C18.4185 22.2908 17.7908 22.9185 17.4037 23.6926L15.5 27.5L11.5 23L7.5 20L10.8982 17.8761Z" data-two-tone="true" style="stroke-width:0" opacity="0.4"/>
			<path d="M26.6667 30C27.5507 30 28.3986 30.3512 29.0237 30.9763C29.6488 31.6014 30 32.4493 30 33.3333C30 32.4493 30.3512 31.6014 30.9763 30.9763C31.6014 30.3512 32.4493 30 33.3333 30C32.4493 30 31.6014 29.6488 30.9763 29.0237C30.3512 28.3986 30 27.5507 30 26.6667C30 27.5507 29.6488 28.3986 29.0237 29.0237C28.3986 29.6488 27.5507 30 26.6667 30ZM26.6667 10C27.5507 10 28.3986 10.3512 29.0237 10.9763C29.6488 11.6014 30 12.4493 30 13.3333C30 12.4493 30.3512 11.6014 30.9763 10.9763C31.6014 10.3512 32.4493 10 33.3333 10C32.4493 10 31.6014 9.64881 30.9763 9.02369C30.3512 8.39857 30 7.55072 30 6.66667C30 7.55072 29.6488 8.39857 29.0237 9.02369C28.3986 9.64881 27.5507 10 26.6667 10ZM15 30C15 27.3478 16.0536 24.8043 17.9289 22.9289C19.8043 21.0536 22.3478 20 25 20C22.3478 20 19.8043 18.9464 17.9289 17.0711C16.0536 15.1957 15 12.6522 15 10C15 12.6522 13.9464 15.1957 12.0711 17.0711C10.1957 18.9464 7.65217 20 5 20C7.65217 20 10.1957 21.0536 12.0711 22.9289C13.9464 24.8043 15 27.3478 15 30Z" fill="none"/>
		</g>
	</symbol>
	<symbol id="custom-arrow" viewBox="0 0 40 40" stroke="currentcolor" strokeLinecap="round" strokeLinejoin="round"
		xmlns="http://www.w3.org/2000/svg">
		<g clip-path="url(#clip0_7812_146638)">
			<path d="M20 24.5L24.8776 16.8229C24.7632 17.0487 25.1003 16.7029 24.8776 16.8229C24.992 16.5971 25.0347 16.3417 25 16.0909C24.9653 15.8401 24.8548 15.6059 24.6833 15.4198C24.5119 15.2337 24.2877 15.1046 24.0408 15.0497L8.5 12.5L14.0443 30.0402C14.0992 30.2873 14.2283 30.5117 14.4142 30.6833C14.6001 30.8548 14.834 30.9653 15.0844 31C15.3349 31.0347 15.5899 30.9918 15.8153 30.8772C16.0407 30.7626 16.2258 30.5817 16.3456 30.3588L18.5044 27.1596" data-two-tone="true" style="stroke-width:0" opacity="0.4"/>
			<path d="M29.145 24.8833L24.63 20.37L29.8184 16.8867C30.1776 16.6932 30.469 16.3945 30.6536 16.0307C30.8382 15.6668 30.9071 15.2552 30.851 14.8511C30.795 14.4469 30.6167 14.0696 30.34 13.7697C30.0634 13.4698 29.7017 13.2617 29.3034 13.1733L6.66669 6.66667L13.1734 29.2717C13.262 29.6699 13.4703 30.0314 13.7703 30.3079C14.0703 30.5843 14.4476 30.7624 14.8517 30.8183C15.2558 30.8741 15.6673 30.8051 16.031 30.6204C16.3948 30.4357 16.6933 30.1442 16.8867 29.785L20.37 24.63L21.6784 25.9383" fill="none"/>
			<path d="M25 31.6667L28.3333 35L35 28.3333" fill="none"/>
		</g>
	</symbol>
	<symbol id="custom-book" viewBox="0 0 40 40" stroke="currentcolor" stroke-linecap="round"
		xmlns="http://www.w3.org/2000/svg">
		<g clip-path="url(#clip0_7812_146663)">
			<rect x="15" y="6.66667" width="6.66667" height="20" data-two-tone="true" style="stroke-width:0" opacity="0.4"/>
			<path d="M8.33331 8.33333C8.33331 7.89131 8.50891 7.46738 8.82147 7.15482C9.13403 6.84226 9.55795 6.66667 9.99998 6.66667H13.3333C13.7753 6.66667 14.1993 6.84226 14.5118 7.15482C14.8244 7.46738 15 7.89131 15 8.33333V31.6667C15 32.1087 14.8244 32.5326 14.5118 32.8452C14.1993 33.1577 13.7753 33.3333 13.3333 33.3333H9.99998C9.55795 33.3333 9.13403 33.1577 8.82147 32.8452C8.50891 32.5326 8.33331 32.1087 8.33331 31.6667V8.33333Z" fill='none'/>
			<path d="M15 8.33333C15 7.89131 15.1756 7.46738 15.4882 7.15482C15.8007 6.84226 16.2246 6.66667 16.6667 6.66667H20C20.442 6.66667 20.8659 6.84226 21.1785 7.15482C21.4911 7.46738 21.6667 7.89131 21.6667 8.33333V31.6667C21.6667 32.1087 21.4911 32.5326 21.1785 32.8452C20.8659 33.1577 20.442 33.3333 20 33.3333H16.6667C16.2246 33.3333 15.8007 33.1577 15.4882 32.8452C15.1756 32.5326 15 32.1087 15 31.6667V8.33333Z" fill='none'/>
			<path d="M8.33331 13.3333H15" fill='none'/>
			<path d="M15 26.6667H21.6667" fill='none'/>
			<path d="M23.005 7.6L26.645 6.71667C27.5817 6.49167 28.5333 7.03333 28.7817 7.93667L34.94 30.3C35.0487 30.7094 35.0005 31.1446 34.8051 31.5204C34.6096 31.8962 34.2809 32.1855 33.8833 32.3317L33.6617 32.4L30.0217 33.2833C29.085 33.5083 28.1333 32.9667 27.885 32.0633L21.7267 9.7C21.618 9.29058 21.6661 8.85535 21.8616 8.47956C22.057 8.10376 22.3858 7.81446 22.7833 7.66833L23.005 7.6Z" fill='none'/>
			<path d="M23.3333 15L30 13.3333" fill='none'/>
			<path d="M26.6667 26.6667L33.205 25.0333" fill='none'/>
		</g>
	</symbol>
	<symbol id="custom-brain" viewBox="0 0 40 40" stroke="currentcolor" stroke-linecap="round" stroke-linejoin="round"
		xmlns="http://www.w3.org/2000/svg">
		<g clip-path="url(#clip0_7812_146647)">
			<rect x="20" y="5" width="12" height="30" rx="5" data-two-tone="true" style="stroke-width:0" opacity="0.4"/>
			<path d="M25.8333 21.6667C24.2862 21.6667 22.8025 22.2812 21.7085 23.3752C20.6146 24.4692 20 25.9529 20 27.5V29.1667C20 30.7138 20.6146 32.1975 21.7085 33.2915C22.8025 34.3854 24.2862 35 25.8333 35C27.3804 35 28.8642 34.3854 29.9581 33.2915C31.0521 32.1975 31.6667 30.7138 31.6667 29.1667V26.1667" fill='none'/>
			<path d="M14.1667 21.6667C15.7138 21.6667 17.1975 22.2812 18.2915 23.3752C19.3854 24.4692 20 25.9529 20 27.5V29.1667C20 30.7138 19.3854 32.1975 18.2915 33.2915C17.1975 34.3854 15.7138 35 14.1667 35C12.6196 35 11.1358 34.3854 10.0419 33.2915C8.94793 32.1975 8.33334 30.7138 8.33334 29.1667V26.1667" fill='none'/>
			<path d="M29.1667 26.6667C30.7138 26.6667 32.1975 26.0521 33.2915 24.9581C34.3854 23.8642 35 22.3804 35 20.8333C35 19.2862 34.3854 17.8025 33.2915 16.7085C32.1975 15.6146 30.7138 15 29.1667 15H28.3333" fill='none'/>
			<path d="M31.6667 15.5V10.8333C31.6667 9.28624 31.0521 7.80251 29.9581 6.70854C28.8642 5.61458 27.3804 5 25.8333 5C24.2862 5 22.8025 5.61458 21.7085 6.70854C20.6146 7.80251 20 9.28624 20 10.8333" fill='none'/>
			<path d="M10.8333 26.6667C9.28624 26.6667 7.80251 26.0521 6.70854 24.9581C5.61458 23.8642 5 22.3804 5 20.8333C5 19.2862 5.61458 17.8025 6.70854 16.7085C7.80251 15.6146 9.28624 15 10.8333 15H11.6667" fill='none'/>
			<path d="M8.33334 15.5V10.8333C8.33334 9.28624 8.94793 7.80251 10.0419 6.70854C11.1358 5.61458 12.6196 5 14.1667 5C15.7138 5 17.1975 5.61458 18.2915 6.70854C19.3854 7.80251 20 9.28624 20 10.8333V27.5" fill='none'/>
		</g>
	</symbol>
	<symbol id="custom-card" viewBox="0 0 40 40" stroke="currentcolor" stroke-linecap="round" stroke-linejoin="round"
		xmlns="http://www.w3.org/2000/svg">
		<g clip-path="url(#clip0_7812_146660)">
			<path d="M5.5 21.7143C5.5 21.2596 5.65218 20.8236 5.92307 20.5021C6.19395 20.1806 6.56135 20 6.94444 20H17.0556C17.4386 20 17.806 20.1806 18.0769 20.5021C18.3478 20.8236 18.5 21.2596 18.5 21.7143V30.2857C18.5 30.7404 18.3478 31.1764 18.0769 31.4979C17.806 31.8194 17.4386 32 17.0556 32H6.94444C6.56135 32 6.19395 31.8194 5.92307 31.4979C5.65218 31.1764 5.5 30.7404 5.5 30.2857V21.7143Z" data-two-tone="true" style="stroke-width:0" opacity="0.4"/>
			<path d="M18.3333 20C18.3333 20.6566 18.4627 21.3068 18.7139 21.9134C18.9652 22.52 19.3335 23.0712 19.7978 23.5355C20.2621 23.9998 20.8133 24.3681 21.4199 24.6194C22.0266 24.8707 22.6767 25 23.3333 25C23.99 25 24.6401 24.8707 25.2468 24.6194C25.8534 24.3681 26.4046 23.9998 26.8689 23.5355C27.3332 23.0712 27.7015 22.52 27.9527 21.9134C28.204 21.3068 28.3333 20.6566 28.3333 20C28.3333 19.3434 28.204 18.6932 27.9527 18.0866C27.7015 17.48 27.3332 16.9288 26.8689 16.4645C26.4046 16.0002 25.8534 15.6319 25.2468 15.3806C24.6401 15.1293 23.99 15 23.3333 15C22.6767 15 22.0266 15.1293 21.4199 15.3806C20.8133 15.6319 20.2621 16.0002 19.7978 16.4645C19.3335 16.9288 18.9652 17.48 18.7139 18.0866C18.4627 18.6932 18.3333 19.3434 18.3333 20Z" fill='none'/>
			<path d="M20 16.275C19.2807 15.631 18.3904 15.209 17.4366 15.0599C16.4827 14.9109 15.5061 15.0412 14.6246 15.4351C13.7432 15.829 12.9947 16.4697 12.4694 17.2797C11.9442 18.0898 11.6647 19.0346 11.6647 20C11.6647 20.9654 11.9442 21.9102 12.4694 22.7203C12.9947 23.5303 13.7432 24.171 14.6246 24.5649C15.5061 24.9588 16.4827 25.0891 17.4366 24.9401C18.3904 24.791 19.2807 24.369 20 23.725" fill='none'/>
			<path d="M5 11.6667C5 10.7826 5.35119 9.93477 5.97631 9.30964C6.60143 8.68452 7.44928 8.33333 8.33333 8.33333H31.6667C32.5507 8.33333 33.3986 8.68452 34.0237 9.30964C34.6488 9.93477 35 10.7826 35 11.6667V28.3333C35 29.2174 34.6488 30.0652 34.0237 30.6904C33.3986 31.3155 32.5507 31.6667 31.6667 31.6667H8.33333C7.44928 31.6667 6.60143 31.3155 5.97631 30.6904C5.35119 30.0652 5 29.2174 5 28.3333V11.6667Z" fill='none'/>
		</g>
	</symbol>
	<symbol id="custom-calander" viewBox="0 0 40 40" stroke="currentcolor" stroke-linecap="round"
		xmlns="http://www.w3.org/2000/svg">
		<g clip-path="url(#clip0_7812_146652)">
			<rect x="18.3333" y="23.3333" width="15" height="11.6667" rx="2" data-two-tone="true" style="stroke-width:0" opacity="0.4"/>
			<path d="M6.66666 11.6667C6.66666 10.7826 7.01785 9.93476 7.64297 9.30964C8.26809 8.68452 9.11593 8.33333 9.99999 8.33333H30C30.884 8.33333 31.7319 8.68452 32.357 9.30964C32.9821 9.93476 33.3333 10.7826 33.3333 11.6667V31.6667C33.3333 32.5507 32.9821 33.3986 32.357 34.0237C31.7319 34.6488 30.884 35 30 35H9.99999C9.11593 35 8.26809 34.6488 7.64297 34.0237C7.01785 33.3986 6.66666 32.5507 6.66666 31.6667V11.6667Z" fill='none'/>
			<path d="M26.6667 5V11.6667" fill='none'/>
			<path d="M13.3333 5V11.6667" fill='none'/>
			<path d="M6.66666 18.3333H33.3333" fill='none'/>
			<path d="M13.3333 25H16.6667V28.3333H13.3333V25Z" fill='none'/>
		</g>
	</symbol>
	<symbol id="custom-celebration" viewBox="0 0 40 40" stroke="currentcolor" strokeLinecap="round" strokeLinejoin="round"
		xmlns="http://www.w3.org/2000/svg">
		<g clip-path="url(#clip0_7812_146658)">
			<path d="M7.4671 27.379C8.46438 24.9855 11.519 24.2815 13.4633 25.997C15.5593 27.8464 14.9954 31.2519 12.4152 32.327L12 32.5L6.93343 34.803C6.65278 34.9306 6.33719 34.9593 6.03812 34.8845C5.22856 34.6821 4.78884 33.8068 5.10979 33.0365L7.4671 27.379Z" data-two-tone="true" style="stroke-width:0" opacity="0.4"/>
			<path d="M6.66667 8.33333H10" fill='none'/>
			<path d="M8.33333 6.66667V10" fill='none'/>
			<path d="M19.1667 6.66667L18.3333 10" fill='none'/>
			<path d="M30 8.33333H33.3333" fill='none'/>
			<path d="M31.6667 6.66667V10" fill='none'/>
			<path d="M25 15L23.3333 16.6667" fill='none'/>
			<path d="M30 21.6667L33.3333 20.8333" fill='none'/>
			<path d="M30 31.6667H33.3333" fill='none'/>
			<path d="M31.6667 30V33.3333" fill='none'/>
			<path d="M23.3333 27.53L12.47 16.6667L5.15333 32.6333C5.00872 32.9433 4.96299 33.2903 5.02237 33.6272C5.08175 33.9641 5.24334 34.2746 5.48523 34.5164C5.72711 34.7583 6.03757 34.9199 6.37445 34.9793C6.71133 35.0387 7.05833 34.9929 7.36833 34.8483L23.3333 27.53Z" fill='none'/>
		</g>
	</symbol>
	<symbol id="custom-check" viewBox="0 0 40 40" stroke="currentcolor" strokeLinecap="round" strokeLinejoin="round"
		xmlns="http://www.w3.org/2000/svg">
		<rect width="40" height="40" rx="20" data-two-tone="true" style="stroke-width:0" opacity="0.4"/>
		<g clip-path="url(#clip0_7812_146835)">
			<path d="M13 20L18 25L28 15" fill='none'/>
		</g>
	</symbol>
	<symbol id="custom-coin" viewBox="0 0 40 40" stroke="currentcolor" stroke-linecap="round" stroke-linejoin="round"
		xmlns="http://www.w3.org/2000/svg">
		<g clip-path="url(#clip0_7812_146646)">
			<path d="M22 27.6364C22 27.2024 22.1712 26.7862 22.476 26.4793C22.7807 26.1724 23.194 26 23.625 26H33.375C33.806 26 34.2193 26.1724 34.524 26.4793C34.8288 26.7862 35 27.2024 35 27.6364V31.5C35 31.934 33.8047 33.1931 33.5 33.5C33.1953 33.8069 32.931 34 32.5 34L23.625 35C23.194 35 22.7807 34.8276 22.476 34.5207C22.1712 34.2138 22 33.7976 22 33.3636V27.6364Z" data-two-tone="true" style="stroke-width:0" opacity="0.4"/>
			<path d="M15 23.3333C15 26.095 19.4767 28.3333 25 28.3333C30.5233 28.3333 35 26.095 35 23.3333C35 20.5717 30.5233 18.3333 25 18.3333C19.4767 18.3333 15 20.5717 15 23.3333Z" fill='none'/>
			<path d="M15 23.3333V30C15 32.76 19.4767 35 25 35C30.5233 35 35 32.76 35 30V23.3333" fill='none'/>
			<path d="M5 10C5 11.7867 6.90667 13.4367 10 14.33C13.0933 15.2233 16.9067 15.2233 20 14.33C23.0933 13.4367 25 11.7867 25 10C25 8.21333 23.0933 6.56333 20 5.67C16.9067 4.77667 13.0933 4.77667 10 5.67C6.90667 6.56333 5 8.21333 5 10Z" fill='none'/>
			<path d="M5 10V26.6667C5 28.1467 6.28667 29.0833 8.33333 30" fill='none'/>
			<path d="M5 18.3333C5 19.8133 6.28667 20.75 8.33333 21.6667" fill='none'/>
		</g>
	</symbol>
	<symbol id="custom-data" viewBox="0 0 40 40" stroke="currentcolor" stroke-linecap="round" stroke-linejoin="round"
		xmlns="http://www.w3.org/2000/svg">
		<g clip-path="url(#clip0_7812_146641)">
			<path d="M7 26V31.6667C7 32.5507 8.36964 33.3986 10.8076 34.0237C13.2456 34.6488 16.5522 35 20 35C23.4478 35 26.7544 34.6488 29.1924 34.0237C31.6304 33.3986 33 32.5507 33 31.6667V26" data-two-tone="true" style="stroke-width:0" opacity="0.4"/>
			<path d="M6.66667 10C6.66667 11.3261 8.07143 12.5979 10.5719 13.5355C13.0724 14.4732 16.4638 15 20 15C23.5362 15 26.9276 14.4732 29.4281 13.5355C31.9286 12.5979 33.3333 11.3261 33.3333 10C33.3333 8.67392 31.9286 7.40215 29.4281 6.46447C26.9276 5.52678 23.5362 5 20 5C16.4638 5 13.0724 5.52678 10.5719 6.46447C8.07143 7.40215 6.66667 8.67392 6.66667 10Z" fill='none'/>
			<path d="M6.66667 10V20C6.66667 21.3261 8.07143 22.5979 10.5719 23.5355C13.0724 24.4732 16.4638 25 20 25C23.5362 25 26.9276 24.4732 29.4281 23.5355C31.9286 22.5979 33.3333 21.3261 33.3333 20V10" fill='none'/>
			<path d="M6.66667 20V30C6.66667 31.3261 8.07143 32.5979 10.5719 33.5355C13.0724 34.4732 16.4638 35 20 35C23.5362 35 26.9276 34.4732 29.4281 33.5355C31.9286 32.5979 33.3333 31.3261 33.3333 30V20" fill='none'/>
		</g>
	</symbol>
	<symbol id="custom-data-switch" viewBox="0 0 40 40" stroke="currentcolor" stroke-linecap="round" stroke-linejoin="round"
		xmlns="http://www.w3.org/2000/svg">
		<g clip-path="url(#clip0_7812_146644)">
			<path d="M19 24.6364C19 24.2024 19.1712 23.7862 19.476 23.4793C19.7807 23.1724 20.194 23 20.625 23H30.375C30.806 23 31.2193 23.1724 31.524 23.4793C31.8288 23.7862 32 24.2024 32 24.6364V28.5C32 28.934 30.8047 30.1931 30.5 30.5C30.1953 30.8069 29.931 31 29.5 31L20.625 32C20.194 32 19.7807 31.8276 19.476 31.5207C19.1712 31.2138 19 30.7976 19 30.3636V24.6364Z" data-two-tone="true" style="stroke-width:0" opacity="0.4"/>
			<path d="M5 10C5 11.7867 6.90667 13.4367 10 14.33C13.0933 15.2233 16.9067 15.2233 20 14.33C23.0933 13.4367 25 11.7867 25 10C25 8.21333 23.0933 6.56333 20 5.67C16.9067 4.77667 13.0933 4.77667 10 5.67C6.90667 6.56333 5 8.21333 5 10Z" fill='none'/>
			<path d="M5 10V26.6667C5 28.1467 6.28667 29.0833 8.33333 30" fill='none'/>
			<path d="M5 18.3333C5 19.8133 6.28667 20.75 8.33333 21.6667" fill='none'/>
			<path d="M16 26C16 26.5304 16.2107 27.0391 16.5858 27.4142C16.9609 27.7893 17.4696 28 18 28C18.5304 28 19.0391 27.7893 19.4142 27.4142C19.7893 27.0391 20 26.5304 20 26C20 25.4696 19.7893 24.9609 19.4142 24.5858C19.0391 24.2107 18.5304 24 18 24C17.4696 24 16.9609 24.2107 16.5858 24.5858C16.2107 24.9609 16 25.4696 16 26Z" fill='none'/>
			<path d="M12 26C12 24.4087 12.6321 22.8826 13.7574 21.7574C14.8826 20.6321 16.4087 20 18 20H26C27.5913 20 29.1174 20.6321 30.2426 21.7574C31.3679 22.8826 32 24.4087 32 26C32 27.5913 31.3679 29.1174 30.2426 30.2426C29.1174 31.3679 27.5913 32 26 32H18C16.4087 32 14.8826 31.3679 13.7574 30.2426C12.6321 29.1174 12 27.5913 12 26Z" fill='none'/>
		</g>
	</symbol>
	<symbol id="custom-debitcard" viewBox="0 0 40 40" stroke="currentcolor" strokeLinecap="round" strokeLinejoin="round"
		xmlns="http://www.w3.org/2000/svg">
		<g clip-path="url(#clip0_7812_146656)">
			<rect x="5" y="21" width="21" height="11" rx="4" data-two-tone="true" style="stroke-width:0" opacity="0.4"/>
			<path d="M5 13.3333C5 12.0072 5.52678 10.7355 6.46447 9.7978C7.40215 8.86012 8.67392 8.33333 10 8.33333H30C31.3261 8.33333 32.5979 8.86012 33.5355 9.7978C34.4732 10.7355 35 12.0072 35 13.3333V26.6667C35 27.9927 34.4732 29.2645 33.5355 30.2022C32.5979 31.1399 31.3261 31.6667 30 31.6667H10C8.67392 31.6667 7.40215 31.1399 6.46447 30.2022C5.52678 29.2645 5 27.9927 5 26.6667V13.3333Z" fill='none'/>
			<path d="M5 16.6667H35" fill='none'/>
			<path d="M11.6667 25H11.6833" fill='none'/>
			<path d="M18.3333 25H21.6667" fill='none'/>
		</g>
	</symbol>
	<symbol id="custom-developer" viewBox="0 0 40 40" stroke="currentcolor" stroke-linecap="round"
		xmlns="http://www.w3.org/2000/svg">
		<g clip-path="url(#clip0_7812_146642)">
			<rect x="5" y="19" width="13" height="11" rx="3" data-two-tone="true" style="stroke-width:0" opacity="0.4"/>
			<path d="M22 26.75V14.8333C22 14.3471 22.1712 13.8808 22.476 13.537C22.7807 13.1932 23.194 13 23.625 13H33.375C33.806 13 34.2193 13.1932 34.524 13.537C34.8288 13.8808 35 14.3471 35 14.8333V22.1667" fill='none'/>
			<path d="M30 13.3333V8.33333C30 7.8913 29.8244 7.46738 29.5118 7.15482C29.1993 6.84226 28.7754 6.66666 28.3333 6.66666H6.66667C6.22464 6.66666 5.80072 6.84226 5.48816 7.15482C5.17559 7.46738 5 7.8913 5 8.33333V28.3333C5 28.7754 5.17559 29.1993 5.48816 29.5118C5.80072 29.8244 6.22464 30 6.66667 30H18.3333" fill='none'/>
			<path d="M33.3333 35L36.6666 31.6667L33.3333 28.3333" fill='none'/>
			<path d="M28.3333 28.3333L25 31.6667L28.3333 35" fill='none'/>
			<path d="M26.6667 15H30" fill='none'/>
		</g>
	</symbol>
	<symbol id="custom-folder" viewBox="0 0 40 40" stroke="currentcolor" stroke-linecap="round" stroke-linejoin="round"
		xmlns="http://www.w3.org/2000/svg">
		<g clip-path="url(#clip0_7812_146639)">
			<path d="M5.5 16H13.5C16.8137 16 19.5 18.6863 19.5 22V26C19.5 29.3137 16.8137 32 13.5 32H5.5V16Z" data-two-tone="true" style="stroke-width:0" opacity="0.4"/>
			<path d="M18.3333 31.6667H8.33333C7.44928 31.6667 6.60143 31.3155 5.97631 30.6904C5.35119 30.0652 5 29.2174 5 28.3333V10C5 9.11594 5.35119 8.2681 5.97631 7.64297C6.60143 7.01785 7.44928 6.66666 8.33333 6.66666H15L20 11.6667H31.6667C32.5507 11.6667 33.3986 12.0179 34.0237 12.643C34.6488 13.2681 35 14.1159 35 15V21.6667" fill='none'/>
			<path d="M25 31.6667L28.3333 35L35 28.3333" fill='none'/>
		</g>
	</symbol>
	<symbol id="custom-interface" viewBox="0 0 40 40" stroke="currentcolor" strokeLinecap="round" strokeLinejoin="round"
		xmlns="http://www.w3.org/2000/svg">
		<g clip-path="url(#clip0_7812_146648)">
			<path d="M15 19.1429C15 18.5745 15.2341 18.0295 15.6509 17.6276C16.0676 17.2258 16.6329 17 17.2222 17H32.7778C33.3671 17 33.9324 17.2258 34.3491 17.6276C34.7659 18.0295 35 18.5745 35 19.1429V29.8571C35 30.4255 34.7659 30.9705 34.3491 31.3724C33.9324 31.7742 33.3671 32 32.7778 32H17.2222C16.6329 32 16.0676 31.7742 15.6509 31.3724C15.2341 30.9705 15 30.4255 15 29.8571V19.1429Z" data-two-tone="true" style="stroke-width:0" opacity="0.4"/>
			<path d="M5 11.6667C5 10.7826 5.35119 9.93477 5.97631 9.30965C6.60143 8.68453 7.44928 8.33334 8.33333 8.33334H31.6667C32.5507 8.33334 33.3986 8.68453 34.0237 9.30965C34.6488 9.93477 35 10.7826 35 11.6667V28.3333C35 29.2174 34.6488 30.0652 34.0237 30.6904C33.3986 31.3155 32.5507 31.6667 31.6667 31.6667H8.33333C7.44928 31.6667 6.60143 31.3155 5.97631 30.6904C5.35119 30.0652 5 29.2174 5 28.3333V11.6667Z" fill='none'/>
			<path d="M10 13.3333H10.0167" stroke="currentcolor" stroke-width="1.5" stroke-linecap="round" stroke-linejoin="round"/>
			<path d="M15 13.3333H15.0167" stroke="currentcolor" stroke-width="1.5" stroke-linecap="round" stroke-linejoin="round"/>
		</g>
		<defs>
			<clipPath id="clip0_7812_146648">
				<rect width="40" height="40" fill="white"/>
			</clipPath>
		</defs>
	</symbol>
	<symbol id="custom-lock" viewBox="0 0 40 40" stroke="currentcolor" strokeLinecap="round" strokeLinejoin="round"
		xmlns="http://www.w3.org/2000/svg">
		<g clip-path="url(#clip0_7812_146640)">
			<path d="M20 27.6364C20 27.2024 20.1712 26.7862 20.476 26.4793C20.7807 26.1724 21.194 26 21.625 26H31.375C31.806 26 32.2193 26.1724 32.524 26.4793C32.8288 26.7862 33 27.2024 33 27.6364V33.3636C33 33.7976 32.8288 34.2138 32.524 34.5207C32.2193 34.8276 31.806 35 31.375 35H21.625C21.194 35 20.7807 34.8276 20.476 34.5207C20.1712 34.2138 20 33.7976 20 33.3636V27.6364Z" data-two-tone="true" style="stroke-width:0" opacity="0.4"/>
			<path d="M6.66666 20C6.66666 19.1159 7.01785 18.2681 7.64297 17.643C8.26809 17.0179 9.11593 16.6667 9.99999 16.6667H30C30.884 16.6667 31.7319 17.0179 32.357 17.643C32.9821 18.2681 33.3333 19.1159 33.3333 20V31.6667C33.3333 32.5507 32.9821 33.3986 32.357 34.0237C31.7319 34.6488 30.884 35 30 35H9.99999C9.11593 35 8.26809 34.6488 7.64297 34.0237C7.01785 33.3986 6.66666 32.5507 6.66666 31.6667V20Z" fill='none'/>
			<path d="M11.6667 16.6667V13.5633C11.6667 8.83333 15.3983 5 20 5C24.6017 5 28.3333 8.83333 28.3333 13.5633V16.6667" fill='none'/>
			<path d="M17.475 29.295C18.0367 29.7783 18.6417 30 20 30H20.6883C21.2267 30 21.7433 29.7783 22.125 29.3867C22.5073 28.9904 22.7202 28.4607 22.7183 27.91C22.7183 27.3567 22.505 26.8267 22.125 26.4333C21.9388 26.2402 21.7156 26.0863 21.4689 25.981C21.2221 25.8756 20.9567 25.8209 20.6883 25.82H19.3117C19.0437 25.8194 18.7786 25.7649 18.5321 25.6598C18.2856 25.5548 18.0627 25.4012 17.8767 25.2083C17.4943 24.812 17.2815 24.2823 17.2833 23.7317C17.2833 23.1783 17.4967 22.6467 17.8767 22.255C18.0625 22.0618 18.2854 21.908 18.5319 21.8026C18.7784 21.6972 19.0436 21.6425 19.3117 21.6417H20C21.36 21.6417 21.9633 21.8633 22.525 22.3467" fill='none'/>
		</g>
	</symbol>
	<symbol id="custom-notes" viewBox="0 0 40 40" stroke="currentcolor" stroke-linecap="round"
		xmlns="http://www.w3.org/2000/svg">
		<g clip-path="url(#clip0_7812_146655)">
			<rect x="8" y="22" width="15" height="12" rx="4" data-two-tone="true" style="stroke-width:0" opacity="0.4"/>
			<path d="M15 6.66666V36.6667M10 6.66666H28.3333C29.2174 6.66666 30.0652 7.01785 30.6904 7.64297C31.3155 8.2681 31.6667 9.11594 31.6667 10V30C31.6667 30.8841 31.3155 31.7319 30.6904 32.357C30.0652 32.9821 29.2174 33.3333 28.3333 33.3333H10C9.55798 33.3333 9.13406 33.1577 8.8215 32.8452C8.50894 32.5326 8.33334 32.1087 8.33334 31.6667V8.33333C8.33334 7.8913 8.50894 7.46738 8.8215 7.15482C9.13406 6.84226 9.55798 6.66666 10 6.66666Z" fill='none'/>
			<path d="M21.6667 13.3333H25" fill='none'/>
			<path d="M21.6667 20H25" fill='none'/>
		</g>
	</symbol>
	<symbol id="custom-path" viewBox="0 0 40 40" stroke="currentcolor" stroke-linecap="round"
		xmlns="http://www.w3.org/2000/svg">
		<g clip-path="url(#clip0_7812_146645)">
			<path d="M5 31.6667C5 32.5507 5.35119 33.3986 5.97631 34.0237C6.60143 34.6488 7.44928 35 8.33333 35C9.21739 35 10.0652 34.6488 10.6904 34.0237C11.3155 33.3986 11.6667 32.5507 11.6667 31.6667C11.6667 30.7826 11.3155 29.9348 10.6904 29.3096C10.0652 28.6845 9.21739 28.3333 8.33333 28.3333C7.44928 28.3333 6.60143 28.6845 5.97631 29.3096C5.35119 29.9348 5 30.7826 5 31.6667Z" fill='none'/>
			<path d="M31.6666 11.6667C32.5506 11.6667 33.3985 11.3155 34.0236 10.6904C34.6487 10.0652 34.9999 9.21739 34.9999 8.33333C34.9999 7.44928 34.6487 6.60143 34.0236 5.97631C33.3985 5.35119 32.5506 5 31.6666 5C30.7825 5 29.9347 5.35119 29.3096 5.97631C28.6844 6.60143 28.3333 7.44928 28.3333 8.33333C28.3333 9.21739 28.6844 10.0652 29.3096 10.6904C29.9347 11.3155 30.7825 11.6667 31.6666 11.6667Z" data-two-tone="true" style="stroke-width:0" opacity="0.4"/>
			<path d="M31.6667 11.6667C32.5507 11.6667 33.3986 11.3155 34.0237 10.6904C34.6488 10.0652 35 9.21739 35 8.33333C35 7.44928 34.6488 6.60143 34.0237 5.97631C33.3986 5.35119 32.5507 5 31.6667 5C30.7826 5 29.9348 5.35119 29.3097 5.97631C28.6845 6.60143 28.3333 7.44928 28.3333 8.33333C28.3333 9.21739 28.6845 10.0652 29.3097 10.6904C29.9348 11.3155 30.7826 11.6667 31.6667 11.6667Z" fill='none'/>
			<path d="M18.3333 31.6667H27.5C29.0471 31.6667 30.5308 31.0521 31.6248 29.9581C32.7188 28.8642 33.3333 27.3804 33.3333 25.8333C33.3333 24.2862 32.7188 22.8025 31.6248 21.7085C30.5308 20.6146 29.0471 20 27.5 20H14.1667C12.6196 20 11.1358 19.3854 10.0419 18.2915C8.94793 17.1975 8.33334 15.7138 8.33334 14.1667C8.33334 12.6196 8.94793 11.1358 10.0419 10.0419C11.1358 8.94792 12.6196 8.33334 14.1667 8.33334H21.6667" fill='none'/>
		</g>
	</symbol>
	<symbol id="custom-help" viewBox="0 0 40 40" stroke="currentcolor" stroke-linecap="round" stroke-linejoin="round"
		xmlns="http://www.w3.org/2000/svg">
		<g clip-path="url(#clip0_7812_146662)">
			<circle cx="25" cy="26.6667" r="8.33333" data-two-tone="true" style="stroke-width:0" opacity="0.4"/>
			<path d="M5 20C5 21.9698 5.38799 23.9204 6.14181 25.7403C6.89563 27.5601 8.00052 29.2137 9.3934 30.6066C10.7863 31.9995 12.4399 33.1044 14.2597 33.8582C16.0796 34.612 18.0302 35 20 35C21.9698 35 23.9204 34.612 25.7403 33.8582C27.5601 33.1044 29.2137 31.9995 30.6066 30.6066C31.9995 29.2137 33.1044 27.5601 33.8582 25.7403C34.612 23.9204 35 21.9698 35 20C35 18.0302 34.612 16.0796 33.8582 14.2597C33.1044 12.4399 31.9995 10.7863 30.6066 9.3934C29.2137 8.00052 27.5601 6.89563 25.7403 6.14181C23.9204 5.38799 21.9698 5 20 5C18.0302 5 16.0796 5.38799 14.2597 6.14181C12.4399 6.89563 10.7863 8.00052 9.3934 9.3934C8.00052 10.7863 6.89563 12.4399 6.14181 14.2597C5.38799 16.0796 5 18.0302 5 20Z" fill='none'/>
			<path d="M20 28.3333V28.35" fill='none'/>
			<path d="M20 22.5C19.9693 21.959 20.1153 21.4226 20.4159 20.9717C20.7165 20.5208 21.1554 20.1798 21.6667 20C22.2931 19.7604 22.8554 19.3787 23.3093 18.8849C23.7632 18.3911 24.0962 17.7987 24.2822 17.1543C24.4682 16.5099 24.5021 15.8312 24.3812 15.1714C24.2603 14.5117 23.9879 13.8891 23.5855 13.3525C23.1831 12.816 22.6616 12.3801 22.0622 12.0794C21.4627 11.7786 20.8016 11.6211 20.1309 11.6192C19.4602 11.6173 18.7982 11.7712 18.1971 12.0686C17.5959 12.3661 17.0721 12.799 16.6667 13.3333" fill='none'/>
		</g>
	</symbol>
	<symbol id="custom-paypal" viewBox="0 0 32 32" stroke="currentcolor" strokeLinecap="round" strokeLinejoin="round"
		xmlns="http://www.w3.org/2000/svg">
		<g clip-path="url(#clip0_260_74000)">
			<path d="M15.5276 6C15.5276 4.89543 16.423 4 17.5276 4V4C20.8413 4 23.5276 6.68629 23.5276 10V11C23.5276 14.3137 20.8413 17 17.5276 17V17C16.423 17 15.5276 16.1046 15.5276 15V6Z" data-two-tone="true" style="stroke-width:0" opacity="0.4" />
			<path d="M20 11.75C20 10.7835 20.7835 10 21.75 10V10C24.6495 10 27 12.3505 27 15.25V15.75C27 18.6495 24.6495 21 21.75 21V21C20.7835 21 20 20.2165 20 19.25V11.75Z" data-two-tone="true" style="stroke-width:0" opacity="0.4" />
			<path d="M23.2553 9.53781C25.4684 10.8396 26.5099 13.183 26.5099 15.7866C26.5099 19.0413 23.2553 21.6449 20.0007 21.6449H16.6159L15.8348 26.3316C15.7739 26.6301 15.6103 26.8977 15.3724 27.088C15.1346 27.2783 14.8375 27.3792 14.5329 27.373H11.018C10.9203 27.375 10.8235 27.355 10.7347 27.3145C10.6458 27.274 10.5673 27.214 10.5047 27.139C10.4422 27.064 10.3974 26.9758 10.3736 26.8811C10.3497 26.7865 10.3475 26.6876 10.3671 26.5919L10.6274 24.7694M13.4915 17.0885H16.7461C20.0007 17.0885 23.2553 13.8339 23.2553 10.5793C23.2553 6.67375 20.7818 4.07007 16.7461 4.07007H9.58595C8.93503 4.07007 8.2841 4.72099 8.2841 5.37191L5.68042 23.5977C5.68042 24.2486 6.33134 24.8995 6.98226 24.8995H10.6274L12.1896 18.3903C12.3198 17.6092 12.7104 17.0885 13.4915 17.0885Z" fill="none" />
		</g>
	</symbol>
	<symbol id="custom-remote" viewBox="0 0 40 40" stroke="currentcolor" strokeLinecap="round" strokeLinejoin="round"
		xmlns="http://www.w3.org/2000/svg">
		<g clip-path="url(#clip0_7812_146637)">
			<path d="M16.6667 8.33333C16.6667 9.21739 17.0179 10.0652 17.643 10.6904C18.2681 11.3155 19.1159 11.6667 20 11.6667C20.8841 11.6667 21.7319 11.3155 22.357 10.6904C22.9821 10.0652 23.3333 9.21739 23.3333 8.33333C23.3333 7.44928 22.9821 6.60143 22.357 5.97631C21.7319 5.35119 20.8841 5 20 5C19.1159 5 18.2681 5.35119 17.643 5.97631C17.0179 6.60143 16.6667 7.44928 16.6667 8.33333Z" fill='none'/>
			<path d="M33.3333 20.8333V28.75C33.3442 28.9352 33.3129 29.1204 33.2417 29.2917C33.1304 29.5597 32.9238 29.7771 32.6617 29.9017L23.5583 34.2017C22.4457 34.7271 21.2305 34.9996 20 34.9996C18.7695 34.9996 17.5543 34.7271 16.4417 34.2017L7.33833 29.9017C7.1235 29.7999 6.94461 29.6353 6.82529 29.4296C6.70596 29.224 6.65182 28.987 6.67 28.75V20.8333" fill='none'/>
			<path d="M7.38512 20.36L16.7751 16.4733C18.8404 15.6196 21.1599 15.6196 23.2251 16.4733L32.6151 20.36C32.8231 20.445 33.0018 20.5889 33.1291 20.7741C33.2565 20.9592 33.327 21.1775 33.3319 21.4022C33.3369 21.6268 33.2761 21.8481 33.157 22.0387C33.038 22.2292 32.8659 22.3809 32.6618 22.475L23.5585 26.7133C22.4438 27.2316 21.2294 27.5001 20.0001 27.5001C18.7709 27.5001 17.5564 27.2316 16.4418 26.7133L7.33845 22.475C7.13327 22.3817 6.95998 22.2302 6.84007 22.0393C6.72016 21.8485 6.65889 21.6266 6.66385 21.4013C6.66882 21.1759 6.73981 20.957 6.86802 20.7716C6.99623 20.5862 7.17602 20.4442 7.38512 20.36Z" data-two-tone="true" style="stroke-width:0" opacity="0.4"/>
			<path d="M7.385 20.36L16.775 16.4733C18.8402 15.6196 21.1598 15.6196 23.225 16.4733L32.615 20.36C32.823 20.445 33.0017 20.5889 33.129 20.7741C33.2564 20.9592 33.3268 21.1775 33.3318 21.4022C33.3368 21.6269 33.276 21.8481 33.1569 22.0387C33.0379 22.2293 32.8657 22.3809 32.6617 22.475L23.5583 26.7133C22.4437 27.2316 21.2293 27.5001 20 27.5001C18.7708 27.5001 17.5563 27.2316 16.4417 26.7133L7.33834 22.475C7.13316 22.3817 6.95987 22.2302 6.83996 22.0393C6.72004 21.8485 6.65877 21.6266 6.66374 21.4013C6.66871 21.1759 6.7397 20.957 6.86791 20.7716C6.99612 20.5862 7.17591 20.4442 7.385 20.36Z" fill='none'/>
			<path d="M20 11.6667V21.6667" fill='none'/>
		</g>
	</symbol>
	<symbol id="custom-scoreboard" viewBox="0 0 40 40" stroke="currentcolor" strokeLinecap="round" strokeLinejoin="round"
		xmlns="http://www.w3.org/2000/svg">
		<g clip-path="url(#clip0_7812_146654)">
			<rect x="22" y="21" width="13" height="11" rx="4" data-two-tone="true" style="stroke-width:0" opacity="0.4"/>
			<path d="M5 11.6667C5 10.7826 5.35119 9.93477 5.97631 9.30965C6.60143 8.68453 7.44928 8.33334 8.33333 8.33334H31.6667C32.5507 8.33334 33.3986 8.68453 34.0237 9.30965C34.6488 9.93477 35 10.7826 35 11.6667V28.3333C35 29.2174 34.6488 30.0652 34.0237 30.6904C33.3986 31.3155 32.5507 31.6667 31.6667 31.6667H8.33333C7.44928 31.6667 6.60143 31.3155 5.97631 30.6904C5.35119 30.0652 5 29.2174 5 28.3333V11.6667Z" fill='none'/>
			<path d="M20 8.33334V11.6667" fill='none'/>
			<path d="M20 16.6667V18.3333" fill='none'/>
			<path d="M20 23.3333V25" fill='none'/>
			<path d="M20 30V31.6667" fill='none'/>
			<path d="M11.6667 5V8.33333" fill='none'/>
			<path d="M28.3333 5V8.33333" fill='none'/>
			<path d="M25 17.5V22.5C25 23.163 25.2634 23.7989 25.7322 24.2678C26.2011 24.7366 26.837 25 27.5 25C28.163 25 28.7989 24.7366 29.2678 24.2678C29.7366 23.7989 30 23.163 30 22.5V17.5C30 16.837 29.7366 16.2011 29.2678 15.7322C28.7989 15.2634 28.163 15 27.5 15C26.837 15 26.2011 15.2634 25.7322 15.7322C25.2634 16.2011 25 16.837 25 17.5Z" fill='none'/>
			<path d="M10 15H12.5C13.163 15 13.7989 15.2634 14.2678 15.7322C14.7366 16.2011 15 16.837 15 17.5C15 18.163 14.7366 18.7989 14.2678 19.2678C13.7989 19.7366 13.163 20 12.5 20M12.5 20H11.6667M12.5 20C13.163 20 13.7989 20.2634 14.2678 20.7322C14.7366 21.2011 15 21.837 15 22.5C15 23.163 14.7366 23.7989 14.2678 24.2678C13.7989 24.7366 13.163 25 12.5 25H10" fill='none'/>
		</g>
	</symbol>
	<symbol id="custom-statastic" viewBox="0 0 40 40" stroke="currentcolor" strokeLinecap="round" strokeLinejoin="round"
		xmlns="http://www.w3.org/2000/svg">
		<g clip-path="url(#clip0_7812_146643)">
			<rect x="5" y="22" width="22" height="13" rx="6.5" data-two-tone="true" style="stroke-width:0" opacity="0.4"/>
			<path d="M5 5V35H35" fill='none'/>
			<path d="M33.3333 30V35" fill='none'/>
			<path d="M26.6667 26.6667V35" fill='none'/>
			<path d="M20 21.6667V35" fill='none'/>
			<path d="M13.3333 26.6667V35" fill='none'/>
			<path d="M5 18.3333C15 18.3333 13.3333 10 20 10C26.6667 10 25 18.3333 35 18.3333" fill='none'/>
		</g>
	</symbol>
	<symbol id="custom-target" viewBox="0 0 40 40" stroke="currentcolor" stroke-linecap="round"
		xmlns="http://www.w3.org/2000/svg">
		<g clip-path="url(#clip0_7812_146651)">
			<rect x="15" y="15" width="10" height="10" rx="5" data-two-tone="true" style="stroke-width:0" opacity="0.4"/>
			<path d="M15 20C15 21.3261 15.5268 22.5979 16.4645 23.5355C17.4021 24.4732 18.6739 25 20 25C21.3261 25 22.5979 24.4732 23.5355 23.5355C24.4732 22.5979 25 21.3261 25 20C25 18.6739 24.4732 17.4021 23.5355 16.4645C22.5979 15.5268 21.3261 15 20 15C18.6739 15 17.4021 15.5268 16.4645 16.4645C15.5268 17.4021 15 18.6739 15 20Z" fill='none'/>
			<path d="M6.66667 20C6.66667 23.5362 8.07143 26.9276 10.5719 29.4281C13.0724 31.9286 16.4638 33.3333 20 33.3333C23.5362 33.3333 26.9276 31.9286 29.4281 29.4281C31.9286 26.9276 33.3333 23.5362 33.3333 20C33.3333 16.4638 31.9286 13.0724 29.4281 10.5719C26.9276 8.07142 23.5362 6.66666 20 6.66666C16.4638 6.66666 13.0724 8.07142 10.5719 10.5719C8.07143 13.0724 6.66667 16.4638 6.66667 20Z" fill='none'/>
			<path d="M20 3.33334V6.66667" fill='none'/>
			<path d="M20 33.3333V36.6667" fill='none'/>
			<path d="M33.3333 20H36.6667" fill='none'/>
			<path d="M3.33333 20H6.66666" fill='none'/>
		</g>
	</symbol>
	<symbol id="custom-transfer" viewBox="0 0 40 40" stroke="currentcolor" stroke-linecap="round"
		xmlns="http://www.w3.org/2000/svg">
		<g clip-path="url(#clip0_7812_146653)">
			<rect x="20" y="18.3333" width="18.3333" height="18.3333" rx="5.5" data-two-tone="true" style="stroke-width:0" opacity="0.4"/>
			<path d="M33.3333 16.6667H6.66667L15.8333 6.66666" fill='none'/>
			<path d="M6.66667 23.3333H33.3333L24.1667 33.3333" fill='none'/>
		</g>
	</symbol>
	<symbol id="custom-wallet" viewBox="0 0 40 40" stroke="currentcolor" stroke-linecap="round"
		xmlns="http://www.w3.org/2000/svg">
		<g clip-path="url(#clip0_7812_146657)">
			<rect x="7" y="22" width="11" height="11" rx="2" data-two-tone="true" style="stroke-width:0" opacity="0.4"/>
			<path d="M28.3334 13.3333V8.33334C28.3334 7.89131 28.1578 7.46739 27.8452 7.15483C27.5326 6.84227 27.1087 6.66667 26.6667 6.66667H10C9.11597 6.66667 8.26812 7.01786 7.643 7.64298C7.01788 8.2681 6.66669 9.11595 6.66669 10M6.66669 10C6.66669 10.8841 7.01788 11.7319 7.643 12.357C8.26812 12.9821 9.11597 13.3333 10 13.3333H30C30.442 13.3333 30.866 13.5089 31.1785 13.8215C31.4911 14.1341 31.6667 14.558 31.6667 15V20M6.66669 10V30C6.66669 30.8841 7.01788 31.7319 7.643 32.357C8.26812 32.9821 9.11597 33.3333 10 33.3333H30C30.442 33.3333 30.866 33.1577 31.1785 32.8452C31.4911 32.5326 31.6667 32.1087 31.6667 31.6667V26.6667" fill='none'/>
			<path d="M33.3333 20V26.6667H26.6666C25.7826 26.6667 24.9347 26.3155 24.3096 25.6904C23.6845 25.0652 23.3333 24.2174 23.3333 23.3333C23.3333 22.4493 23.6845 21.6014 24.3096 20.9763C24.9347 20.3512 25.7826 20 26.6666 20H33.3333Z" fill='none'/>
		</g>
	</symbol>
	<symbol id="custom-doller" viewBox="0 0 40 40" stroke="currentcolor" stroke-linecap="round"
		xmlns="http://www.w3.org/2000/svg">
		<g clip-path="url(#clip0_7812_146659)">
			<rect x="20" y="18" width="14" height="14" rx="7" data-two-tone="true" style="stroke-width:0" opacity="0.4"/>
			<path d="M5 20C5 21.9698 5.38799 23.9204 6.14181 25.7403C6.89563 27.5601 8.00052 29.2137 9.3934 30.6066C10.7863 31.9995 12.4399 33.1044 14.2597 33.8582C16.0796 34.612 18.0302 35 20 35C21.9698 35 23.9204 34.612 25.7403 33.8582C27.5601 33.1044 29.2137 31.9995 30.6066 30.6066C31.9995 29.2137 33.1044 27.5601 33.8582 25.7403C34.612 23.9204 35 21.9698 35 20C35 18.0302 34.612 16.0796 33.8582 14.2597C33.1044 12.4399 31.9995 10.7863 30.6066 9.3934C29.2137 8.00052 27.5601 6.89563 25.7403 6.14181C23.9204 5.38799 21.9698 5 20 5C18.0302 5 16.0796 5.38799 14.2597 6.14181C12.4399 6.89563 10.7863 8.00052 9.3934 9.3934C8.00052 10.7863 6.89563 12.4399 6.14181 14.2597C5.38799 16.0796 5 18.0302 5 20Z" fill='none'/>
			<path d="M24.6667 15C24.3647 14.4763 23.9261 14.0445 23.3976 13.7509C22.8692 13.4573 22.2708 13.313 21.6667 13.3333H18.3333C17.4493 13.3333 16.6014 13.6845 15.9763 14.3097C15.3512 14.9348 15 15.7826 15 16.6667C15 17.5507 15.3512 18.3986 15.9763 19.0237C16.6014 19.6488 17.4493 20 18.3333 20H21.6667C22.5507 20 23.3986 20.3512 24.0237 20.9763C24.6488 21.6014 25 22.4493 25 23.3333C25 24.2174 24.6488 25.0652 24.0237 25.6904C23.3986 26.3155 22.5507 26.6667 21.6667 26.6667H18.3333C17.7292 26.687 17.1308 26.5427 16.6024 26.2491C16.0739 25.9555 15.6353 25.5237 15.3333 25" fill='none'/>
			<path d="M20 11.6667V28.3333" fill='none'/>
		</g>
	</symbol>
	<symbol id="custom-code" viewBox="0 0 40 40" stroke="currentcolor" stroke-linecap="round"
		xmlns="http://www.w3.org/2000/svg">
		<g clip-path="url(#clip0_7812_146661)">
			<rect x="23" y="20" width="12" height="12" rx="6" data-two-tone="true" style="stroke-width:0" opacity="0.4"/>
			<path d="M11.6667 13.3333L5 20L11.6667 26.6667" fill='none'/>
			<path d="M28.3333 13.3333L35 20L28.3333 26.6667" fill='none'/>
			<path d="M23.3334 6.66667L16.6667 33.3333" fill='none'/>
		</g>
	</symbol>
	<symbol id="custom-wrap-card" viewBox="0 0 40 40" stroke="currentcolor" stroke-linecap="round" stroke-linejoin="round"
		xmlns="http://www.w3.org/2000/svg">
		<g clip-path="url(#clip0_185_40651)">
			<path d="M5.5 21.7143C5.5 21.2596 5.65218 20.8236 5.92307 20.5021C6.19395 20.1806 6.56135 20 6.94444 20H17.0556C17.4386 20 17.806 20.1806 18.0769 20.5021C18.3478 20.8236 18.5 21.2596 18.5 21.7143V30.2857C18.5 30.7404 18.3478 31.1764 18.0769 31.4979C17.806 31.8194 17.4386 32 17.0556 32H6.94444C6.56135 32 6.19395 31.8194 5.92307 31.4979C5.65218 31.1764 5.5 30.7404 5.5 30.2857V21.7143Z" data-two-tone="true" style="stroke-width:0" opacity="0.4" />
			<path d="M18.3333 20C18.3333 20.6566 18.4626 21.3068 18.7139 21.9134C18.9652 22.52 19.3335 23.0712 19.7978 23.5355C20.2621 23.9998 20.8133 24.3681 21.4199 24.6194C22.0265 24.8707 22.6767 25 23.3333 25C23.9899 25 24.6401 24.8707 25.2467 24.6194C25.8534 24.3681 26.4046 23.9998 26.8688 23.5355C27.3331 23.0712 27.7014 22.52 27.9527 21.9134C28.204 21.3068 28.3333 20.6566 28.3333 20C28.3333 19.3434 28.204 18.6932 27.9527 18.0866C27.7014 17.48 27.3331 16.9288 26.8688 16.4645C26.4046 16.0002 25.8534 15.6319 25.2467 15.3806C24.6401 15.1293 23.9899 15 23.3333 15C22.6767 15 22.0265 15.1293 21.4199 15.3806C20.8133 15.6319 20.2621 16.0002 19.7978 16.4645C19.3335 16.9288 18.9652 17.48 18.7139 18.0866C18.4626 18.6932 18.3333 19.3434 18.3333 20Z" fill="none" />
			<path d="M20 16.275C19.2807 15.631 18.3904 15.209 17.4366 15.0599C16.4827 14.9109 15.5061 15.0412 14.6246 15.4351C13.7432 15.829 12.9947 16.4697 12.4694 17.2797C11.9442 18.0898 11.6647 19.0346 11.6647 20C11.6647 20.9654 11.9442 21.9102 12.4694 22.7203C12.9947 23.5303 13.7432 24.171 14.6246 24.5649C15.5061 24.9588 16.4827 25.0891 17.4366 24.9401C18.3904 24.791 19.2807 24.369 20 23.725" fill="none" />
			<path d="M5 11.6667C5 10.7826 5.35119 9.93477 5.97631 9.30964C6.60143 8.68452 7.44928 8.33333 8.33333 8.33333H31.6667C32.5507 8.33333 33.3986 8.68452 34.0237 9.30964C34.6488 9.93477 35 10.7826 35 11.6667V28.3333C35 29.2174 34.6488 30.0652 34.0237 30.6904C33.3986 31.3155 32.5507 31.6667 31.6667 31.6667H8.33333C7.44928 31.6667 6.60143 31.3155 5.97631 30.6904C5.35119 30.0652 5 29.2174 5 28.3333V11.6667Z" fill="none" />
		</g>
	</symbol>
</svg>