<svg width="262" height="192" viewBox="0 0 262 192" fill="none" xmlns="http://www.w3.org/2000/svg">
<rect x="0.5" y="0.5" width="261" height="191" rx="11.5" fill="white"/>
<rect x="0.5" y="0.5" width="261" height="191" rx="11.5" stroke="#E9EDF5"/>
<circle cx="10.458" cy="10.4571" r="2.61429" fill="#DCE2ED"/>
<circle cx="18.2998" cy="10.4571" r="2.61429" fill="#DCE2ED"/>
<circle cx="26.1436" cy="10.4571" r="2.61429" fill="#DCE2ED"/>
<circle cx="250.972" cy="10.4571" r="2.61429" fill="#DCE2ED"/>
<rect x="70.5859" y="7.84277" width="120.257" height="5.22857" rx="2.61429" fill="#DCE2ED"/>
<rect x="84" y="110" width="93" height="3" rx="1.5" fill="#E0E6F2"/>
<rect x="91" y="115" width="79" height="3" rx="1.5" fill="#E0E6F2"/>
<rect x="112" y="126" width="37.9071" height="10.4571" rx="5.22857" fill="#AAB2C0"/>
<path d="M89.7723 99.9001C86.386 99.9001 83.4498 99.2786 80.9637 98.0356C78.4776 96.7925 76.5487 95.0351 75.1771 92.7633C73.8483 90.4915 73.1839 87.8553 73.1839 84.8548V84.1476H80.0636V84.7905C80.0636 87.5338 80.8994 89.7413 82.5711 91.413C84.2857 93.0419 86.6647 93.8563 89.708 93.8563C92.8371 93.8563 95.2589 92.999 96.9735 91.2844C98.6881 89.5699 99.5454 87.2552 99.5454 84.3404V83.7618C99.5454 80.9756 98.6881 78.7467 96.9735 77.075C95.3018 75.4033 93.1586 74.5674 90.5439 74.5674C89.0865 74.5674 87.8649 74.8032 86.879 75.2747C85.936 75.7033 85.1644 76.2391 84.5643 76.8821C84.0071 77.525 83.5356 78.1466 83.1498 78.7467H74.5984V53.9926H104.753V60.1007H81.3495V73.3458H82.3782C82.8069 72.6171 83.407 71.9313 84.1785 71.2883C84.993 70.6025 86.0431 70.0452 87.3291 69.6166C88.615 69.188 90.1581 68.9736 91.9584 68.9736C94.616 68.9736 97.0164 69.5523 99.1596 70.7096C101.346 71.8241 103.082 73.4958 104.368 75.7247C105.653 77.9108 106.296 80.5684 106.296 83.6975V84.4047C106.296 87.5338 105.632 90.2557 104.303 92.5704C102.974 94.885 101.067 96.6853 98.5809 97.9713C96.1376 99.2572 93.2015 99.9001 89.7723 99.9001ZM130.007 99.9001C124.778 99.9001 120.599 98.4213 117.47 95.4637C114.383 92.4632 112.84 87.9625 112.84 81.9615V71.0311C112.84 65.1587 114.383 60.7008 117.47 57.6575C120.599 54.6141 124.778 53.0924 130.007 53.0924C135.28 53.0924 139.459 54.6141 142.545 57.6575C145.674 60.7008 147.239 65.1587 147.239 71.0311V81.9615C147.239 87.9625 145.674 92.4632 142.545 95.4637C139.459 98.4213 135.28 99.9001 130.007 99.9001ZM130.007 93.8563C133.565 93.8563 136.201 92.849 137.916 90.8344C139.63 88.7769 140.488 85.905 140.488 82.2187V70.6453C140.488 66.959 139.566 64.13 137.723 62.1582C135.88 60.1436 133.308 59.1363 130.007 59.1363C126.664 59.1363 124.092 60.165 122.292 62.2225C120.492 64.2371 119.591 67.0447 119.591 70.6453V82.2187C119.591 85.9907 120.449 88.884 122.163 90.8987C123.921 92.8704 126.535 93.8563 130.007 93.8563ZM171.908 99.9001C166.678 99.9001 162.499 98.4213 159.37 95.4637C156.284 92.4632 154.74 87.9625 154.74 81.9615V71.0311C154.74 65.1587 156.284 60.7008 159.37 57.6575C162.499 54.6141 166.678 53.0924 171.908 53.0924C177.18 53.0924 181.359 54.6141 184.445 57.6575C187.574 60.7008 189.139 65.1587 189.139 71.0311V81.9615C189.139 87.9625 187.574 92.4632 184.445 95.4637C181.359 98.4213 177.18 99.9001 171.908 99.9001ZM171.908 93.8563C175.465 93.8563 178.101 92.849 179.816 90.8344C181.531 88.7769 182.388 85.905 182.388 82.2187V70.6453C182.388 66.959 181.466 64.13 179.623 62.1582C177.78 60.1436 175.208 59.1363 171.908 59.1363C168.564 59.1363 165.992 60.165 164.192 62.2225C162.392 64.2371 161.492 67.0447 161.492 70.6453V82.2187C161.492 85.9907 162.349 88.884 164.063 90.8987C165.821 92.8704 168.436 93.8563 171.908 93.8563Z" fill="#DCE2ED"/>
<rect x="91" y="167" width="21" height="3" rx="1.5" fill="#DCE2ED"/>
<rect x="120" y="167" width="21" height="3" rx="1.5" fill="#DCE2ED"/>
<rect x="149" y="167" width="21" height="3" rx="1.5" fill="#DCE2ED"/>
</svg>
