<svg width="262" height="192" viewBox="0 0 262 192" fill="none" xmlns="http://www.w3.org/2000/svg">
<rect x="0.5" y="0.5" width="261" height="191" rx="11.5" fill="white"/>
<rect x="0.5" y="0.5" width="261" height="191" rx="11.5" stroke="#E9EDF5"/>
<circle cx="10.458" cy="10.4571" r="2.61429" fill="#DCE2ED"/>
<circle cx="18.2998" cy="10.4571" r="2.61429" fill="#DCE2ED"/>
<circle cx="26.1436" cy="10.4571" r="2.61429" fill="#DCE2ED"/>
<circle cx="250.972" cy="10.4571" r="2.61429" fill="#DCE2ED"/>
<rect x="70.5859" y="7.84277" width="120.257" height="5.22857" rx="2.61429" fill="#DCE2ED"/>
<rect x="24" y="39" width="151" height="3" rx="1.5" fill="#E0E6F2"/>
<rect x="24" y="44" width="128.269" height="3" rx="1.5" fill="#E0E6F2"/>
<rect x="24" y="25" width="58" height="10" rx="5" fill="#DCE2ED" fill-opacity="0.7"/>
<rect x="24" y="133" width="214" height="3" rx="1.5" fill="#DCE2ED" fill-opacity="0.7"/>
<rect x="24" y="139" width="214" height="3" rx="1.5" fill="#DCE2ED" fill-opacity="0.7"/>
<rect x="24" y="145" width="214" height="3" rx="1.5" fill="#DCE2ED" fill-opacity="0.7"/>
<rect x="24" y="151" width="39" height="3" rx="1.5" fill="#DCE2ED" fill-opacity="0.7"/>
<rect x="24" y="160" width="214" height="3" rx="1.5" fill="#DCE2ED" fill-opacity="0.7"/>
<rect x="24" y="166" width="214" height="3" rx="1.5" fill="#DCE2ED" fill-opacity="0.7"/>
<rect x="24" y="172" width="214" height="3" rx="1.5" fill="#DCE2ED" fill-opacity="0.7"/>
<rect x="24" y="178" width="142" height="3" rx="1.5" fill="#DCE2ED" fill-opacity="0.7"/>
<rect x="227" y="41" width="6" height="6" rx="3" fill="#E7EBF3"/>
<rect x="219" y="41" width="6" height="6" rx="3" fill="#E7EBF3"/>
<rect x="211" y="41" width="6" height="6" rx="3" fill="#E7EBF3"/>
<rect x="203" y="41" width="6" height="6" rx="3" fill="#E7EBF3"/>
<rect x="25" y="57" width="212" height="67" rx="6" fill="#E7EBF3"/>
</svg>
