<svg width="262" height="187" viewBox="0 0 262 187" fill="none" xmlns="http://www.w3.org/2000/svg">
<rect x="0.5" y="0.5" width="261" height="62" rx="11.5" fill="white"/>
<rect x="0.5" y="0.5" width="261" height="62" rx="11.5" stroke="#E9EDF5"/>
<rect x="31" y="36" width="26" height="10" rx="5" fill="#DCE2ED"/>
<rect x="61" y="36" width="25" height="10" rx="5" fill="#DCE2ED"/>
<rect x="90" y="36" width="25" height="10" rx="5" fill="#DCE2ED"/>
<rect x="119" y="36" width="25" height="10" rx="5" fill="#DCE2ED"/>
<rect x="148" y="36" width="25" height="10" rx="5" fill="#DCE2ED"/>
<rect x="177" y="36" width="25" height="10" rx="5" fill="#DCE2ED"/>
<rect x="206" y="36" width="25" height="10" rx="5" fill="#DCE2ED"/>
<rect x="69" y="18" width="123" height="4" rx="2" fill="#E9EDF5"/>
<rect x="0.5" y="68.5" width="261" height="50" rx="11.5" fill="white"/>
<rect x="0.5" y="68.5" width="261" height="50" rx="11.5" stroke="#E9EDF5"/>
<rect x="66" y="84" width="26" height="10" rx="5" fill="#DCE2ED"/>
<rect x="96" y="84" width="25" height="10" rx="5" fill="#DCE2ED"/>
<rect x="125" y="84" width="25" height="10" rx="5" fill="#DCE2ED"/>
<rect x="154" y="84" width="25" height="10" rx="5" fill="#DCE2ED"/>
<rect x="183" y="84" width="25" height="10" rx="5" fill="#DCE2ED"/>
<rect x="212" y="84" width="25" height="10" rx="5" fill="#DCE2ED"/>
<rect x="27" y="100" width="210" height="1" rx="0.5" fill="#E9EDF5" fill-opacity="0.6"/>
<rect x="61" y="79" width="1" height="22" rx="0.5" fill="#E9EDF5" fill-opacity="0.6"/>
<rect x="42" y="107" width="177" height="4" rx="2" fill="#E9EDF5"/>
<rect x="27" y="84" width="31" height="3" rx="1.5" fill="#E9EDF5"/>
<rect x="27" y="88" width="28" height="3" rx="1.5" fill="#E9EDF5"/>
<rect x="27" y="92" width="19" height="3" rx="1.5" fill="#E9EDF5"/>
<rect x="0.5" y="124.5" width="261" height="62" rx="11.5" fill="white"/>
<rect x="0.5" y="124.5" width="261" height="62" rx="11.5" stroke="#E9EDF5"/>
<rect x="34" y="146" width="30" height="10" rx="5" fill="#DCE2ED"/>
<rect x="68" y="146" width="29" height="10" rx="5" fill="#DCE2ED"/>
<rect x="101" y="146" width="29" height="10" rx="5" fill="#DCE2ED"/>
<rect x="134" y="146" width="28" height="10" rx="5" fill="#DCE2ED"/>
<rect x="166" y="146" width="29" height="10" rx="5" fill="#DCE2ED"/>
<rect x="199" y="146" width="29" height="10" rx="5" fill="#DCE2ED"/>
<rect x="63" y="160" width="31" height="10" rx="5" fill="#DCE2ED"/>
<rect x="98" y="160" width="31" height="10" rx="5" fill="#DCE2ED"/>
<rect x="133" y="160" width="31" height="10" rx="5" fill="#DCE2ED"/>
<rect x="168" y="160" width="31" height="10" rx="5" fill="#DCE2ED"/>
<rect x="113" y="134" width="35" height="4" rx="2" fill="#E9EDF5"/>
</svg>
