<svg width="262" height="187" viewBox="0 0 262 187" fill="none" xmlns="http://www.w3.org/2000/svg">
<rect x="0.5" y="0.5" width="261" height="186" rx="11.5" fill="white"/>
<rect x="0.5" y="0.5" width="261" height="186" rx="11.5" stroke="#E9EDF5"/>
<circle cx="10.458" cy="10.4571" r="2.61429" fill="#DCE2ED"/>
<circle cx="18.2998" cy="10.4571" r="2.61429" fill="#DCE2ED"/>
<circle cx="26.1436" cy="10.4571" r="2.61429" fill="#DCE2ED"/>
<circle cx="26.1436" cy="10.4571" r="2.61429" fill="#DCE2ED"/>
<circle cx="250.972" cy="10.4571" r="2.61429" fill="#DCE2ED"/>
<rect x="70.5859" y="7.84277" width="120.257" height="5.22857" rx="2.61429" fill="#DCE2ED"/>
<rect x="20" y="52" width="105.961" height="55" rx="4" fill="#E9EDF5"/>
<rect x="26" y="55" width="93.4948" height="37" rx="4" fill="#DCE2ED"/>
<rect x="26" y="97" width="29" height="4" rx="2" fill="#DCE2ED"/>
<rect x="89" y="97" width="31" height="4" rx="2" fill="#D6DCE9"/>
<rect x="129.961" y="52" width="105.961" height="55" rx="4" fill="#E9EDF5"/>
<rect x="136" y="97" width="29" height="4" rx="2" fill="#DCE2ED"/>
<rect x="199" y="97" width="31" height="4" rx="2" fill="#D6DCE9"/>
<rect x="136.193" y="55" width="93.4948" height="37" rx="4" fill="#DCE2ED"/>
<rect x="20" y="111" width="105.961" height="55" rx="4" fill="#E9EDF5"/>
<rect x="26" y="156" width="29" height="4" rx="2" fill="#DCE2ED"/>
<rect x="89" y="156" width="31" height="4" rx="2" fill="#D6DCE9"/>
<rect x="26.2324" y="114" width="93.4948" height="37" rx="4" fill="#DCE2ED"/>
<rect x="129.961" y="111" width="105.961" height="55" rx="4" fill="#E9EDF5"/>
<rect x="136" y="156" width="29" height="4" rx="2" fill="#DCE2ED"/>
<rect x="199" y="156" width="31" height="4" rx="2" fill="#D6DCE9"/>
<rect x="136.193" y="114" width="93.4948" height="37" rx="4" fill="#DCE2ED"/>
<rect x="20" y="31" width="58" height="7" rx="3.5" fill="#E9EDF5"/>
</svg>
