<svg width="262" height="187" viewBox="0 0 262 187" fill="none" xmlns="http://www.w3.org/2000/svg">
<rect x="0.5" y="0.5" width="261" height="186" rx="11.5" fill="white"/>
<rect x="0.5" y="0.5" width="261" height="186" rx="11.5" stroke="#E9EDF5"/>
<circle cx="10.458" cy="10.4571" r="2.61429" fill="#DCE2ED"/>
<circle cx="18.2998" cy="10.4571" r="2.61429" fill="#DCE2ED"/>
<circle cx="26.1436" cy="10.4571" r="2.61429" fill="#DCE2ED"/>
<circle cx="250.972" cy="10.4571" r="2.61429" fill="#DCE2ED"/>
<rect x="70.5859" y="7.84277" width="120.257" height="5.22857" rx="2.61429" fill="#DCE2ED"/>
<rect x="77" y="30" width="107" height="8" rx="4" fill="#DCE2ED"/>
<rect x="85" y="41" width="91" height="3" rx="1.5" fill="#E0E6F2"/>
<rect x="93" y="46" width="76" height="3" rx="1.5" fill="#E0E6F2"/>
<rect x="71" y="60" width="126" height="116" rx="5.22857" fill="#F2F5FA"/>
<rect x="115" y="158" width="37.9071" height="10.4571" rx="5.22857" fill="#AAB2C0"/>
<rect x="81" y="92" width="40" height="3" rx="1.5" fill="#DCE2ED"/>
<rect x="81" y="97" width="107" height="10" rx="2" fill="#DCE2ED" fill-opacity="0.7"/>
<rect x="81" y="113" width="40" height="3" rx="1.5" fill="#DCE2ED"/>
<rect x="81" y="118" width="107" height="29" rx="2" fill="#DCE2ED" fill-opacity="0.7"/>
<rect x="81" y="71" width="24" height="3" rx="1.5" fill="#DCE2ED"/>
<rect x="81" y="76" width="51" height="10" rx="2" fill="#DCE2ED" fill-opacity="0.7"/>
<rect x="137" y="71" width="24" height="3" rx="1.5" fill="#DCE2ED"/>
<rect x="137" y="76" width="51" height="10" rx="2" fill="#DCE2ED" fill-opacity="0.7"/>
</svg>
