<svg width="262" height="187" viewBox="0 0 262 187" fill="none" xmlns="http://www.w3.org/2000/svg">
<g clip-path="url(#clip0_4318_7797)">
<rect width="262" height="187" rx="12" fill="white"/>
<circle cx="10.458" cy="10.4571" r="2.61429" fill="#DCE2ED"/>
<circle cx="18.2998" cy="10.4571" r="2.61429" fill="#DCE2ED"/>
<circle cx="26.1436" cy="10.4571" r="2.61429" fill="#DCE2ED"/>
<circle cx="250.972" cy="10.4571" r="2.61429" fill="#DCE2ED"/>
<rect x="70.5859" y="7.84277" width="120.257" height="5.22857" rx="2.61429" fill="#DCE2ED"/>
<g opacity="0.3">
<rect x="24" y="35" width="107" height="11" rx="5.5" fill="#DCE2ED"/>
<rect x="24" y="49" width="91" height="11" rx="5.5" fill="#DCE2ED"/>
<rect x="25" y="79" width="8" height="8" rx="4" fill="#DCE2ED"/>
<rect x="37" y="81" width="52" height="4" rx="2" fill="#DCE2ED"/>
<rect x="203" y="35" width="42" height="3" rx="1.5" fill="#E9EDF5"/>
<rect x="37" y="90" width="94" height="2" rx="1" fill="#E9EDF5"/>
<rect x="203" y="40" width="39" height="3" rx="1.5" fill="#E9EDF5"/>
<rect x="37" y="94" width="77" height="2" rx="1" fill="#E9EDF5"/>
<rect x="37" y="98" width="59" height="2" rx="1" fill="#E9EDF5"/>
<rect x="25" y="112" width="8" height="8" rx="4" fill="#DCE2ED"/>
<rect x="37" y="114" width="52" height="4" rx="2" fill="#DCE2ED"/>
<rect x="37" y="123" width="94" height="2" rx="1" fill="#E9EDF5"/>
<rect x="37" y="127" width="77" height="2" rx="1" fill="#E9EDF5"/>
<rect x="37" y="131" width="82" height="2" rx="1" fill="#E9EDF5"/>
<rect x="25" y="143" width="8" height="8" rx="4" fill="#DCE2ED"/>
<rect x="37" y="145" width="52" height="4" rx="2" fill="#DCE2ED"/>
<rect x="37" y="154" width="94" height="2" rx="1" fill="#E9EDF5"/>
<rect x="37" y="158" width="77" height="2" rx="1" fill="#E9EDF5"/>
<rect x="37" y="162" width="59" height="2" rx="1" fill="#E9EDF5"/>
<rect x="28.5" y="88" width="1" height="23" rx="0.5" fill="#E9EDF5"/>
<rect x="28.5" y="121" width="1" height="21" rx="0.5" fill="#E9EDF5"/>
<rect x="203" y="49" width="42" height="10" rx="5" fill="#AAB2C0"/>
<rect x="161" y="74" width="84" height="90" rx="5.22857" fill="#F2F5FA"/>
</g>
<g filter="url(#filter0_d_4318_7797)">
<rect x="135" y="106" width="110" height="72" rx="4" fill="#EBEFF7"/>
</g>
<rect x="141" y="127" width="96" height="4" rx="2" fill="#D9E1F0"/>
<rect x="141" y="134" width="84" height="4" rx="2" fill="#D9E1F0"/>
<rect x="141" y="141" width="65" height="4" rx="2" fill="#D9E1F0"/>
<rect x="141" y="113" width="76" height="9" rx="4.5" fill="#D9E1F0"/>
<rect x="141" y="156" width="46" height="14" rx="7" fill="#AAB2C0"/>
<rect x="191" y="156" width="46" height="14" rx="7" fill="#DCE2ED"/>
</g>
<rect x="0.5" y="0.5" width="261" height="186" rx="11.5" stroke="#E9EDF5"/>
<defs>
<filter id="filter0_d_4318_7797" x="101" y="73" width="178" height="140" filterUnits="userSpaceOnUse" color-interpolation-filters="sRGB">
<feFlood flood-opacity="0" result="BackgroundImageFix"/>
<feColorMatrix in="SourceAlpha" type="matrix" values="0 0 0 0 0 0 0 0 0 0 0 0 0 0 0 0 0 0 127 0" result="hardAlpha"/>
<feOffset dy="1"/>
<feGaussianBlur stdDeviation="17"/>
<feComposite in2="hardAlpha" operator="out"/>
<feColorMatrix type="matrix" values="0 0 0 0 0 0 0 0 0 0 0 0 0 0 0 0 0 0 0.05 0"/>
<feBlend mode="normal" in2="BackgroundImageFix" result="effect1_dropShadow_4318_7797"/>
<feBlend mode="normal" in="SourceGraphic" in2="effect1_dropShadow_4318_7797" result="shape"/>
</filter>
<clipPath id="clip0_4318_7797">
<rect width="262" height="187" rx="12" fill="white"/>
</clipPath>
</defs>
</svg>
