<svg width="262" height="187" viewBox="0 0 262 187" fill="none" xmlns="http://www.w3.org/2000/svg">
<rect x="0.5" y="0.5" width="261" height="186" rx="11.5" fill="white"/>
<rect x="0.5" y="0.5" width="261" height="186" rx="11.5" stroke="#E9EDF5"/>
<circle cx="10.458" cy="10.4571" r="2.61429" fill="#DCE2ED"/>
<circle cx="18.2998" cy="10.4571" r="2.61429" fill="#DCE2ED"/>
<circle cx="26.1436" cy="10.4571" r="2.61429" fill="#DCE2ED"/>
<circle cx="26.1436" cy="10.4571" r="2.61429" fill="#DCE2ED"/>
<circle cx="250.972" cy="10.4571" r="2.61429" fill="#DCE2ED"/>
<rect x="70.5859" y="7.84277" width="120.257" height="5.22857" rx="2.61429" fill="#DCE2ED"/>
<rect x="24" y="44" width="214" height="103" rx="12" fill="#F2F5FA"/>
<rect x="61" y="59" width="139" height="10" rx="5" fill="#DCE2ED"/>
<rect x="84" y="117" width="45" height="14" rx="7" fill="#AAB2C0"/>
<rect x="132" y="117" width="45" height="14" rx="7" fill="#DCE2ED"/>
<rect x="70" y="72" width="119" height="11" rx="5.5" fill="#DCE2ED"/>
<rect x="70" y="88" width="119" height="4" rx="2" fill="#E9EDF5"/>
<rect x="81" y="94" width="98" height="4" rx="2" fill="#E9EDF5"/>
</svg>
