<svg width="262" height="187" viewBox="0 0 262 187" fill="none" xmlns="http://www.w3.org/2000/svg">
<rect x="0.5" y="0.5" width="261" height="186" rx="11.5" fill="white"/>
<rect x="0.5" y="0.5" width="261" height="186" rx="11.5" stroke="#E9EDF5"/>
<circle cx="10.458" cy="10.4571" r="2.61429" fill="#DCE2ED"/>
<circle cx="18.2998" cy="10.4571" r="2.61429" fill="#DCE2ED"/>
<circle cx="26.1436" cy="10.4571" r="2.61429" fill="#DCE2ED"/>
<circle cx="250.972" cy="10.4571" r="2.61429" fill="#DCE2ED"/>
<rect x="70.5859" y="7.84277" width="120.257" height="5.22857" rx="2.61429" fill="#DCE2ED"/>
<rect x="77" y="28" width="107" height="11" rx="5.5" fill="#DCE2ED"/>
<rect x="85" y="42" width="91" height="11" rx="5.5" fill="#DCE2ED"/>
<rect x="100" y="152" width="62" height="3" rx="1.5" fill="#E9EDF5"/>
<rect x="105" y="158" width="50" height="3" rx="1.5" fill="#E9EDF5"/>
<path d="M110 169C110 166.239 112.239 164 115 164H147C149.761 164 152 166.239 152 169C152 171.761 149.761 174 147 174H115C112.239 174 110 171.761 110 169Z" fill="#AAB2C0"/>
<rect x="52" y="62" width="158" height="14" rx="4" fill="#F2F5FA"/>
<circle cx="202.614" cy="68.6143" r="2.61429" fill="#DCE2ED"/>
<rect x="57" y="67" width="86" height="4" rx="2" fill="#DCE2ED"/>
<rect x="52" y="78" width="158" height="14" rx="4" fill="#F2F5FA"/>
<circle cx="202.614" cy="84.6143" r="2.61429" fill="#DCE2ED"/>
<rect x="57" y="83" width="112" height="4" rx="2" fill="#DCE2ED"/>
<rect x="52" y="94" width="158" height="14" rx="4" fill="#F2F5FA"/>
<circle cx="202.614" cy="100.614" r="2.61429" fill="#DCE2ED"/>
<rect x="57" y="99" width="78" height="4" rx="2" fill="#DCE2ED"/>
<rect x="52" y="110" width="158" height="14" rx="4" fill="#F2F5FA"/>
<circle cx="202.614" cy="116.614" r="2.61429" fill="#DCE2ED"/>
<rect x="57" y="115" width="101" height="4" rx="2" fill="#DCE2ED"/>
<rect x="52" y="126" width="158" height="14" rx="4" fill="#F2F5FA"/>
<circle cx="202.614" cy="132.614" r="2.61429" fill="#DCE2ED"/>
<rect x="57" y="131" width="60" height="4" rx="2" fill="#DCE2ED"/>
</svg>
