<svg width="262" height="187" viewBox="0 0 262 187" fill="none" xmlns="http://www.w3.org/2000/svg">
<rect x="0.5" y="0.5" width="261" height="186" rx="11.5" fill="white"/>
<rect x="0.5" y="0.5" width="261" height="186" rx="11.5" stroke="#E9EDF5"/>
<circle cx="10.458" cy="10.458" r="2.61429" fill="#DCE2ED"/>
<circle cx="18.2998" cy="10.458" r="2.61429" fill="#DCE2ED"/>
<circle cx="26.1436" cy="10.458" r="2.61429" fill="#DCE2ED"/>
<circle cx="26.1436" cy="10.458" r="2.61429" fill="#DCE2ED"/>
<circle cx="250.972" cy="10.458" r="2.61429" fill="#DCE2ED"/>
<rect x="70.5859" y="7.84375" width="120.257" height="5.22857" rx="2.61429" fill="#DCE2ED"/>
<rect x="77" y="29" width="107.186" height="10.4571" rx="5.22857" fill="#DCE2ED"/>
<rect x="84" y="42.0723" width="91.5" height="10.4571" rx="5.22857" fill="#DCE2ED"/>
<rect x="24" y="70" width="33.2354" height="8" rx="4" fill="#E3E8F2"/>
<rect x="24" y="83" width="67.5786" height="3.92143" rx="1.96071" fill="#E9EDF5"/>
<rect x="24" y="90" width="61.3008" height="3" rx="1.5" fill="#E9EDF5"/>
<rect x="24" y="96" width="53.1766" height="4" rx="2" fill="#E9EDF5"/>
<rect x="24" y="107" width="33.2354" height="8" rx="4" fill="#E3E8F2"/>
<rect x="24" y="120" width="67.5786" height="3.92143" rx="1.96071" fill="#E9EDF5"/>
<rect x="24" y="127" width="61.3008" height="3" rx="1.5" fill="#E9EDF5"/>
<rect x="24" y="133" width="53.1766" height="4" rx="2" fill="#E9EDF5"/>
<rect x="97.209" y="70" width="33.2354" height="8" rx="4" fill="#E3E8F2"/>
<rect x="97.209" y="83" width="67.5786" height="3.92143" rx="1.96071" fill="#E9EDF5"/>
<rect x="97.209" y="90" width="61.3008" height="3" rx="1.5" fill="#E9EDF5"/>
<rect x="97.209" y="96" width="53.1766" height="4" rx="2" fill="#E9EDF5"/>
<rect x="97.209" y="107" width="33.2354" height="8" rx="4" fill="#E3E8F2"/>
<rect x="97.209" y="120" width="67.5786" height="3.92143" rx="1.96071" fill="#E9EDF5"/>
<rect x="97.209" y="127" width="61.3008" height="3" rx="1.5" fill="#E9EDF5"/>
<rect x="97.209" y="133" width="53.1766" height="4" rx="2" fill="#E9EDF5"/>
<rect x="170.422" y="70" width="33.2354" height="8" rx="4" fill="#E3E8F2"/>
<rect x="170.422" y="83" width="67.5786" height="3.92143" rx="1.96071" fill="#E9EDF5"/>
<rect x="170.422" y="90" width="61.3008" height="3" rx="1.5" fill="#E9EDF5"/>
<rect x="170.422" y="96" width="53.1766" height="4" rx="2" fill="#E9EDF5"/>
<rect x="170.422" y="107" width="33.2354" height="8" rx="4" fill="#E3E8F2"/>
<rect x="170.422" y="120" width="67.5786" height="3.92143" rx="1.96071" fill="#E9EDF5"/>
<rect x="170.422" y="127" width="61.3008" height="3" rx="1.5" fill="#E9EDF5"/>
<rect x="170.422" y="133" width="53.1766" height="4" rx="2" fill="#E9EDF5"/>
<rect x="112" y="166" width="24" height="7" rx="3.5" fill="#AAB2C0"/>
<rect x="138" y="166" width="25" height="7" rx="3.5" fill="#DCE2ED"/>
<rect x="98" y="154" width="77" height="3" rx="1.5" fill="#E9EDF5"/>
<rect x="105" y="158" width="63" height="3" rx="1.5" fill="#E9EDF5"/>
</svg>
