<svg width="262" height="187" viewBox="0 0 262 187" fill="none" xmlns="http://www.w3.org/2000/svg">
<rect x="0.5" y="0.5" width="261" height="186" rx="11.5" fill="white"/>
<rect x="0.5" y="0.5" width="261" height="186" rx="11.5" stroke="#E9EDF5"/>
<circle cx="10.458" cy="10.4571" r="2.61429" fill="#DCE2ED"/>
<circle cx="18.2998" cy="10.4571" r="2.61429" fill="#DCE2ED"/>
<circle cx="26.1436" cy="10.4571" r="2.61429" fill="#DCE2ED"/>
<circle cx="250.972" cy="10.4571" r="2.61429" fill="#DCE2ED"/>
<rect x="70.5859" y="7.84277" width="120.257" height="5.22857" rx="2.61429" fill="#DCE2ED"/>
<rect x="24" y="37" width="214" height="139" rx="12" fill="#F2F5FA"/>
<rect x="36" y="146" width="190" height="1" rx="0.5" fill="#EDF1F7"/>
<rect x="36" y="46" width="116" height="5" rx="2.5" fill="#E3E8F2"/>
<rect x="36" y="80" width="60" height="11" rx="5.5" fill="#D6DEEE"/>
<rect x="36" y="95" width="60" height="4" rx="2" fill="#DFE7F5"/>
<rect x="36" y="101" width="44" height="4" rx="2" fill="#DFE7F5"/>
<rect x="36" y="107" width="33" height="4" rx="2" fill="#DFE7F5"/>
<rect x="36" y="159" width="33" height="4" rx="2" fill="#E9EDF5"/>
<rect x="73" y="159" width="33" height="4" rx="2" fill="#E9EDF5"/>
<rect x="110" y="159" width="33" height="4" rx="2" fill="#E9EDF5"/>
<rect x="188" y="157" width="8" height="8" rx="4" fill="#E9EDF5"/>
<rect x="198" y="157" width="8" height="8" rx="4" fill="#E9EDF5"/>
<rect x="208" y="157" width="8" height="8" rx="4" fill="#E9EDF5"/>
<rect x="218" y="157" width="8" height="8" rx="4" fill="#E9EDF5"/>
<rect x="24" y="37" width="214" height="32" rx="12" fill="#EBEFF7"/>
<rect x="111" y="80" width="31.6783" height="6.33566" rx="3.16783" fill="#D6DEEE"/>
<rect x="111" y="93.5762" width="35.5416" height="3.62038" rx="1.81019" fill="#DFE7F5"/>
<rect x="111" y="103.532" width="28.5878" height="3.62038" rx="1.81019" fill="#DFE7F5"/>
<rect x="111" y="113.488" width="33.4885" height="3.62038" rx="1.81019" fill="#DFE7F5"/>
<rect x="111" y="123.444" width="28.5878" height="3.62038" rx="1.81019" fill="#DFE7F5"/>
<rect x="111" y="133.4" width="30.7732" height="3.62038" rx="1.81019" fill="#DFE7F5"/>
<rect x="155" y="47" width="69" height="11" rx="5.5" fill="#CAD5E8"/>
<rect x="36" y="44" width="69" height="6" rx="3" fill="#CAD5E8"/>
<rect x="36" y="54" width="93" height="3" rx="1.5" fill="#CAD5E8" fill-opacity="0.6"/>
<rect x="36" y="59" width="78" height="3" rx="1.5" fill="#CAD5E8" fill-opacity="0.6"/>
<rect x="151.73" y="80" width="31.6783" height="6.33566" rx="3.16783" fill="#D6DEEE"/>
<rect x="151.73" y="93.5762" width="35.5416" height="3.62038" rx="1.81019" fill="#DFE7F5"/>
<rect x="151.73" y="103.532" width="28.5878" height="3.62038" rx="1.81019" fill="#DFE7F5"/>
<rect x="151.73" y="113.488" width="33.4885" height="3.62038" rx="1.81019" fill="#DFE7F5"/>
<rect x="151.73" y="123.444" width="31.6783" height="3.62038" rx="1.81019" fill="#DFE7F5"/>
<rect x="192.457" y="80" width="31.6783" height="6.33566" rx="3.16783" fill="#D6DEEE"/>
<rect x="192.457" y="93.5762" width="35.5416" height="3.62038" rx="1.81019" fill="#DFE7F5"/>
<rect x="192.457" y="103.532" width="28.5878" height="3.62038" rx="1.81019" fill="#DFE7F5"/>
<rect x="192.457" y="113.488" width="33.4885" height="3.62038" rx="1.81019" fill="#DFE7F5"/>
<rect x="192.457" y="123.444" width="28.5878" height="3.62038" rx="1.81019" fill="#DFE7F5"/>
<rect x="192.457" y="133.4" width="30.7732" height="3.62038" rx="1.81019" fill="#DFE7F5"/>
</svg>
