<svg width="262" height="187" viewBox="0 0 262 187" fill="none" xmlns="http://www.w3.org/2000/svg">
<g clip-path="url(#clip0_4318_7618)">
<rect width="262" height="187" rx="12" fill="white"/>
<circle cx="10.458" cy="10.4571" r="2.61429" fill="#DCE2ED"/>
<circle cx="18.2998" cy="10.4571" r="2.61429" fill="#DCE2ED"/>
<circle cx="26.1436" cy="10.4571" r="2.61429" fill="#DCE2ED"/>
<circle cx="250.972" cy="10.4571" r="2.61429" fill="#DCE2ED"/>
<rect x="70.5859" y="7.84277" width="120.257" height="5.22857" rx="2.61429" fill="#DCE2ED"/>
<rect x="61" y="43" width="139" height="10" rx="5" fill="#DCE2ED"/>
<rect x="71" y="56" width="119" height="11" rx="5.5" fill="#DCE2ED"/>
<rect x="87" y="82" width="87" height="89" rx="4" fill="#F2F5FA"/>
<rect x="178" y="82" width="50" height="56" rx="4" fill="#F2F5FA"/>
<rect x="232" y="82" width="50" height="89" rx="4" fill="#F2F5FA"/>
<rect x="-21" y="82" width="50" height="89" rx="4" fill="#F2F5FA"/>
<rect x="178" y="142" width="50" height="29" rx="4" fill="#F2F5FA"/>
<rect x="33" y="82" width="50" height="27" rx="4" fill="#F2F5FA"/>
<rect x="33" y="113" width="50" height="58" rx="4" fill="#F2F5FA"/>
</g>
<rect x="0.5" y="0.5" width="261" height="186" rx="11.5" stroke="#E9EDF5"/>
<defs>
<clipPath id="clip0_4318_7618">
<rect width="262" height="187" rx="12" fill="white"/>
</clipPath>
</defs>
</svg>
