<svg width="262" height="187" viewBox="0 0 262 187" fill="none" xmlns="http://www.w3.org/2000/svg">
<rect x="0.5" y="0.5" width="261" height="186" rx="11.5" fill="white"/>
<rect x="0.5" y="0.5" width="261" height="186" rx="11.5" stroke="#E9EDF5"/>
<circle cx="10.458" cy="10.458" r="2.61429" fill="#DCE2ED"/>
<circle cx="18.2998" cy="10.458" r="2.61429" fill="#DCE2ED"/>
<circle cx="26.1436" cy="10.458" r="2.61429" fill="#DCE2ED"/>
<circle cx="26.1436" cy="10.458" r="2.61429" fill="#DCE2ED"/>
<circle cx="250.972" cy="10.458" r="2.61429" fill="#DCE2ED"/>
<rect x="70.5859" y="7.84375" width="120.257" height="5.22857" rx="2.61429" fill="#DCE2ED"/>
<rect x="23.5293" y="36.5996" width="107.186" height="10.4571" rx="5.22857" fill="#DCE2ED"/>
<rect x="23.5293" y="105.879" width="37.9071" height="10.4571" rx="5.22857" fill="#AAB2C0"/>
<rect x="64.0508" y="105.879" width="37.9071" height="10.4571" rx="5.22857" fill="#DCE2ED"/>
<rect x="23.5293" y="49.6719" width="91.5" height="10.4571" rx="5.22857" fill="#DCE2ED"/>
<rect x="23.5293" y="149.172" width="33.9857" height="10.4571" rx="5.22857" fill="#DCE2ED"/>
<rect x="81.043" y="149.172" width="32.6786" height="10.4571" rx="5.22857" fill="#DCE2ED"/>
<rect x="139.865" y="149.172" width="33.9857" height="10.4571" rx="5.22857" fill="#DCE2ED"/>
<rect x="194.766" y="149.172" width="33.9857" height="10.4571" rx="5.22857" fill="#DCE2ED"/>
<rect x="188.229" y="35.293" width="54.9" height="75.8143" rx="5.22857" fill="#DCE2ED"/>
<rect x="150.322" y="49.6719" width="53.5929" height="75.8143" rx="5.22857" fill="#EEF1F5" fill-opacity="0.4"/>
<rect x="23.5293" y="65.3574" width="91.5" height="3.92143" rx="1.96071" fill="#E9EDF5"/>
<rect x="23.5293" y="164.857" width="48.3643" height="3.92143" rx="1.96071" fill="#E9EDF5"/>
<rect x="81.043" y="164.857" width="48.3643" height="3.92143" rx="1.96071" fill="#E9EDF5"/>
<rect x="139.865" y="164.857" width="48.3643" height="3.92143" rx="1.96071" fill="#E9EDF5"/>
<rect x="194.766" y="164.857" width="48.3643" height="3.92143" rx="1.96071" fill="#E9EDF5"/>
<rect x="23.5293" y="71.8926" width="75.8143" height="3.92143" rx="1.96071" fill="#E9EDF5"/>
<rect x="23.5293" y="171.393" width="39.2143" height="3.92143" rx="1.96071" fill="#E9EDF5"/>
<rect x="81.043" y="171.393" width="39.2143" height="3.92143" rx="1.96071" fill="#E9EDF5"/>
<rect x="139.865" y="171.393" width="40.5214" height="3.92143" rx="1.96071" fill="#E9EDF5"/>
<rect x="194.766" y="171.393" width="39.2143" height="3.92143" rx="1.96071" fill="#E9EDF5"/>
</svg>
