<svg width="262" height="187" viewBox="0 0 262 187" fill="none" xmlns="http://www.w3.org/2000/svg">
<rect x="0.5" y="0.5" width="261" height="186" rx="11.5" fill="white"/>
<rect x="0.5" y="0.5" width="261" height="186" rx="11.5" stroke="#E9EDF5"/>
<circle cx="10.458" cy="10.4571" r="2.61429" fill="#DCE2ED"/>
<circle cx="18.2998" cy="10.4571" r="2.61429" fill="#DCE2ED"/>
<circle cx="26.1436" cy="10.4571" r="2.61429" fill="#DCE2ED"/>
<circle cx="26.1436" cy="10.4571" r="2.61429" fill="#DCE2ED"/>
<circle cx="250.972" cy="10.4571" r="2.61429" fill="#DCE2ED"/>
<rect x="70.5859" y="7.84277" width="120.257" height="5.22857" rx="2.61429" fill="#DCE2ED"/>
<rect x="29" y="31" width="58" height="7" rx="3.5" fill="#E9EDF5"/>
<rect x="29" y="97" width="58" height="7" rx="3.5" fill="#E9EDF5"/>
<rect x="29" y="44" width="16" height="16" rx="2" fill="#E9EDF5"/>
<rect x="50" y="44" width="16" height="16" rx="2" fill="#E9EDF5"/>
<rect x="71" y="44" width="16" height="16" rx="2" fill="#E9EDF5"/>
<rect x="92" y="44" width="16" height="16" rx="2" fill="#E9EDF5"/>
<rect x="113" y="44" width="16" height="16" rx="2" fill="#E9EDF5"/>
<rect x="134" y="44" width="16" height="16" rx="2" fill="#E9EDF5"/>
<rect x="155" y="44" width="16" height="16" rx="2" fill="#E9EDF5"/>
<rect x="176" y="44" width="16" height="16" rx="2" fill="#E9EDF5"/>
<rect x="197" y="44" width="16" height="16" rx="2" fill="#E9EDF5"/>
<rect x="218" y="44" width="16" height="16" rx="2" fill="#E9EDF5"/>
<rect x="29" y="65" width="16" height="16" rx="2" fill="#E9EDF5"/>
<rect x="50" y="65" width="16" height="16" rx="2" fill="#E9EDF5"/>
<rect x="71" y="65" width="16" height="16" rx="2" fill="#E9EDF5"/>
<rect x="92" y="65" width="16" height="16" rx="2" fill="#E9EDF5"/>
<rect x="113" y="65" width="16" height="16" rx="2" fill="#E9EDF5"/>
<rect x="134" y="65" width="16" height="16" rx="2" fill="#E9EDF5"/>
<rect x="155" y="65" width="16" height="16" rx="2" fill="#E9EDF5"/>
<rect x="176" y="65" width="16" height="16" rx="2" fill="#E9EDF5"/>
<rect x="197" y="65" width="16" height="16" rx="2" fill="#E9EDF5"/>
<rect x="218" y="65" width="16" height="16" rx="2" fill="#E9EDF5"/>
<rect x="29" y="110" width="16" height="16" rx="2" fill="#E9EDF5"/>
<rect x="50" y="110" width="16" height="16" rx="2" fill="#E9EDF5"/>
<rect x="71" y="110" width="16" height="16" rx="2" fill="#E9EDF5"/>
<rect x="92" y="110" width="16" height="16" rx="2" fill="#E9EDF5"/>
<rect x="113" y="110" width="16" height="16" rx="2" fill="#E9EDF5"/>
<rect x="134" y="110" width="16" height="16" rx="2" fill="#E9EDF5"/>
<rect x="155" y="110" width="16" height="16" rx="2" fill="#E9EDF5"/>
<rect x="176" y="110" width="16" height="16" rx="2" fill="#E9EDF5"/>
<rect x="197" y="110" width="16" height="16" rx="2" fill="#E9EDF5"/>
<rect x="218" y="110" width="16" height="16" rx="2" fill="#E9EDF5"/>
<rect x="29" y="131" width="16" height="16" rx="2" fill="#E9EDF5"/>
<rect x="50" y="131" width="16" height="16" rx="2" fill="#E9EDF5"/>
<rect x="71" y="131" width="16" height="16" rx="2" fill="#E9EDF5"/>
<rect x="92" y="131" width="16" height="16" rx="2" fill="#E9EDF5"/>
<rect x="113" y="131" width="16" height="16" rx="2" fill="#E9EDF5"/>
<rect x="134" y="131" width="16" height="16" rx="2" fill="#E9EDF5"/>
<rect x="155" y="131" width="16" height="16" rx="2" fill="#E9EDF5"/>
<rect x="176" y="131" width="16" height="16" rx="2" fill="#E9EDF5"/>
<rect x="197" y="131" width="16" height="16" rx="2" fill="#E9EDF5"/>
<rect x="218" y="131" width="16" height="16" rx="2" fill="#E9EDF5"/>
<rect x="29" y="152" width="16" height="16" rx="2" fill="#E9EDF5"/>
<rect x="50" y="152" width="16" height="16" rx="2" fill="#E9EDF5"/>
<rect x="71" y="152" width="16" height="16" rx="2" fill="#E9EDF5"/>
<rect x="92" y="152" width="16" height="16" rx="2" fill="#E9EDF5"/>
<rect x="113" y="152" width="16" height="16" rx="2" fill="#E9EDF5"/>
<rect x="134" y="152" width="16" height="16" rx="2" fill="#E9EDF5"/>
<rect x="155" y="152" width="16" height="16" rx="2" fill="#E9EDF5"/>
<rect x="176" y="152" width="16" height="16" rx="2" fill="#E9EDF5"/>
<rect x="197" y="152" width="16" height="16" rx="2" fill="#E9EDF5"/>
<rect x="218" y="152" width="16" height="16" rx="2" fill="#E9EDF5"/>
</svg>
