<svg width="262" height="187" viewBox="0 0 262 187" fill="none" xmlns="http://www.w3.org/2000/svg">
<rect x="0.5" y="0.5" width="261" height="186" rx="11.5" fill="white"/>
<rect x="0.5" y="0.5" width="261" height="186" rx="11.5" stroke="#E9EDF5"/>
<circle cx="10.458" cy="10.4571" r="2.61429" fill="#DCE2ED"/>
<circle cx="18.2998" cy="10.4571" r="2.61429" fill="#DCE2ED"/>
<circle cx="26.1436" cy="10.4571" r="2.61429" fill="#DCE2ED"/>
<circle cx="250.972" cy="10.4571" r="2.61429" fill="#DCE2ED"/>
<rect x="70.5859" y="7.84277" width="120.257" height="5.22857" rx="2.61429" fill="#DCE2ED"/>
<rect x="24" y="38" width="214" height="129" rx="12" fill="#F2F5FA"/>
<rect x="24" y="91" width="214" height="76" rx="12" fill="#EBEFF7"/>
<rect x="112" y="143" width="37.9071" height="10.4571" rx="5.22857" fill="#AAB2C0"/>
<rect x="77" y="106" width="107.186" height="10.4571" rx="5.22857" fill="#DCE2ED"/>
<rect x="50" y="44" width="14" height="14" rx="2" fill="#E2E8F3"/>
<rect opacity="0.7" x="43.2" y="38.2" width="27.6" height="26.6" rx="13.3" stroke="url(#paint0_linear_4318_1258)" stroke-width="0.4"/>
<rect x="78" y="44" width="14" height="14" rx="2" fill="#E2E8F3"/>
<rect opacity="0.7" x="71.2" y="38.2" width="27.6" height="26.6" rx="13.3" stroke="url(#paint1_linear_4318_1258)" stroke-width="0.4"/>
<rect x="106" y="44" width="14" height="14" rx="2" fill="#E2E8F3"/>
<rect opacity="0.7" x="99.2" y="38.2" width="27.6" height="26.6" rx="13.3" stroke="url(#paint2_linear_4318_1258)" stroke-width="0.4"/>
<rect x="134" y="44" width="14" height="14" rx="2" fill="#E2E8F3"/>
<rect opacity="0.7" x="127.2" y="38.2" width="27.6" height="26.6" rx="13.3" stroke="url(#paint3_linear_4318_1258)" stroke-width="0.4"/>
<rect x="162" y="44" width="14" height="14" rx="2" fill="#E2E8F3"/>
<rect opacity="0.7" x="155.2" y="38.2" width="27.6" height="26.6" rx="13.3" stroke="url(#paint4_linear_4318_1258)" stroke-width="0.4"/>
<rect x="190" y="44" width="14" height="14" rx="2" fill="#E2E8F3"/>
<rect opacity="0.7" x="183.2" y="38.2" width="27.6" height="26.6" rx="13.3" stroke="url(#paint5_linear_4318_1258)" stroke-width="0.4"/>
<rect width="14" height="14" rx="2" transform="matrix(1 0 0 -1 36 82)" fill="#E2E8F3"/>
<rect opacity="0.7" x="0.2" y="-0.2" width="27.6" height="26.6" rx="13.3" transform="matrix(1 0 0 -1 29 87.6)" stroke="url(#paint6_linear_4318_1258)" stroke-width="0.4"/>
<rect width="14" height="14" rx="2" transform="matrix(1 0 0 -1 64 82)" fill="#E2E8F3"/>
<rect opacity="0.7" x="0.2" y="-0.2" width="27.6" height="26.6" rx="13.3" transform="matrix(1 0 0 -1 57 87.6)" stroke="url(#paint7_linear_4318_1258)" stroke-width="0.4"/>
<rect width="14" height="14" rx="2" transform="matrix(1 0 0 -1 92 82)" fill="#E2E8F3"/>
<rect opacity="0.7" x="0.2" y="-0.2" width="27.6" height="26.6" rx="13.3" transform="matrix(1 0 0 -1 85 87.6)" stroke="url(#paint8_linear_4318_1258)" stroke-width="0.4"/>
<rect width="14" height="14" rx="2" transform="matrix(1 0 0 -1 120 82)" fill="#E2E8F3"/>
<rect opacity="0.7" x="0.2" y="-0.2" width="27.6" height="26.6" rx="13.3" transform="matrix(1 0 0 -1 113 87.6)" stroke="url(#paint9_linear_4318_1258)" stroke-width="0.4"/>
<rect width="14" height="14" rx="2" transform="matrix(1 0 0 -1 148 82)" fill="#E2E8F3"/>
<rect opacity="0.7" x="0.2" y="-0.2" width="27.6" height="26.6" rx="13.3" transform="matrix(1 0 0 -1 141 87.6)" stroke="url(#paint10_linear_4318_1258)" stroke-width="0.4"/>
<rect width="14" height="14" rx="2" transform="matrix(1 0 0 -1 176 82)" fill="#E2E8F3"/>
<rect opacity="0.7" x="0.2" y="-0.2" width="27.6" height="26.6" rx="13.3" transform="matrix(1 0 0 -1 169 87.6)" stroke="url(#paint11_linear_4318_1258)" stroke-width="0.4"/>
<rect width="14" height="14" rx="2" transform="matrix(1 0 0 -1 204 82)" fill="#E2E8F3"/>
<rect opacity="0.7" x="0.2" y="-0.2" width="27.6" height="26.6" rx="13.3" transform="matrix(1 0 0 -1 197 87.6)" stroke="url(#paint12_linear_4318_1258)" stroke-width="0.4"/>
<rect x="85" y="120" width="91.5" height="3.92143" rx="1.96071" fill="#E0E6F2"/>
<rect x="93" y="126.535" width="75.8143" height="3.92143" rx="1.96071" fill="#E0E6F2"/>
<defs>
<linearGradient id="paint0_linear_4318_1258" x1="57" y1="38" x2="57" y2="65" gradientUnits="userSpaceOnUse">
<stop stop-color="#EBEFF7" stop-opacity="0"/>
<stop offset="0.66" stop-color="#DEE6F4"/>
</linearGradient>
<linearGradient id="paint1_linear_4318_1258" x1="85" y1="38" x2="85" y2="65" gradientUnits="userSpaceOnUse">
<stop stop-color="#EBEFF7" stop-opacity="0"/>
<stop offset="0.66" stop-color="#DEE6F4"/>
</linearGradient>
<linearGradient id="paint2_linear_4318_1258" x1="113" y1="38" x2="113" y2="65" gradientUnits="userSpaceOnUse">
<stop stop-color="#EBEFF7" stop-opacity="0"/>
<stop offset="0.66" stop-color="#DEE6F4"/>
</linearGradient>
<linearGradient id="paint3_linear_4318_1258" x1="141" y1="38" x2="141" y2="65" gradientUnits="userSpaceOnUse">
<stop stop-color="#EBEFF7" stop-opacity="0"/>
<stop offset="0.66" stop-color="#DEE6F4"/>
</linearGradient>
<linearGradient id="paint4_linear_4318_1258" x1="169" y1="38" x2="169" y2="65" gradientUnits="userSpaceOnUse">
<stop stop-color="#EBEFF7" stop-opacity="0"/>
<stop offset="0.66" stop-color="#DEE6F4"/>
</linearGradient>
<linearGradient id="paint5_linear_4318_1258" x1="197" y1="38" x2="197" y2="65" gradientUnits="userSpaceOnUse">
<stop stop-color="#EBEFF7" stop-opacity="0"/>
<stop offset="0.66" stop-color="#DEE6F4"/>
</linearGradient>
<linearGradient id="paint6_linear_4318_1258" x1="14" y1="0" x2="14" y2="27" gradientUnits="userSpaceOnUse">
<stop stop-color="#EBEFF7" stop-opacity="0"/>
<stop offset="0.66" stop-color="#DEE6F4"/>
</linearGradient>
<linearGradient id="paint7_linear_4318_1258" x1="14" y1="0" x2="14" y2="27" gradientUnits="userSpaceOnUse">
<stop stop-color="#EBEFF7" stop-opacity="0"/>
<stop offset="0.66" stop-color="#DEE6F4"/>
</linearGradient>
<linearGradient id="paint8_linear_4318_1258" x1="14" y1="0" x2="14" y2="27" gradientUnits="userSpaceOnUse">
<stop stop-color="#EBEFF7" stop-opacity="0"/>
<stop offset="0.66" stop-color="#DEE6F4"/>
</linearGradient>
<linearGradient id="paint9_linear_4318_1258" x1="14" y1="0" x2="14" y2="27" gradientUnits="userSpaceOnUse">
<stop stop-color="#EBEFF7" stop-opacity="0"/>
<stop offset="0.66" stop-color="#DEE6F4"/>
</linearGradient>
<linearGradient id="paint10_linear_4318_1258" x1="14" y1="0" x2="14" y2="27" gradientUnits="userSpaceOnUse">
<stop stop-color="#EBEFF7" stop-opacity="0"/>
<stop offset="0.66" stop-color="#DEE6F4"/>
</linearGradient>
<linearGradient id="paint11_linear_4318_1258" x1="14" y1="0" x2="14" y2="27" gradientUnits="userSpaceOnUse">
<stop stop-color="#EBEFF7" stop-opacity="0"/>
<stop offset="0.66" stop-color="#DEE6F4"/>
</linearGradient>
<linearGradient id="paint12_linear_4318_1258" x1="14" y1="0" x2="14" y2="27" gradientUnits="userSpaceOnUse">
<stop stop-color="#EBEFF7" stop-opacity="0"/>
<stop offset="0.66" stop-color="#DEE6F4"/>
</linearGradient>
</defs>
</svg>
