
<svg width="262" height="192" viewBox="0 0 262 192" fill="none" xmlns="http://www.w3.org/2000/svg">
<rect x="0.5" y="0.5" width="261" height="191" rx="11.5" fill="white"/>
<rect x="0.5" y="0.5" width="261" height="191" rx="11.5" stroke="#E9EDF5"/>
<g clip-path="url(#clip0_8193_45115)">
<circle cx="10.4578" cy="10.4571" r="2.61429" fill="#DCE2ED"/>
<circle cx="18.3006" cy="10.4571" r="2.61429" fill="#DCE2ED"/>
<circle cx="26.1435" cy="10.4571" r="2.61429" fill="#DCE2ED"/>
<circle cx="250.972" cy="10.4571" r="2.61429" fill="#DCE2ED"/>
<rect x="70.5864" y="7.84283" width="120.257" height="5.22857" rx="2.61429" fill="#DCE2ED"/>
<g opacity="0.3">
<rect x="24" y="35" width="107" height="11" rx="5.5" fill="#DCE2ED"/>
<rect x="24" y="49" width="91" height="11" rx="5.5" fill="#DCE2ED"/>
<rect x="25" y="79" width="8" height="8" rx="4" fill="#DCE2ED"/>
<rect x="37" y="81" width="52" height="4" rx="2" fill="#DCE2ED"/>
<rect x="203" y="35" width="42" height="3" rx="1.5" fill="#E9EDF5"/>
<rect x="37" y="90" width="94" height="2" rx="1" fill="#E9EDF5"/>
<rect x="203" y="40" width="39" height="3" rx="1.5" fill="#E9EDF5"/>
<rect x="37" y="94" width="77" height="2" rx="1" fill="#E9EDF5"/>
<rect x="37" y="98" width="59" height="2" rx="1" fill="#E9EDF5"/>
<rect x="25" y="112" width="8" height="8" rx="4" fill="#DCE2ED"/>
<rect x="37" y="114" width="52" height="4" rx="2" fill="#DCE2ED"/>
<rect x="37" y="123" width="94" height="2" rx="1" fill="#E9EDF5"/>
<rect x="37" y="127" width="77" height="2" rx="1" fill="#E9EDF5"/>
<rect x="37" y="131" width="82" height="2" rx="1" fill="#E9EDF5"/>
<rect x="25" y="143" width="8" height="8" rx="4" fill="#DCE2ED"/>
<rect x="37" y="145" width="52" height="4" rx="2" fill="#DCE2ED"/>
<rect x="37" y="154" width="94" height="2" rx="1" fill="#E9EDF5"/>
<rect x="37" y="158" width="77" height="2" rx="1" fill="#E9EDF5"/>
<rect x="37" y="162" width="59" height="2" rx="1" fill="#E9EDF5"/>
<rect x="28.5" y="88" width="1" height="23" rx="0.5" fill="#E9EDF5"/>
<rect x="28.5" y="121" width="1" height="21" rx="0.5" fill="#E9EDF5"/>
<rect x="203" y="49" width="42" height="10" rx="5" fill="#AAB2C0"/>
<rect x="161" y="74" width="84" height="90" rx="5.22857" fill="#F2F5FA"/>
</g>
</g>
<rect x="24.4315" y="22.4315" width="218.137" height="18.1369" rx="9.06845" fill="white"/>
<rect x="24.4315" y="22.4315" width="218.137" height="18.1369" rx="9.06845" stroke="#E9EDF5" stroke-width="0.863095"/>
<rect x="129.298" y="26.9464" width="8.63095" height="8.63095" rx="4.31548" fill="#DCE2ED"/>
<rect x="208.702" y="26.9464" width="21.5774" height="8.63095" rx="4.31548" fill="#DCE2ED"/>
<rect x="184.536" y="26.9464" width="21.5774" height="8.63095" rx="4.31548" fill="#DCE2ED" fill-opacity="0.7"/>
<rect x="44.7141" y="29.5358" width="19.8512" height="3.45238" rx="1.72619" fill="#E9EDF5"/>
<rect x="68.0178" y="29.5357" width="17.2619" height="3.45238" rx="1.72619" fill="#E9EDF5"/>
<rect x="88.7321" y="29.5357" width="16.3988" height="3.45238" rx="1.72619" fill="#E9EDF5"/>
<rect x="24.4315" y="40.4315" width="218.363" height="103.571" rx="9.9256" fill="white"/>
<rect x="24.4315" y="40.4315" width="218.363" height="103.571" rx="9.9256" stroke="#E9EDF5" stroke-width="0.863095"/>
<rect x="41.2618" y="55.5358" width="74.2262" height="40.5655" rx="11.2819" fill="#DCE2ED" fill-opacity="0.7"/>
<rect x="208.702" y="120.268" width="21.5774" height="8.63095" rx="4.31548" fill="#DCE2ED"/>
<rect x="182.809" y="120.268" width="21.5774" height="8.63095" rx="4.31548" fill="#DCE2ED"/>
<rect x="125.845" y="55.5358" width="26.756" height="3.45238" rx="1.72619" fill="#E9EDF5"/>
<rect x="125.845" y="65.8929" width="33.6607" height="1.72619" rx="0.863095" fill="#E9EDF5"/>
<rect x="125.845" y="75.387" width="25.0298" height="1.72619" rx="0.863095" fill="#E9EDF5"/>
<rect x="125.845" y="84.881" width="31.0714" height="1.72619" rx="0.863095" fill="#E9EDF5"/>
<rect x="125.845" y="94.3751" width="26.756" height="1.72619" rx="0.863095" fill="#E9EDF5"/>
<rect x="170.726" y="65.8929" width="33.6607" height="1.72619" rx="0.863095" fill="#E9EDF5"/>
<rect x="170.726" y="75.387" width="25.0298" height="1.72619" rx="0.863095" fill="#E9EDF5"/>
<rect x="170.726" y="84.881" width="31.0714" height="1.72619" rx="0.863095" fill="#E9EDF5"/>
<rect x="170.726" y="94.3751" width="26.756" height="1.72619" rx="0.863095" fill="#E9EDF5"/>
<rect x="210.428" y="65.8929" width="25.0298" height="1.72619" rx="0.863095" fill="#E9EDF5"/>
<rect x="210.428" y="75.387" width="18.9881" height="1.72619" rx="0.863095" fill="#E9EDF5"/>
<rect x="210.428" y="84.881" width="23.3036" height="1.72619" rx="0.863095" fill="#E9EDF5"/>
<rect x="210.428" y="94.3751" width="19.8512" height="1.72619" rx="0.863095" fill="#E9EDF5"/>
<rect x="169.863" y="55.5358" width="23.3036" height="3.45238" rx="1.72619" fill="#E9EDF5"/>
<rect x="210.428" y="55.5358" width="23.3036" height="3.45238" rx="1.72619" fill="#E9EDF5"/>
<rect x="48.1666" y="103.869" width="185.565" height="0.863095" rx="0.431548" fill="#E9EDF5"/>
<rect x="68.881" y="112.5" width="32.7976" height="3.45238" rx="1.72619" fill="#E9EDF5"/>
<rect x="68.881" y="121.994" width="43.1548" height="1.72619" rx="0.863095" fill="#E9EDF5"/>
<rect x="68.881" y="125.447" width="39.7024" height="1.72619" rx="0.863095" fill="#E9EDF5"/>
<rect x="44.7142" y="110.774" width="18.125" height="18.125" rx="9.0625" fill="#DCE2ED"/>
<rect x="136.202" y="112.5" width="32.7976" height="3.45238" rx="1.72619" fill="#E9EDF5"/>
<rect x="136.202" y="121.994" width="43.1548" height="1.72619" rx="0.863095" fill="#E9EDF5"/>
<rect x="136.202" y="125.447" width="39.7024" height="1.72619" rx="0.863095" fill="#E9EDF5"/>
<rect x="112.036" y="110.774" width="18.125" height="18.125" rx="9.0625" fill="#DCE2ED"/>
<defs>
<clipPath id="clip0_8193_45115">
<rect width="245.743" height="170.157" fill="white" transform="translate(7.84351 7.84283)"/>
</clipPath>
</defs>
</svg>
