<svg width="262" height="187" viewBox="0 0 262 187" fill="none" xmlns="http://www.w3.org/2000/svg">
<rect x="0.5" y="0.5" width="261" height="39" rx="11.5" fill="white"/>
<rect x="0.5" y="0.5" width="261" height="39" rx="11.5" stroke="#E9EDF5"/>
<rect x="24" y="15" width="26" height="10" rx="5" fill="#DCE2ED"/>
<rect x="218" y="15" width="25" height="10" rx="5" fill="#DCE2ED"/>
<rect x="218" y="15" width="25" height="10" rx="5" fill="#DCE2ED"/>
<rect x="190" y="15" width="25" height="10" rx="5" fill="#DCE2ED" fill-opacity="0.7"/>
<rect x="104" y="18" width="23" height="4" rx="2" fill="#E9EDF5"/>
<rect x="131" y="18" width="20" height="4" rx="2" fill="#E9EDF5"/>
<rect x="155" y="18" width="29" height="4" rx="2" fill="#E9EDF5"/>
<rect x="0.5" y="49.5" width="261" height="39" rx="11.5" fill="white"/>
<rect x="0.5" y="49.5" width="261" height="39" rx="11.5" stroke="#E9EDF5"/>
<rect x="126" y="64" width="10" height="10" rx="5" fill="#DCE2ED"/>
<rect x="218" y="64" width="25" height="10" rx="5" fill="#DCE2ED"/>
<rect x="218" y="64" width="25" height="10" rx="5" fill="#DCE2ED"/>
<rect x="190" y="64" width="25" height="10" rx="5" fill="#DCE2ED" fill-opacity="0.7"/>
<rect x="24" y="67" width="23" height="4" rx="2" fill="#E9EDF5"/>
<rect x="51" y="67" width="20" height="4" rx="2" fill="#E9EDF5"/>
<rect x="75" y="67" width="19" height="4" rx="2" fill="#E9EDF5"/>
<rect x="0.5" y="98.5" width="261" height="39" rx="11.5" fill="white"/>
<rect x="0.5" y="98.5" width="261" height="39" rx="11.5" stroke="#E9EDF5"/>
<rect x="24" y="113" width="10" height="10" rx="5" fill="#DCE2ED"/>
<rect x="218" y="113" width="25" height="10" rx="5" fill="#DCE2ED"/>
<rect x="218" y="113" width="25" height="10" rx="5" fill="#DCE2ED"/>
<rect x="118" y="116" width="23" height="4" rx="2" fill="#E9EDF5"/>
<rect x="145" y="116" width="20" height="4" rx="2" fill="#E9EDF5"/>
<rect x="169" y="116" width="19" height="4" rx="2" fill="#E9EDF5"/>
<rect x="192" y="116" width="20" height="4" rx="2" fill="#E9EDF5"/>
<rect x="0.5" y="147.5" width="261" height="39" rx="11.5" fill="white"/>
<rect x="0.5" y="147.5" width="261" height="39" rx="11.5" stroke="#E9EDF5"/>
<rect x="24" y="162" width="25" height="10" rx="5" fill="#DCE2ED"/>
<rect x="218" y="162" width="25" height="10" rx="5" fill="#DCE2ED"/>
<rect x="218" y="162" width="25" height="10" rx="5" fill="#DCE2ED"/>
<rect x="157" y="162" width="57" height="10" rx="5" fill="#DCE2ED" fill-opacity="0.55"/>
<rect x="56" y="165" width="23" height="4" rx="2" fill="#E9EDF5"/>
<rect x="83" y="165" width="20" height="4" rx="2" fill="#E9EDF5"/>
<rect x="107" y="165" width="19" height="4" rx="2" fill="#E9EDF5"/>
</svg>
