<svg width="262" height="187" viewBox="0 0 262 187" fill="none" xmlns="http://www.w3.org/2000/svg">
<rect x="0.5" y="0.5" width="261" height="186" rx="11.5" fill="white"/>
<rect x="0.5" y="0.5" width="261" height="186" rx="11.5" stroke="#E9EDF5"/>
<circle cx="10.458" cy="10.4571" r="2.61429" fill="#DCE2ED"/>
<circle cx="18.2998" cy="10.4571" r="2.61429" fill="#DCE2ED"/>
<circle cx="26.1436" cy="10.4571" r="2.61429" fill="#DCE2ED"/>
<circle cx="26.1436" cy="10.4571" r="2.61429" fill="#DCE2ED"/>
<circle cx="250.972" cy="10.4571" r="2.61429" fill="#DCE2ED"/>
<rect x="70.5859" y="7.84277" width="120.257" height="5.22857" rx="2.61429" fill="#DCE2ED"/>
<rect x="78" y="71" width="107.186" height="10.4571" rx="5.22857" fill="#DCE2ED"/>
<rect x="86" y="84.0723" width="91.5" height="10.4571" rx="5.22857" fill="#DCE2ED"/>
<rect x="53" y="100" width="157" height="3.92143" rx="1.96071" fill="#E9EDF5"/>
<rect x="60" y="107" width="142.415" height="3" rx="1.5" fill="#E9EDF5"/>
<rect x="70" y="113" width="123.541" height="4" rx="2" fill="#E9EDF5"/>
<rect x="111" y="133" width="40" height="13" rx="6.5" fill="#AAB2C0"/>
<rect x="122" y="39" width="18" height="18" rx="9" fill="#DCE2ED"/>
</svg>
