<svg width="262" height="187" viewBox="0 0 262 187" fill="none" xmlns="http://www.w3.org/2000/svg">
<rect x="0.5" y="0.5" width="261" height="186" rx="11.5" fill="white"/>
<rect x="0.5" y="0.5" width="261" height="186" rx="11.5" stroke="#E9EDF5"/>
<circle cx="10.458" cy="10.4571" r="2.61429" fill="#DCE2ED"/>
<circle cx="18.2998" cy="10.4571" r="2.61429" fill="#DCE2ED"/>
<circle cx="26.1436" cy="10.4571" r="2.61429" fill="#DCE2ED"/>
<circle cx="250.972" cy="10.4571" r="2.61429" fill="#DCE2ED"/>
<rect x="70.5859" y="7.84277" width="120.257" height="5.22857" rx="2.61429" fill="#DCE2ED"/>
<rect x="39" y="41" width="184" height="119" rx="4" fill="#F2F5FA"/>
<rect x="95" y="35" width="71" height="131" rx="4" fill="#EBEFF7"/>
<rect x="113" y="42" width="34" height="5" rx="2.5" fill="#D9E1F0"/>
<rect x="113" y="42" width="34" height="5" rx="2.5" fill="#D9E1F0"/>
<rect x="107" y="71" width="46" height="3" rx="1.5" fill="#D9E1F0"/>
<rect x="103" y="100" width="34" height="3" rx="1.5" fill="#D9E1F0"/>
<rect width="6" height="6" rx="3" transform="matrix(-1 0 0 1 109 106)" fill="#D9E1F0"/>
<rect x="112" y="107.5" width="46" height="3" rx="1.5" fill="#D9E1F0"/>
<rect width="6" height="6" rx="3" transform="matrix(-1 0 0 1 109 115)" fill="#D9E1F0"/>
<rect x="112" y="116.5" width="39" height="3" rx="1.5" fill="#D9E1F0"/>
<rect width="6" height="6" rx="3" transform="matrix(-1 0 0 1 109 124)" fill="#D9E1F0"/>
<rect x="112" y="125.5" width="43" height="3" rx="1.5" fill="#D9E1F0"/>
<rect width="6" height="6" rx="3" transform="matrix(-1 0 0 1 109 133)" fill="#D9E1F0"/>
<rect x="112" y="134.5" width="36" height="3" rx="1.5" fill="#D9E1F0"/>
<rect x="113" y="76" width="34" height="3" rx="1.5" fill="#D9E1F0"/>
<rect x="103" y="90" width="57" height="1" rx="0.5" fill="#D9E1F0"/>
<rect x="107" y="53" width="46" height="15" rx="7.5" fill="#D9E1F0"/>
<rect x="103" y="146" width="55" height="12" rx="6" fill="#D9E1F0"/>
<rect x="178.361" y="54" width="28.431" height="4.18103" rx="2.09052" fill="#D9E1F0" fill-opacity="0.5"/>
<rect x="173.346" y="78.25" width="38.4655" height="2.50862" rx="1.25431" fill="#D9E1F0" fill-opacity="0.5"/>
<rect x="170" y="102.5" width="28.431" height="2.50862" rx="1.25431" fill="#D9E1F0" fill-opacity="0.5"/>
<rect width="5.01724" height="5.01724" rx="2.50862" transform="matrix(-1 0 0 1 175.018 107.518)" fill="#D9E1F0" fill-opacity="0.5"/>
<rect x="177.525" y="108.771" width="38.4655" height="2.50862" rx="1.25431" fill="#D9E1F0" fill-opacity="0.5"/>
<rect width="5.01724" height="5.01724" rx="2.50862" transform="matrix(-1 0 0 1 175.018 115.043)" fill="#D9E1F0" fill-opacity="0.5"/>
<rect x="177.525" y="116.298" width="32.6121" height="2.50862" rx="1.25431" fill="#D9E1F0" fill-opacity="0.5"/>
<rect width="5.01724" height="5.01724" rx="2.50862" transform="matrix(-1 0 0 1 175.018 122.569)" fill="#D9E1F0" fill-opacity="0.5"/>
<rect x="177.525" y="123.823" width="35.9569" height="2.50862" rx="1.25431" fill="#D9E1F0" fill-opacity="0.5"/>
<rect width="5.01724" height="5.01724" rx="2.50862" transform="matrix(-1 0 0 1 175.018 130.095)" fill="#D9E1F0" fill-opacity="0.5"/>
<rect x="177.525" y="131.35" width="30.1034" height="2.50862" rx="1.25431" fill="#D9E1F0" fill-opacity="0.5"/>
<rect x="178.361" y="82.4307" width="28.431" height="2.50862" rx="1.25431" fill="#D9E1F0" fill-opacity="0.5"/>
<rect x="170" y="94.1377" width="47.6638" height="0.836207" rx="0.418103" fill="#D9E1F0" fill-opacity="0.5"/>
<rect x="173.346" y="63.1982" width="38.4655" height="12.5431" rx="6.27155" fill="#D9E1F0" fill-opacity="0.5"/>
<rect x="170" y="140.966" width="45.9914" height="10.0345" rx="5.01724" fill="#D9E1F0" fill-opacity="0.5"/>
<rect x="53.3613" y="52" width="28.431" height="4.18103" rx="2.09052" fill="#D9E1F0" fill-opacity="0.5"/>
<rect x="48.3457" y="76.25" width="38.4655" height="2.50862" rx="1.25431" fill="#D9E1F0" fill-opacity="0.5"/>
<rect x="45" y="100.5" width="28.431" height="2.50862" rx="1.25431" fill="#D9E1F0" fill-opacity="0.5"/>
<rect width="5.01724" height="5.01724" rx="2.50862" transform="matrix(-1 0 0 1 50.0176 105.518)" fill="#D9E1F0" fill-opacity="0.5"/>
<rect x="52.5254" y="106.771" width="38.4655" height="2.50862" rx="1.25431" fill="#D9E1F0" fill-opacity="0.5"/>
<rect width="5.01724" height="5.01724" rx="2.50862" transform="matrix(-1 0 0 1 50.0176 113.043)" fill="#D9E1F0" fill-opacity="0.5"/>
<rect x="52.5254" y="114.298" width="32.6121" height="2.50862" rx="1.25431" fill="#D9E1F0" fill-opacity="0.5"/>
<rect width="5.01724" height="5.01724" rx="2.50862" transform="matrix(-1 0 0 1 50.0176 120.569)" fill="#D9E1F0" fill-opacity="0.5"/>
<rect x="52.5254" y="121.823" width="35.9569" height="2.50862" rx="1.25431" fill="#D9E1F0" fill-opacity="0.5"/>
<rect width="5.01724" height="5.01724" rx="2.50862" transform="matrix(-1 0 0 1 50.0176 128.095)" fill="#D9E1F0" fill-opacity="0.5"/>
<rect x="52.5254" y="129.35" width="30.1034" height="2.50862" rx="1.25431" fill="#D9E1F0" fill-opacity="0.5"/>
<rect x="53.3613" y="80.4307" width="28.431" height="2.50862" rx="1.25431" fill="#D9E1F0" fill-opacity="0.5"/>
<rect x="45" y="92.1377" width="47.6638" height="0.836207" rx="0.418103" fill="#D9E1F0" fill-opacity="0.5"/>
<rect x="48.3457" y="61.1982" width="38.4655" height="12.5431" rx="6.27155" fill="#D9E1F0" fill-opacity="0.5"/>
<rect x="45" y="138.966" width="45.9914" height="10.0345" rx="5.01724" fill="#D9E1F0" fill-opacity="0.5"/>
</svg>
