<svg width="262" height="192" viewBox="0 0 262 192" fill="none" xmlns="http://www.w3.org/2000/svg">
<rect x="0.5" y="0.5" width="261" height="191" rx="11.5" fill="white"/>
<rect x="0.5" y="0.5" width="261" height="191" rx="11.5" stroke="#E9EDF5"/>
<circle cx="10.458" cy="10.4571" r="2.61429" fill="#DCE2ED"/>
<circle cx="18.2998" cy="10.4571" r="2.61429" fill="#DCE2ED"/>
<circle cx="26.1436" cy="10.4571" r="2.61429" fill="#DCE2ED"/>
<circle cx="250.972" cy="10.4571" r="2.61429" fill="#DCE2ED"/>
<rect x="70.5859" y="7.84277" width="120.257" height="5.22857" rx="2.61429" fill="#DCE2ED"/>
<rect x="24" y="54" width="151" height="3" rx="1.5" fill="#E0E6F2"/>
<rect x="24" y="59" width="128.269" height="3" rx="1.5" fill="#E0E6F2"/>
<rect x="24" y="40" width="58" height="10" rx="5" fill="#DCE2ED" fill-opacity="0.7"/>
<rect x="24" y="86" width="45" height="6" rx="3" fill="#AAB2C0" fill-opacity="0.7"/>
<rect x="24" y="96" width="45" height="6" rx="3" fill="#DCE2ED" fill-opacity="0.7"/>
<rect x="24" y="106" width="45" height="6" rx="3" fill="#DCE2ED" fill-opacity="0.7"/>
<rect x="24" y="116" width="45" height="6" rx="3" fill="#DCE2ED" fill-opacity="0.7"/>
<rect x="24" y="126" width="45" height="6" rx="3" fill="#DCE2ED" fill-opacity="0.7"/>
<rect x="24" y="136" width="45" height="6" rx="3" fill="#DCE2ED" fill-opacity="0.7"/>
<rect x="82" y="86" width="156" height="3" rx="1.5" fill="#DCE2ED" fill-opacity="0.7"/>
<rect x="82" y="92" width="156" height="3" rx="1.5" fill="#DCE2ED" fill-opacity="0.7"/>
<rect x="82" y="98" width="156" height="3" rx="1.5" fill="#DCE2ED" fill-opacity="0.7"/>
<rect x="82" y="104" width="39" height="3" rx="1.5" fill="#DCE2ED" fill-opacity="0.7"/>
<rect x="82" y="113" width="156" height="3" rx="1.5" fill="#DCE2ED" fill-opacity="0.7"/>
<rect x="82" y="119" width="156" height="3" rx="1.5" fill="#DCE2ED" fill-opacity="0.7"/>
<rect x="82" y="125" width="156" height="3" rx="1.5" fill="#DCE2ED" fill-opacity="0.7"/>
<rect x="82" y="131" width="156" height="3" rx="1.5" fill="#DCE2ED" fill-opacity="0.7"/>
<rect x="82" y="137" width="156" height="3" rx="1.5" fill="#DCE2ED" fill-opacity="0.7"/>
<rect x="82" y="143" width="156" height="3" rx="1.5" fill="#DCE2ED" fill-opacity="0.7"/>
<rect x="82" y="149" width="70" height="3" rx="1.5" fill="#DCE2ED" fill-opacity="0.7"/>
<rect x="82" y="158" width="156" height="3" rx="1.5" fill="#DCE2ED" fill-opacity="0.7"/>
<rect x="82" y="164" width="156" height="3" rx="1.5" fill="#DCE2ED" fill-opacity="0.7"/>
<rect x="82" y="170" width="114" height="3" rx="1.5" fill="#DCE2ED" fill-opacity="0.7"/>
<rect x="201" y="46" width="37" height="10.2069" rx="5.10345" fill="#AAB2C0"/>
</svg>
