<svg width="262" height="187" viewBox="0 0 262 187" fill="none" xmlns="http://www.w3.org/2000/svg">
<g clip-path="url(#clip0_4318_7768)">
<rect width="262" height="187" rx="12" fill="white"/>
<circle cx="10.458" cy="10.4571" r="2.61429" fill="#DCE2ED"/>
<circle cx="18.2998" cy="10.4571" r="2.61429" fill="#DCE2ED"/>
<circle cx="26.1436" cy="10.4571" r="2.61429" fill="#DCE2ED"/>
<circle cx="250.972" cy="10.4571" r="2.61429" fill="#DCE2ED"/>
<rect x="70.5859" y="7.84277" width="120.257" height="5.22857" rx="2.61429" fill="#DCE2ED"/>
<rect x="53" y="52" width="155" height="10" rx="5" fill="#DCE2ED"/>
<rect x="132" y="106" width="37.9071" height="10.4571" rx="5.22857" fill="#F2F5FA"/>
<rect x="92" y="106.121" width="37.9071" height="10.4571" rx="5.22857" fill="#DCE2ED"/>
<rect x="63" y="65" width="132" height="10" rx="5" fill="#DCE2ED"/>
<rect x="84" y="80" width="90" height="4" rx="2" fill="#F2F5FA"/>
<rect x="92" y="87" width="75" height="4" rx="2" fill="#F2F5FA"/>
<rect x="29" y="148" width="87" height="89" rx="4" fill="#F2F5FA"/>
<rect x="121" y="148" width="106" height="89" rx="4" fill="#F2F5FA" fill-opacity="0.4"/>
</g>
<rect x="0.5" y="0.5" width="261" height="186" rx="11.5" stroke="#E9EDF5"/>
<defs>
<clipPath id="clip0_4318_7768">
<rect width="262" height="187" rx="12" fill="white"/>
</clipPath>
</defs>
</svg>
