<svg width="262" height="187" viewBox="0 0 262 187" fill="none" xmlns="http://www.w3.org/2000/svg">
<rect x="0.5" y="0.5" width="261" height="186" rx="11.5" fill="white"/>
<rect x="0.5" y="0.5" width="261" height="186" rx="11.5" stroke="#E9EDF5"/>
<circle cx="10.458" cy="10.4571" r="2.61429" fill="#DCE2ED"/>
<circle cx="18.2998" cy="10.4571" r="2.61429" fill="#DCE2ED"/>
<circle cx="26.1436" cy="10.4571" r="2.61429" fill="#DCE2ED"/>
<circle cx="26.1436" cy="10.4571" r="2.61429" fill="#DCE2ED"/>
<circle cx="250.972" cy="10.4571" r="2.61429" fill="#DCE2ED"/>
<rect x="70.5859" y="7.84277" width="120.257" height="5.22857" rx="2.61429" fill="#DCE2ED"/>
<rect x="17" y="41" width="45" height="10" rx="5" fill="#DCE2ED"/>
<rect x="152" y="41" width="88" height="20" rx="10" fill="#DCE2ED"/>
<rect x="71" y="42" width="11" height="2" rx="1" fill="#DCE2ED"/>
<rect x="71" y="56" width="11" height="2" rx="1" fill="#DCE2ED"/>
<rect x="71" y="70" width="11" height="2" rx="1" fill="#DCE2ED"/>
<rect x="97" y="42" width="10" height="2" rx="1" fill="#DCE2ED"/>
<rect x="97" y="56" width="10" height="2" rx="1" fill="#DCE2ED"/>
<rect x="97" y="70" width="10" height="2" rx="1" fill="#DCE2ED"/>
<rect x="122" y="42" width="12" height="2" rx="1" fill="#DCE2ED"/>
<rect x="122" y="56" width="12" height="2" rx="1" fill="#DCE2ED"/>
<rect x="122" y="70" width="12" height="2" rx="1" fill="#DCE2ED"/>
<rect x="71" y="45" width="21" height="4" rx="2" fill="#E9EDF5"/>
<rect x="71" y="59" width="21" height="4" rx="2" fill="#E9EDF5"/>
<rect x="71" y="73" width="21" height="4" rx="2" fill="#E9EDF5"/>
<rect x="97" y="45" width="20" height="4" rx="2" fill="#E9EDF5"/>
<rect x="97" y="59" width="20" height="4" rx="2" fill="#E9EDF5"/>
<rect x="97" y="73" width="20" height="4" rx="2" fill="#E9EDF5"/>
<rect x="122" y="45" width="21" height="4" rx="2" fill="#E9EDF5"/>
<rect x="122" y="59" width="21" height="4" rx="2" fill="#E9EDF5"/>
<rect x="122" y="73" width="21" height="4" rx="2" fill="#E9EDF5"/>
<rect x="17" y="90" width="45" height="10" rx="5" fill="#DCE2ED"/>
<rect x="152" y="90" width="76" height="15" rx="7.5" fill="#DCE2ED"/>
<rect x="71" y="91" width="11" height="2" rx="1" fill="#DCE2ED"/>
<rect x="71" y="105" width="11" height="2" rx="1" fill="#DCE2ED"/>
<rect x="71" y="119" width="11" height="2" rx="1" fill="#DCE2ED"/>
<rect x="97" y="91" width="10" height="2" rx="1" fill="#DCE2ED"/>
<rect x="97" y="105" width="10" height="2" rx="1" fill="#DCE2ED"/>
<rect x="97" y="119" width="10" height="2" rx="1" fill="#DCE2ED"/>
<rect x="122" y="91" width="12" height="2" rx="1" fill="#DCE2ED"/>
<rect x="122" y="105" width="12" height="2" rx="1" fill="#DCE2ED"/>
<rect x="122" y="119" width="12" height="2" rx="1" fill="#DCE2ED"/>
<rect x="71" y="94" width="21" height="4" rx="2" fill="#E9EDF5"/>
<rect x="71" y="108" width="21" height="4" rx="2" fill="#E9EDF5"/>
<rect x="71" y="122" width="21" height="4" rx="2" fill="#E9EDF5"/>
<rect x="97" y="94" width="20" height="4" rx="2" fill="#E9EDF5"/>
<rect x="97" y="108" width="20" height="4" rx="2" fill="#E9EDF5"/>
<rect x="97" y="122" width="20" height="4" rx="2" fill="#E9EDF5"/>
<rect x="122" y="94" width="21" height="4" rx="2" fill="#E9EDF5"/>
<rect x="122" y="108" width="21" height="4" rx="2" fill="#E9EDF5"/>
<rect x="122" y="122" width="21" height="4" rx="2" fill="#E9EDF5"/>
<rect x="17" y="139" width="45" height="10" rx="5" fill="#DCE2ED"/>
<rect x="152" y="139" width="65" height="10" rx="5" fill="#DCE2ED"/>
<rect x="71" y="140" width="11" height="2" rx="1" fill="#DCE2ED"/>
<rect x="71" y="154" width="11" height="2" rx="1" fill="#DCE2ED"/>
<rect x="71" y="168" width="11" height="2" rx="1" fill="#DCE2ED"/>
<rect x="97" y="140" width="10" height="2" rx="1" fill="#DCE2ED"/>
<rect x="97" y="154" width="10" height="2" rx="1" fill="#DCE2ED"/>
<rect x="97" y="168" width="10" height="2" rx="1" fill="#DCE2ED"/>
<rect x="122" y="140" width="12" height="2" rx="1" fill="#DCE2ED"/>
<rect x="122" y="154" width="12" height="2" rx="1" fill="#DCE2ED"/>
<rect x="122" y="168" width="12" height="2" rx="1" fill="#DCE2ED"/>
<rect x="71" y="143" width="21" height="4" rx="2" fill="#E9EDF5"/>
<rect x="71" y="157" width="21" height="4" rx="2" fill="#E9EDF5"/>
<rect x="71" y="171" width="21" height="4" rx="2" fill="#E9EDF5"/>
<rect x="97" y="143" width="20" height="4" rx="2" fill="#E9EDF5"/>
<rect x="97" y="157" width="20" height="4" rx="2" fill="#E9EDF5"/>
<rect x="97" y="171" width="20" height="4" rx="2" fill="#E9EDF5"/>
<rect x="122" y="143" width="21" height="4" rx="2" fill="#E9EDF5"/>
<rect x="122" y="157" width="21" height="4" rx="2" fill="#E9EDF5"/>
<rect x="122" y="171" width="21" height="4" rx="2" fill="#E9EDF5"/>
</svg>
