<?xml version="1.0" encoding="utf-8"?>
<!-- Generator: Adobe Illustrator 15.0.2, SVG Export Plug-In . SVG Version: 6.00 Build 0)  -->
<!DOCTYPE svg PUBLIC "-//W3C//DTD SVG 1.0//EN" "http://www.w3.org/TR/2001/REC-SVG-20010904/DTD/svg10.dtd">
<svg version="1.0" id="Layer_1" xmlns="http://www.w3.org/2000/svg" xmlns:xlink="http://www.w3.org/1999/xlink" x="0px" y="0px"
	 width="1353.045px" height="351.07px" viewBox="0 0 1353.045 351.07" enable-background="new 0 0 1353.045 351.07"
	 xml:space="preserve">
<g>
	<path d="M385.23,214.909c-3.283,0.77-6.777,1.539-8.472,3.52c-1.376,1.539-2.753,3.629-3.706,6.051l-27.427,68.309
		c-0.212,0.551,0,0.771-0.953,0.771s-0.423-0.33-0.953-0.66c-0.529-2.09-4.765-14.08-12.072-32.34l-8.789-22
		c-2.33-5.83-6.777-17.381-8.79-20.461c-3.071-1.76-5.824-2.641-8.789-3.41c-0.212-0.439-0.318-0.551-0.318-1.209
		c0-0.66,0.212-0.881,0.424-1.32h4.13c4.659,0,9.213,0.219,11.648,0.219c5.612,0,10.483-0.439,13.767-0.439h2.647
		c0.423,0.109,0.529,0.77,0.529,1.211c0,0.439-0.212,0.988-0.424,1.43c-2.859,0-5.083,0.66-6.883,0.879
		c-1.8,0.99-3.283,3.191-3.601,5.83l21.179,55.33l17.049-43.34c1.482-3.74,2.647-9.24,2.647-10.34c0-2.971-1.483-5.391-2.753-6.709
		c-2.33-0.771-4.66-1.32-7.307-1.65c0-0.441-0.211-0.66-0.211-1.1c0-0.551,0.317-0.881,0.529-1.432h1.906
		c1.271,0,4.342,0.551,12.919,0.551c1.8,0,5.824-0.221,8.366-0.221h3.6c0.424,0.111,0.53,0.771,0.53,1.211
		C385.654,214.138,385.336,214.468,385.23,214.909z"/>
	<path d="M421.845,291.688h-3.494c-3.495,0-10.378-0.33-11.966-0.33c-5.507,0-11.966,0.551-16.202,0.551h-1.8
		c0-0.551-0.212-0.439-0.212-1.32c0-0.439,0.106-1.209,0.318-1.65c7.73-0.549,9.001-2.309,10.272-3.41
		c0.741-1.43,1.271-3.959,1.482-6.6c0.106-3.85,0.318-12.43,0.318-15.619c0-6.381-0.106-13.861-0.212-19.361
		c-0.106-10.119-0.212-16.061-0.318-18.15c-0.423-5.939-2.224-8.139-3.495-9.129c-0.741-0.551-3.071-1.1-8.26-1.541
		c-0.106-0.549-0.212-0.879-0.212-1.32c0-0.988,0.212-0.988,0.53-1.43h2.33c4.66,0.111,11.013,0.441,13.237,0.441
		c3.601,0,9.743-0.551,14.19-0.551h3.071c0.212,0.221,0.529,0.66,0.529,1.32c0,0.439-0.106,0.879-0.317,1.32
		c-3.389,0.439-7.413,0.879-9.425,2.859c-0.741,0.66-1.906,2.75-1.906,5.721v28.27c0,10.23,0.106,22.551,0.212,27.83
		c0.741,3.961,1.906,6.16,3.601,8.25c1.906,0.439,6.248,0.881,7.836,0.99c0.212,0.439,0.318,0.879,0.318,1.43
		C422.269,290.698,422.163,291.14,421.845,291.688z"/>
	<path d="M456.607,293.118c-5.083,0-11.013-0.879-17.896-5.5c-0.953-0.66-1.906-0.988-2.542-0.988c-0.741,0-3.071,1.539-5.295,3.52
		c-1.271,0-2.859-1.1-3.177-2.201c0.211-1.76,1.165-4.398,1.165-9.789c0-2.201-0.423-9.461-0.423-10.891
		c0.635-0.439,1.165-0.66,1.8-0.66c0.741,0,0.741,0,1.482,0.221c1.059,4.289,4.659,11.439,7.201,14.85
		c4.236,5.939,13.025,8.141,18.002,8.141c4.66,0,9.001-1.65,11.754-5.17c3.071-3.85,4.766-7.26,4.766-11.111
		c0-7.809-3.389-10.779-11.86-14.189c-1.906-0.77-15.567-5.061-18.638-6.379c-4.554-1.98-7.836-4.621-10.166-8.031
		c-2.542-4.07-4.024-8.141-4.024-12.209c0-11.99,9.319-21.23,22.344-21.23c5.295,0,11.225,0.77,18.214,6.6
		c1.271-1.43,2.647-2.971,4.13-3.961c1.376,0,2.118,0.221,2.965,1.541c-0.317,1.98-0.953,5.721-0.953,8.58
		c0,3.301,0.53,7.15,0.847,9.9c-0.529,0.549-1.165,1.1-2.118,1.1c-0.318,0-0.741-0.109-1.059-0.221
		c-2.965-6.93-3.918-8.689-6.565-12.539c-3.071-4.4-8.366-7.48-14.72-7.48c-8.048,0-14.931,6.051-14.931,13.09
		c0,7.041,3.812,11,6.142,12.32c3.495,1.98,8.896,4.18,15.355,6.051c5.613,1.648,9.425,3.08,11.649,4.398
		c8.154,4.512,12.178,10.342,12.178,19.141C482.234,285.31,471.539,293.118,456.607,293.118z"/>
	<path d="M517.78,291.688h-3.494c-3.495,0-10.378-0.33-11.966-0.33c-5.507,0-11.966,0.551-16.202,0.551h-1.8
		c0-0.551-0.212-0.439-0.212-1.32c0-0.439,0.106-1.209,0.318-1.65c7.73-0.549,9.001-2.309,10.272-3.41
		c0.741-1.43,1.271-3.959,1.482-6.6c0.106-3.85,0.318-12.43,0.318-15.619c0-6.381-0.106-13.861-0.212-19.361
		c-0.106-10.119-0.212-16.061-0.318-18.15c-0.423-5.939-2.224-8.139-3.495-9.129c-0.741-0.551-3.071-1.1-8.26-1.541
		c-0.106-0.549-0.212-0.879-0.212-1.32c0-0.988,0.212-0.988,0.53-1.43h2.33c4.66,0.111,11.013,0.441,13.237,0.441
		c3.601,0,9.743-0.551,14.19-0.551h3.071c0.212,0.221,0.529,0.66,0.529,1.32c0,0.439-0.106,0.879-0.317,1.32
		c-3.389,0.439-7.413,0.879-9.425,2.859c-0.741,0.66-1.906,2.75-1.906,5.721v28.27c0,10.23,0.106,22.551,0.212,27.83
		c0.741,3.961,1.906,6.16,3.601,8.25c1.906,0.439,6.248,0.881,7.836,0.99c0.212,0.439,0.318,0.879,0.318,1.43
		C518.204,290.698,518.098,291.14,517.78,291.688z"/>
	<path d="M689.669,214.688c-7.307,0.33-13.555,3.85-13.555,17.6v47.191c0,1.65,0.105,4.949,0.105,8.139
		c0,2.641-0.211,4.4-0.424,4.951c-0.424,0.219-0.105,0.219-0.635,0.219s-0.742-0.109-1.271-0.658l-48.5-61.162
		c-0.741-0.879-1.694-2.09-2.33-2.859c-0.106,3.85-0.212,15.951-0.212,24.641c0,6.49,0.106,12.539,0.106,16.061
		c0,3.85,0.635,12.209,1.376,13.859c3.601,4.949,9.001,5.609,12.708,6.6c0.211,0.439,0.317,0.551,0.317,0.99s-0.106,1.32-0.529,1.43
		h-6.354c-4.342,0-6.459-0.33-11.119-0.33c-3.177,0-8.048,0.33-10.166,0.33h-2.012c-0.212-0.109-0.318-0.77-0.318-1.1
		c0-0.551,0.212-0.66,0.424-1.209c5.506-1.432,8.895-2.971,11.119-5.391c0.317-1.871,0.635-4.73,0.635-8.361
		c0-7.809,0-12.209,0-23.76c0-7.699,0.317-18.26,0.317-23.98c0-1.539-0.106-2.75-0.423-3.52c-0.953-2.199-3.495-4.51-5.189-6.49
		c-1.906-2.09-6.565-2.639-8.154-3.08c-0.106-0.33-0.212-1.209-0.212-1.43c0-0.439,0.106-0.549,0.317-0.99
		c1.8,0,7.625,0.33,14.402,0.33c0.847,0,1.906,0.111,2.753,0.111c0.636,0.439,1.271,0.988,1.588,1.43l38.758,48.73
		c4.131,5.059,7.201,9.24,9.002,11.33c0.105-1.211,0.211-2.09,0.211-4.73v-32.891c0-4.51-0.105-6.16-0.211-7.811
		c-0.318-4.289-1.166-8.58-3.072-10.889c-2.752-1.871-9.212-2.641-10.907-3.191c-0.423-0.439-0.529-0.549-0.529-1.1
		c0-0.439,0.106-1.209,0.424-1.43h2.753c1.166,0,6.037,0.221,9.32,0.221c9.529,0,11.859-0.221,17.154-0.221h2.436
		c0.211,0.33,0.318,0.66,0.318,1.1C690.093,213.919,689.986,214.138,689.669,214.688z"/>
	<path d="M779.656,292.239c-2.223,0-3.918-0.99-6.248-2.859c-2.646-2.201-7.836-7.922-10.166-10.342
		c-6.459,8.25-13.871,12.98-23.084,12.98c-12.18,0-22.875-8.91-22.875-21.561c0-9.238,4.555-17.6,10.484-22.66
		c0.529-0.439,1.588-1.43,2.225-1.869l-1.906-1.98c-5.084-5.279-7.838-9.68-7.838-16.17c0-9.68,6.99-16.061,16.414-16.061
		c8.684,0,16.098,5.611,16.098,14.631c0,6.16-3.072,11.551-10.061,15.4c-1.271,0.66-2.119,0.99-2.754,1.43
		c1.482,1.869,3.602,3.74,5.4,5.5c5.932,5.83,14.826,15.4,18.215,18.59l2.33,2.201c2.436-4.951,4.342-10.672,4.447-16.281
		c-1.164-4.18-2.541-5.061-4.447-6.709c-1.166-0.33-3.178-0.99-7.625-1.102c-0.318-0.549-0.318-0.77-0.318-1.43
		s0.213-0.77,0.529-1.32c3.389-0.33,7.414-0.439,13.133-0.439c4.447,0,13.977,0.33,14.719,0.33c0.318,0.33,0.529,0.66,0.529,1.211
		c0,0.33-0.211,0.879-0.318,1.318c-2.752,0.551-6.035,1.102-7.518,2.311c-1.059,0.881-2.012,1.32-2.965,4.4
		c-0.318,0.881-1.482,4.4-3.494,9.789c-1.484,3.852-3.602,8.471-4.342,10.012c0.953,1.318,2.223,2.969,7.518,7.809
		c3.389,3.191,6.566,5.5,7.943,5.5c0.74,0,1.799-1.1,2.223-1.539c0.742,0,1.482-0.109,1.695,0.66
		C787.281,286.739,785.375,292.239,779.656,292.239z M732.427,248.019c-3.178,2.199-7.625,7.15-7.625,14.08
		c0,12.211,8.154,23.211,22.449,23.211c5.613,0,11.438-4.951,13.66-9.021L732.427,248.019z M735.603,214.579
		c-4.023,0-8.365,2.969-8.365,9.24c0,1.979,0.424,4.84,2.012,7.26c1.906,2.969,3.707,5.059,6.566,8.139
		c0.529,0.551,1.482,1.32,2.117,1.541c4.131-2.199,8.473-7.26,8.473-13.09C746.406,219.968,741.64,214.579,735.603,214.579z"/>
	<path d="M884.361,291.8c-2.646,0-8.576,0-11.012,0c-4.025,0-5.189-0.221-6.037-0.33c-2.012-0.221-2.859-2.201-3.178-4.512
		c-1.059-8.029-3.281-18.479-6.67-23.979c-2.543-4.07-6.354-7.041-10.379-8.91c-2.752-1.32-5.611-1.541-8.471-1.541
		c-0.848,0-3.918,0-4.766,0.111l0.105,27.83c0,3.85,1.906,6.27,4.555,7.59c1.164,0.219,3.811,0.879,5.93,1.1
		c0.211,0.439,0.424,0.77,0.424,1.539c0,0.441-0.213,0.771-0.424,1.211c-6.037,0-7.625-0.33-14.402-0.33
		c-3.389,0-15.566,0.33-17.049,0.33c-0.213-0.551-0.424-0.99-0.424-1.32c0-0.551,0.211-0.881,0.529-1.43
		c2.117-0.109,4.66-0.551,6.037-0.77c3.07-1.32,4.023-4.4,4.34-7.15c0.531-4.18,0.424-18.59,0.424-29.811
		c0-15.51-0.105-25.74-0.635-29.26c-1.059-2.42-1.906-3.74-4.447-5.721c-1.695-0.33-4.977-0.77-6.777-0.99
		c-0.105-0.439-0.213-0.99-0.213-1.43s0.213-0.66,0.531-1.43c0.635,0,4.658,0.221,6.246,0.221c3.707,0,8.896,0.219,10.484,0.219
		c5.295,0,11.119-0.77,19.061-0.77c5.613,0,10.061,0.439,12.602,1.211c7.73,2.529,13.238,11,13.238,19.908
		c0,5.941-2.754,10.891-6.99,14.191c-2.012,1.65-4.234,3.189-11.119,4.07c-2.012,0.219-2.752,0.33-4.342,0.66
		c1.271,0.549,2.648,1.1,4.342,1.76c3.707,1.32,6.672,2.75,7.625,3.629c2.541,2.42,5.508,7.59,7.73,13.09
		c1.588,4.182,3.07,8.801,4.447,13.861c0.424,0.77,1.271,2.09,1.801,2.75c1.588,1.209,5.93,1.43,6.988,1.43
		c0.318,0.439,0.531,0.99,0.531,1.539C884.998,290.919,884.785,291.358,884.361,291.8z M859.9,221.839
		c-3.602-5.391-8.154-6.381-18.109-6.381c-2.646,0-6.988,0.33-7.412,0.66s-0.742,1.1-0.742,2.531v20.789l0.107,9.68
		c1.588,0.221,5.188,0.221,6.459,0.221c4.766,0,8.473-0.33,11.014-0.881c6.248-1.43,11.648-9.35,11.648-16.389
		C862.865,228.218,861.912,224.81,859.9,221.839z"/>
	<path d="M945.818,279.919c-3.6,4.51-7.941,8.029-13.236,10.34c-4.555,2.09-9.426,3.189-14.508,3.189
		c-8.154,0-15.25-2.639-21.604-7.92c-8.26-7.15-13.449-19.25-13.449-31.9c0-7.92,1.801-15.289,5.402-22.109
		c5.717-10.891,18.002-20.24,32.086-20.24c6.248,0,12.072,1.871,18.107,5.609c11.014,7.041,16.414,18.701,16.414,33.881
		C955.031,261.659,951.96,272.108,945.818,279.919z M936.818,222.608c-3.812-4.84-10.273-7.92-17.051-7.92
		c-4.342,0-8.789,1.32-13.025,4.51c-8.047,5.939-12.389,18.26-12.389,33.881c0,10.561,2.541,22.66,7.201,29.15
		c3.705,5.059,9.637,7.809,16.73,7.809c5.084,0,9.637-1.43,13.238-4.18c7.201-5.279,12.283-20.24,12.283-37.289
		C943.806,236.909,941.476,228.438,936.818,222.608z"/>
	<path d="M1016.3,286.63c-4.342,4.619-9.426,5.389-16.309,5.279l-29.121-0.439c-2.859,0-8.896,0.219-11.861,0.219
		c-2.012,0-3.918,0-4.342-0.109c-0.211-0.439-0.316-0.99-0.316-1.43c0-0.441,0.105-0.77,0.529-1.541c6.141,0,10.801-1.1,11.225-2.75
		c0.635-2.309,1.27-6.049,1.588-9.57c0.105-2.969,0.213-13.309,0.213-23.539c0-9.24-0.424-25.85-0.531-26.951
		c-0.105-1.648-0.316-3.52-0.635-4.949c-0.529-2.09-2.012-4.291-4.977-4.73c-2.541-0.33-5.93-0.77-7.52-0.99
		c-0.211-0.66-0.316-0.879-0.316-1.32c0-0.658,0.105-0.658,0.424-1.209c0.529-0.109,1.693-0.109,2.541-0.109h21.496
		c6.248,0,12.178-0.33,16.096-0.33c5.295,0,9.32,0.77,12.18,2.309c6.248,3.41,9.529,9.352,9.529,17.82
		c0,6.93-2.646,11.99-6.564,14.08c-1.377,0.66-4.979,1.76-6.672,2.311c-0.424,0.109-1.271,0.439-1.271,0.881
		c0,0.658,1.59,0.77,2.754,0.988c1.588,0.33,6.037,1.32,7.201,1.871c1.693,0.77,5.719,3.74,7.625,7.699
		c1.588,3.301,2.646,7.041,2.646,11.221C1021.912,277.608,1019.9,282.778,1016.3,286.63z M1002.638,222.388
		c-2.223-3.52-5.611-5.389-10.271-6.27c-2.012-0.439-4.766-0.66-8.154-0.66c-1.906,0-4.023,0.111-6.141,0.111
		c-0.213,3.629-0.424,17.818-0.424,17.818c-0.213,4.07-0.213,7.041-0.213,9.131c0,3.301,0.318,5.5,0.529,5.721
		c0.213,0.219,1.695,0.219,3.812,0.219c6.037,0,15.674-1.318,17.367-2.42c0.635-0.439,1.482-1.209,2.33-2.42
		c2.754-3.52,4.236-7.369,4.236-11.33C1005.71,228.659,1004.544,225.249,1002.638,222.388z M1008.462,261.329
		c-4.023-6.051-8.152-7.371-16.307-8.91c-2.012-0.33-5.084-0.77-9.32-0.77c-2.965,0-4.764,0.109-5.188,0.549
		c-0.107,0.221-0.107,1.65-0.107,3.961v20.24c0,3.299,0.213,4.51,0.424,5.83c1.271,2.859,2.754,4.289,6.037,6.049
		c1.059,0.221,4.658,0.33,6.143,0.33c8.26,0,11.117-1.32,15.248-4.619c3.494-3.189,5.4-7.92,5.4-14.631
		C1010.792,266.278,1010.052,263.528,1008.462,261.329z"/>
	<path d="M1090.05,279.919c-3.6,4.51-7.941,8.029-13.236,10.34c-4.555,2.09-9.426,3.189-14.508,3.189
		c-8.154,0-15.25-2.639-21.604-7.92c-8.26-7.15-13.449-19.25-13.449-31.9c0-7.92,1.801-15.289,5.402-22.109
		c5.717-10.891,18.002-20.24,32.086-20.24c6.248,0,12.072,1.871,18.107,5.609c11.014,7.041,16.414,18.701,16.414,33.881
		C1099.263,261.659,1096.193,272.108,1090.05,279.919z M1081.05,222.608c-3.812-4.84-10.273-7.92-17.051-7.92
		c-4.342,0-8.789,1.32-13.025,4.51c-8.047,5.939-12.389,18.26-12.389,33.881c0,10.561,2.541,22.66,7.201,29.15
		c3.705,5.059,9.637,7.809,16.73,7.809c5.084,0,9.637-1.43,13.238-4.18c7.201-5.279,12.283-20.24,12.283-37.289
		C1088.039,236.909,1085.708,228.438,1081.05,222.608z"/>
	<path d="M1174.416,236.358c-0.637,0-0.953,0-1.59-0.221c-1.588-5.279-2.223-8.469-4.766-11.988
		c-2.857-3.961-4.871-6.49-11.436-8.361c-3.178-0.109-10.908,0-12.391,0c0,19.031-0.105,26.84-0.105,37.07
		c0,7.92,0.105,13.861,0.211,25.74c0,3.85,0.637,6.82,0.953,8.031c2.967,2.309,9.744,2.09,10.908,2.09
		c0.318,0.549,0.424,0.77,0.424,1.43c0,0.549,0,1.1-0.318,1.65h-2.965c-6.459,0-12.178-0.33-15.248-0.33
		c-3.812,0-9.002,0.439-12.92,0.439h-4.131c-0.105-0.439-0.105-0.881-0.105-1.32c0-0.881,0-0.99,0.318-1.76
		c12.707-0.551,12.178-2.641,12.602-5.721c0.211-1.76,0.316-10.449,0.316-26.619c0-18.701,0-22.99-0.105-30.91
		c-0.105-4.621-0.211-8.471-0.316-9.68c-1.695,0-12.709,0.109-15.885,0.439c-7.096,3.74-8.684,8.799-12.814,18.369
		c-0.424,0.221-0.846,0.221-1.27,0.221c-0.529,0-0.848-0.109-1.271-0.439v-19.91c0-1.541,0.424-1.871,1.801-1.871h7.836
		c5.93,0,14.084,0.221,27.215,0.221c16.943,0,30.816-0.439,33.992-0.439c1.59,0,2.225,0.439,2.225,2.09v21.34
		C1175.369,236.138,1174.837,236.358,1174.416,236.358z"/>
	<path d="M1213.146,291.688h-3.494c-3.494,0-10.379-0.33-11.967-0.33c-5.506,0-11.967,0.551-16.201,0.551h-1.801
		c0-0.551-0.211-0.439-0.211-1.32c0-0.439,0.105-1.209,0.316-1.65c7.73-0.549,9.002-2.309,10.271-3.41
		c0.742-1.43,1.271-3.959,1.482-6.6c0.107-3.85,0.318-12.43,0.318-15.619c0-6.381-0.105-13.861-0.211-19.361
		c-0.107-10.119-0.213-16.061-0.318-18.15c-0.424-5.939-2.225-8.139-3.494-9.129c-0.742-0.551-3.072-1.1-8.26-1.541
		c-0.105-0.549-0.213-0.879-0.213-1.32c0-0.988,0.213-0.988,0.529-1.43h2.33c4.66,0.111,11.014,0.441,13.238,0.441
		c3.6,0,9.742-0.551,14.189-0.551h3.07c0.213,0.221,0.529,0.66,0.529,1.32c0,0.439-0.105,0.879-0.316,1.32
		c-3.389,0.439-7.414,0.879-9.426,2.859c-0.74,0.66-1.906,2.75-1.906,5.721v28.27c0,10.23,0.105,22.551,0.213,27.83
		c0.74,3.961,1.906,6.16,3.6,8.25c1.906,0.439,6.248,0.881,7.836,0.99c0.213,0.439,0.318,0.879,0.318,1.43
		C1213.57,290.698,1213.464,291.14,1213.146,291.688z"/>
	<path d="M1275.644,281.458c-4.555,6.711-13.873,11.66-24.992,11.66c-9.424,0-17.154-2.75-22.555-7.148
		c-8.578-7.262-13.662-18.701-13.662-32.781c0-13.199,3.602-23.43,10.273-30.91c6.141-6.93,14.189-10.67,24.461-10.67
		c11.119,0,15.99,3.85,21.604,8.471c1.377-1.871,2.646-3.301,4.129-4.51c1.377,0.109,2.33,0.549,2.859,1.209
		c0,2.09-0.635,5.83-0.635,9.131c0,2.639,0.953,10.889,1.059,12.1c-0.424,0.439-0.74,0.77-1.377,0.881
		c-0.848,0.109-1.482-0.111-1.906-0.221c-1.693-5.83-3.705-10.781-5.611-13.311c-4.342-5.83-10.908-9.789-17.896-9.789
		c-8.789,0-17.367,4.84-22.451,17.6c-2.012,4.73-3.176,11.109-3.176,19.141c0,8.469,1.693,16.279,3.176,19.91
		c2.965,7.369,11.438,16.059,23.086,16.059c9.426,0,17.367-4.289,23.721-13.639c0.211,0,0.529-0.111,0.742-0.111
		c0.953,0,1.588,0.771,1.906,1.76C1277.656,278.159,1277.445,278.819,1275.644,281.458z"/>
	<path d="M1313.72,293.118c-5.084,0-11.014-0.879-17.896-5.5c-0.953-0.66-1.906-0.988-2.543-0.988c-0.74,0-3.07,1.539-5.295,3.52
		c-1.27,0-2.857-1.1-3.176-2.201c0.211-1.76,1.164-4.398,1.164-9.789c0-2.201-0.424-9.461-0.424-10.891
		c0.637-0.439,1.166-0.66,1.801-0.66c0.742,0,0.742,0,1.482,0.221c1.059,4.289,4.66,11.439,7.201,14.85
		c4.236,5.939,13.025,8.141,18.002,8.141c4.66,0,9.002-1.65,11.756-5.17c3.07-3.85,4.764-7.26,4.764-11.111
		c0-7.809-3.389-10.779-11.859-14.189c-1.906-0.77-15.566-5.061-18.639-6.379c-4.553-1.98-7.836-4.621-10.166-8.031
		c-2.541-4.07-4.023-8.141-4.023-12.209c0-11.99,9.318-21.23,22.344-21.23c5.295,0,11.225,0.77,18.215,6.6
		c1.27-1.43,2.646-2.971,4.129-3.961c1.377,0,2.119,0.221,2.967,1.541c-0.318,1.98-0.953,5.721-0.953,8.58
		c0,3.301,0.529,7.15,0.846,9.9c-0.529,0.549-1.164,1.1-2.117,1.1c-0.318,0-0.742-0.109-1.059-0.221
		c-2.965-6.93-3.918-8.689-6.566-12.539c-3.07-4.4-8.365-7.48-14.719-7.48c-8.049,0-14.932,6.051-14.932,13.09
		c0,7.041,3.812,11,6.143,12.32c3.494,1.98,8.895,4.18,15.354,6.051c5.613,1.648,9.426,3.08,11.648,4.398
		c8.154,4.512,12.18,10.342,12.18,19.141C1339.347,285.31,1328.65,293.118,1313.72,293.118z"/>
</g>
<path fill="#231F20" d="M401.791,83.956c0-10.52-6.028-20.331-14.984-24.376c-4.625-1.981-12.754-3.234-25.077-3.234
	c-10.796,0-27.619,0.853-35.024,0.853c-5.193,0-13.045-0.578-17.386-0.578c-0.427,0.701-0.714,1.68-0.714,2.232
	c0,0.582,0,2.112,0.426,2.81c2.661,0.855,6.999,1.536,9.813,2.262c2.375,2.081,2.943,3.913,3.777,7.983
	c0.417,4.894,0.71,11.065,0.71,21.715c0,29.569-0.144,45.111-0.561,48.471c-0.564,4.224-3.36,8.567-7.99,9.944
	c-2.112,0.426-5.2,1.132-8.12,1.411c-0.139,0.695-0.287,1.674-0.287,2.932c0,1.134,0.148,1.279,0.407,1.985
	c4.484,0,17.66-0.576,22.71-0.576c12.477,0,25.23,0.576,30.399,0.576h3.515c0.427-0.576,0.427-1.558,0.427-2.237
	c0-0.852,0-1.985-0.288-2.534c-4.208-0.55-10.508-1.405-13.166-4.489c-1.407-1.661-2.814-4.072-2.814-8.267l-0.428-30.822
	c8.417,0.549,17.389,0.824,22.296,0.824c6.434,0,11.896-1.104,16.239-2.509C395.63,104.569,401.791,94.727,401.791,83.956
	 M376.72,83.379c0,7.157-2.54,13.455-7.138,17.528c-2.953,2.379-7.578,3.785-14.592,3.785c-2.93,0-5.196-0.123-6.017-0.273
	c-1.122-0.152-1.835-0.281-1.835-1.006l0.149-41.048c1.686-0.126,4.065-0.703,8.139-0.703c9.527,0,15.416,2.388,18.21,8.288
	C375.58,73.71,376.72,78.488,376.72,83.379 M528.892,155.974c0-0.697-0.278-2.379-0.705-2.929c-1.393,0-7.128-0.276-9.239-1.834
	c-0.705-0.832-1.814-2.511-2.381-3.518c-1.838-6.424-3.915-10.766-6.031-16.09c-2.949-7.004-7-13.607-10.364-16.695
	c-1.27-1.099-5.612-2.935-10.519-4.619c-2.234-0.826-4.055-1.531-5.73-2.232c2.093-0.426,3.074-0.579,5.73-0.826
	c10.379-1.286,12.748-3.093,15.411-5.199c5.616-4.219,8.688-10.642,8.688-18.226c0-11.35-7.276-22.263-17.507-25.505
	c-3.381-0.979-9.378-1.535-16.808-1.535c-10.522,0-25.23,0.982-32.233,0.982c-2.112,0-14.31-0.273-19.208-0.273
	c-2.106,0-7.43-0.277-8.259-0.277c-0.43,0.981-0.698,2.081-0.698,2.661c0,0.549,0.135,1.958,0.269,2.506
	c2.389,0.28,6.731,0.833,8.977,1.259c3.355,2.533,4.485,4.493,5.878,7.577c0.719,4.498,0.842,15.97,0.842,35.724
	c0,14.313,0.144,30.83-0.55,36.182c-0.417,3.484-1.685,7.67-5.755,9.357c-1.809,0.305-5.18,0.851-7.985,0.985
	c-0.425,0.695-0.703,2.105-0.703,2.812c0,0.421,0.278,1.53,0.555,2.229c1.983,0,23.425-0.398,27.887-0.398
	c8.966,0,16.55,0.398,24.536,0.398c0.272-0.553,0.545-1.532,0.545-2.108c0-0.953-0.272-2.358-0.545-2.932
	c-2.821-0.279-6.304-1.111-7.852-1.411c-3.501-1.659-6.032-5.019-6.032-9.944l-0.135-32.357c1.11-0.149,2.514-0.149,3.639-0.149
	c1.814,0,3.925,0.304,7.425,2.236c5.184,2.963,7.717,5.069,11.083,10.243c4.481,7,7.434,19.881,8.828,30.124
	c0.411,2.933,1.527,5.47,4.198,5.746c1.12,0.154,8.552,0.43,13.875,0.43h20.044C528.614,157.79,528.892,156.681,528.892,155.974
	 M488.266,82.699c0,8.69-5.889,18.629-12.749,20.313c-2.81,0.7-6.323,1.125-11.494,1.125c-1.412,0-3.514,0-5.201-0.299
	l-0.133-11.902V66.158c0-1.679,0.417-2.661,0.838-3.087c0.416-0.426,2.955-0.832,5.898-0.832c10.924,0,15.692,0.959,19.608,7.559
	C487.27,73.592,488.266,77.933,488.266,82.699 M600.634,155.829c0-0.706-0.15-2.234-0.412-2.784
	c-2.111-0.155-7.847-0.708-10.37-1.255c-2.246-2.684-3.807-5.745-4.773-10.796c-0.134-6.727-0.286-20.606-0.286-33.636V72.888
	c0-3.792,1.546-6.73,2.536-7.584c2.667-2.508,7.988-3.065,12.479-3.641c0.282-0.551,0.415-2.083,0.415-2.657
	c0-0.826-0.415-1.959-0.699-2.24h-4.073c-5.883,0-19.62,0.709-24.388,0.709c-2.934,0-16.664-0.429-22.831-0.549h-3.073
	c-0.427,0.549-0.704,1.095-0.704,2.354c0,0.58,0.128,1.984,0.277,2.665c6.882,0.574,9.944,1.254,10.936,1.981
	c1.676,1.254,4.055,4.342,4.629,11.902c0.123,2.661,0.258,8.405,0.396,21.313c0.158,6.998,0.288,16.79,0.288,24.926
	c0,4.064-0.288,13.176-0.427,18.074c-0.258,3.366-0.977,6.574-1.944,8.406c-1.685,1.411-3.371,3.918-13.605,4.624
	c-0.274,0.553-0.423,2.385-0.423,2.959c0,1.106,0.289,1.661,0.289,2.36h2.383c5.616,0,19.613-0.699,26.901-0.699
	c2.106,0,16.67,0.426,21.294,0.426h4.64C600.484,157.515,600.634,156.381,600.634,155.829 M739.233,58.728
	c0-0.548-0.143-1.529-0.424-1.962h-3.231c-6.997,0-11.48,0.281-24.093,0.281c-4.342,0-10.809-0.281-12.325-0.281h-3.655
	c-0.426,0.281-0.57,1.835-0.57,2.389c0,0.705,0.145,1.811,0.722,2.389c2.233,0.696,10.764,1.655,14.433,4.067
	c2.509,2.933,3.633,8.805,4.053,14.278c0.139,2.086,0.29,4.196,0.29,9.942v29.296c0,3.366-0.151,4.466-0.29,6.025
	c-2.368-2.659-5.749-7.705-11.359-14.01l-46.79-51.862c-0.428-0.552-1.254-1.259-2.112-1.804c-1.111,0-3.083-0.154-4.19-0.154
	c-8.986,0-25.229-0.396-27.612-0.396c-0.277,0.549-0.55,1.375-0.55,1.927c0,0.301,0.273,2.258,0.4,2.69
	c2.108,0.55,6.742,1.253,10.511,5.32c2.263,2.506,6.179,6.025,7.433,8.836c0.426,0.982,0.565,2.506,0.565,4.468
	c0,7.275-0.406,17.518-0.406,27.31v28.47c0,4.62-0.437,8.259-0.854,10.643c-2.942,3.087-7.422,5.325-14.715,7.132
	c-0.273,0.726-0.555,1.832-0.555,2.538c0,0.421,0.129,1.83,0.417,1.956h2.661c2.796,0,9.25-0.426,13.452-0.426
	c6.167,0,10.36,0.426,16.111,0.426h8.405c0.563-0.126,0.704-1.835,0.704-2.388c0-0.551-0.141-1.685-0.426-2.234
	c-4.9-1.257-12.046-2.384-16.81-8.688c-0.964-2.106-1.818-12.471-1.818-17.396c0-4.465-0.149-10.618-0.149-18.899
	c0-11.076,0.149-20.737,0.283-25.639c0.843,0.982,1.821,2.237,2.528,3.069l64.743,72.745c0.699,0.682,3.208,0.832,3.919,0.832
	c0.702,0,1.124,0,1.678-0.273c0.277-0.705,1.261-2.965,1.261-6.301c0-4.068-0.146-8.287-0.146-10.371V84.231
	c0-17.521,8.273-22.414,17.938-22.844C739.09,60.69,739.233,59.435,739.233,58.728 M848.261,138.733
	c-0.425-1.256-1.558-3.362-4.769-3.362c-0.293,0-0.719,0.149-0.981,0.149c-8.421,11.924-17.675,16.395-28.183,16.395
	c-14.573,0-24.935-9.822-28.299-18.506c-1.834-4.619-4.343-14.709-4.343-25.505c0-10.218,1.543-18.5,4.202-24.525
	c6.162-16.243,15.123-21.287,26.068-21.287c9.113,0,16.67,5.197,22.415,12.602c2.389,3.238,4.905,9.537,7.137,16.966
	c0.58,0.129,1.834,0.403,3.085,0.403c0.841,0,2.808-0.674,3.37-1.255c-0.128-1.532-1.538-12.321-1.538-15.688
	c0-4.199,1.121-11.071,1.121-13.734c-0.844-0.854-3.638-1.401-5.458-1.528c-2.112,1.528-2.812,3.339-4.773,5.751
	c-7.847-5.624-15.136-9.968-31.102-9.968c-14.718,0-26.366,5.048-35.189,13.88c-9.66,9.513-14.982,22.694-14.982,39.515
	c0,17.921,7.567,32.662,19.761,41.899c7.719,5.6,19.063,9.385,32.639,9.385c17.098,0,29.578-6.451,35.875-14.982
	C846.833,141.947,847.122,141.121,848.261,138.733 M966.793,133.835c0-1.958,0-2.811-0.141-4.063
	c-0.709-0.421-0.983-0.421-2.108-0.421c-0.98,0-2.086,0-3.093,0.274c-4.743,10.789-11.618,19.206-15.404,21.436
	c-2.094,1.278-5.313,1.557-10.51,1.557h-11.479c-4.481,0-8-0.426-9.25-0.701c-2.105-0.431-4.348-3.792-5.313-6.03
	c-0.995-2.379-1.562-2.379-1.562-8.83v-30.678h5.197c1.391,0,4.771,0.275,8.53,1.955c3.518,1.559,4.926,3.641,6.32,5.898
	c1.27,1.933,2.094,9.667,2.368,11.628c0.718,0.399,2.537,0.547,3.661,0.547c1.111,0,1.814-0.148,2.787-0.701
	c0-3.793-0.842-14.008-0.842-19.631c0-7.001,0.979-16.668,1.397-21.689c-0.556-0.3-1.397-0.579-2.785-0.579
	c-0.974,0-2.812,0-3.645,0.426c-0.42,1.961-1.966,7.833-2.256,8.262c-2.081,3.512-5.75,6.176-9.515,7.305
	c-2.52,0.676-6.179,1.109-8.128,1.109h-2.942V87.875c0-13.459,0.273-17.804,0.418-20.338c0.133-1.655,0.41-3.487,0.559-4.741
	c1.258-0.151,1.966-0.278,8.418-0.278c8.11,0,11.905,0.127,13.165,0.127c3.926,0.301,6.863,1.134,8.972,2.812
	c5.325,4.065,9.386,10.493,13.441,17.37c0.843,0.278,2.25,0.278,2.953,0.278c0.845,0,0.978-0.278,2.104-0.827
	c0-8.568-0.576-19.633-0.854-23.124c-0.146-1.406-0.404-1.833-3.206-1.833c-1.137,0-6.457-0.275-12.054-0.275
	c-7.987,0-11.225,0.152-23.423,0.152c-6.57,0-20.167,0.123-25.916,0.123c-8.4,0-15.56-0.275-19.198-0.275h-4.768
	c-0.427,0.552-0.685,1.681-0.685,2.233c0,0.707,0.258,2.264,0.685,2.813c1.684,0.552,8.276,0.425,10.242,1.532
	c1.96,1.679,3.766,2.381,5.033,9.109c0.29,2.966,0.432,11.072,0.432,17.523v28.87c0,5.878-0.142,14.436-0.293,17.929
	c-0.271,5.47-2.231,12.05-3.058,13.323c-1.283,0.979-7.034,1.811-12.635,2.085c-0.406,0.851-0.699,2.26-0.699,3.09
	c0,0.827,0.293,1.833,0.699,2.536h4.626c4.494,0,21.021-0.43,24.808-0.43c3.509,0,10.234,0.276,18.358,0.276
	c4.48,0,17.662,0.852,45.958,0.852c1.121,0,2.38,0.127,3.779-0.299c0.436-0.699,0.436-0.974,0.563-2.229
	C966.793,153.449,966.793,145.185,966.793,133.835 M1087.571,88.298V59.707c0-2.108-0.823-2.66-2.937-2.66
	c-4.203,0-26.334,0.552-48.747,0.552c-17.391,0-31.817-0.277-39.67-0.277h-10.378c-1.804,0-2.371,0.427-2.371,2.385v26.758
	c0.567,0.433,1.536,0.58,2.246,0.58c0.553,0,2.523,0,3.08-0.305c6.304-12.726,12.197-19.604,19.628-23.395
	c4.192-0.398,12.451-0.549,14.695-0.549c0.145,1.53,0.288,6.451,0.418,12.326c0.153,10.088,0.153,14.434,0.153,38.254
	c0,20.615-0.153,29.851-0.427,32.083c-0.552,3.917,0.144,6.878-16.676,7.585c-0.426,0.978-0.426,2.078-0.426,3.215
	c0,0.548,0,1.676,0.159,2.229h5.442c5.195,0,17.388-0.553,22.438-0.553c4.062,0,17.101,0.43,25.632,0.43h3.922
	c0.425-0.706,0.425-2.237,0.425-2.938c0-0.852-0.132-1.833-0.549-2.538c-1.562,0-10.527,0.28-14.44-2.659
	c-0.427-1.532-1.268-5.599-1.268-10.517c-0.136-15.116-0.288-20.868-0.288-30.957c0-13.029,0.152-21.86,0.152-46.113
	c1.961,0,6.455-0.127,10.643,0c8.701,2.384,12.903,5.622,16.681,10.644c2.373,3.238,4.905,8.687,7.419,15.288
	c0.853,0.275,1.557,0.275,2.385,0.275C1085.477,88.852,1087.301,88.576,1087.571,88.298 M1210.749,105.945
	c0-19.601-8.688-34.59-24.946-43.58c-8.686-4.767-17.367-7.15-26.622-7.15c-20.446,0-38.945,12.203-47.229,26.083
	c-5.329,8.684-8.113,18.195-8.113,28.29c0,16.117,7.851,31.959,20.034,41.073c9.254,6.726,19.76,10.061,31.959,10.061
	c7.429,0,14.433-1.375,21.285-4.041c7.722-2.958,14.3-7.575,19.481-13.327C1205.712,133.41,1210.749,120.659,1210.749,105.945
	 M1185.39,103.286c0,21.16-5.88,39.821-13.871,46.392c-4.06,3.367-9.11,5.046-14.856,5.046c-7.833,0-14.714-3.089-18.627-9.385
	c-5.324-8.138-8.27-23.273-8.27-36.431c0-19.504,5.025-34.766,13.999-42.198c4.779-3.915,9.67-5.447,14.575-5.447
	c7.581,0,14.865,3.641,19.069,9.659C1182.73,78.206,1185.39,88.731,1185.39,103.286 M1345.969,58.728
	c0-0.548-0.124-1.529-0.415-1.962h-3.215c-7.015,0-11.483,0.281-24.114,0.281c-4.339,0-10.796-0.281-12.321-0.281h-3.639
	c-0.427,0.281-0.565,1.835-0.565,2.389c0,0.705,0.139,1.811,0.687,2.389c2.264,0.696,10.801,1.655,14.438,4.067
	c2.534,2.933,3.65,8.805,4.081,14.278c0.122,2.086,0.262,4.196,0.262,9.942v29.296c0,3.366-0.14,4.466-0.262,6.025
	c-2.405-2.659-5.757-7.705-11.365-14.01l-46.801-51.862c-0.414-0.552-1.259-1.259-2.103-1.804c-1.127,0-3.084-0.154-4.187-0.154
	c-8.99,0-25.234-0.396-27.616-0.396c-0.276,0.549-0.564,1.375-0.564,1.927c0,0.301,0.288,2.258,0.418,2.69
	c2.105,0.55,6.723,1.253,10.514,5.32c2.233,2.506,6.162,6.025,7.422,8.836c0.422,0.982,0.563,2.506,0.563,4.468
	c0,7.275-0.432,17.518-0.432,27.31v28.47c0,4.62-0.402,8.259-0.826,10.643c-2.939,3.087-7.433,5.325-14.713,7.132
	c-0.286,0.726-0.552,1.832-0.552,2.538c0,0.421,0.129,1.83,0.402,1.956h2.66c2.812,0,9.263-0.426,13.46-0.426
	c6.172,0,10.366,0.426,16.115,0.426h8.412c0.554-0.126,0.698-1.835,0.698-2.388c0-0.551-0.145-1.685-0.425-2.234
	c-4.898-1.257-12.052-2.384-16.821-8.688c-0.979-2.106-1.808-12.471-1.808-17.396c0-4.465-0.15-10.618-0.15-18.899
	c0-11.076,0.15-20.737,0.287-25.639c0.843,0.982,1.825,2.237,2.521,3.069l64.746,72.745c0.689,0.682,3.214,0.832,3.915,0.832
	c0.691,0,1.12,0,1.685-0.273c0.274-0.705,1.253-2.965,1.253-6.301c0-4.068-0.137-8.287-0.137-10.371V84.231
	c0-17.521,8.273-22.414,17.939-22.844C1345.845,60.69,1345.969,59.435,1345.969,58.728"/>
<path fill="none" d="M273.875,51.232c-11.086,3.379-22.865,5.209-35.108,5.209c-43.166,0-80.869-22.682-101.208-56.441
	C117.197,33.76,79.492,56.441,36.332,56.441c-12.225,0-24-1.816-35.063-5.184c-2.892,32.955-0.787,65.477,5.763,96.752h260.899
	C274.758,115.393,276.604,82.871,273.875,51.232"/>
<path fill="#F58025" d="M73.131,288.455c18.467,23.35,40.058,44.445,64.363,62.615c24.041-17.928,45.747-38.883,64.479-62.457
	l-64.529-62.74L73.131,288.455"/>
<path fill="#F58025" d="M43.04,243.596l94.404-90.729l94.588,90.979c15.714-27.949,27.632-58.518,34.971-91.223
	c0.324-1.537,0.598-3.075,0.928-4.613H7.032C14.092,181.645,26.333,213.838,43.04,243.596"/>
<path fill="#F58025" d="M43.04,243.596c8.797,15.674,18.864,30.68,30.091,44.859l64.313-62.582l64.529,62.74
	c11.126-14.021,21.193-28.988,30.059-44.768l-94.588-90.979L43.04,243.596"/>
<path fill="#231F20" d="M43.04,243.596c8.797,15.674,18.864,30.68,30.091,44.859l64.313-62.582l64.529,62.74
	c11.126-14.021,21.193-28.988,30.059-44.768l-94.588-90.979L43.04,243.596"/>
<path fill="#231F20" d="M273.875,51.232c-11.086,3.379-22.865,5.209-35.108,5.209c-43.166,0-80.869-22.682-101.208-56.441
	C117.197,33.76,79.492,56.441,36.332,56.441c-12.225,0-24-1.816-35.063-5.184c-2.892,32.955-0.787,65.477,5.763,96.752h260.899
	C274.758,115.393,276.604,82.871,273.875,51.232"/>
<path fill="#FFFFFF" d="M201.877,87.764V76.678h-6.781v-7.818l-7.106-1.992h-0.508v-6.639c0,0-2.454,2.938-13.7,2.938
	c-10.651,0-16.898-3.449-25.367-3.449c-8.147,0-10.646,4.65-10.646,4.65v2.684h-0.275v-2.684c0,0-2.549-4.65-10.646-4.65
	c-8.473,0-14.719,3.473-25.366,3.473c-11.255,0-13.197-2.939-13.197-2.939v6.988h-0.461l-7.705,1.621v7.818h-6.8v11.086h6.8v17.941
	h-6.8v11.096h6.8v13.809c0,0,11.412,1.777,21.962,1.777c12.475,0,19.671-1.803,27.779-1.964v3.491c0,0,3.257,1.621,7.607,1.621
	c4.4,0,7.893-1.621,7.893-1.621v-3.491c8.078,0.161,15.271,1.964,27.814,1.964c10.511,0,21.922-1.777,21.922-1.777v-13.809h6.781
	v-11.096h-6.781V87.764H201.877"/>
<path fill="#FFFFFF" d="M129.631,130.439c0.018-0.008,0.229-0.017,0.229-0.017S129.658,130.432,129.631,130.439 M80.118,68.859
	v61.75l21.962,1.777l17.543-1.146c0,0,9.354-0.75,10.008-0.801c-0.426,0.027-10.008,0.801-10.008,0.801l-17.543,1.146l-21.962-1.777
	V68.859l7.705-1.621L80.118,68.859z"/>
<path fill="#231F20" d="M106.151,72.734c-0.923,0.07-1.526,0.559-1.8,1.18l-3.802,8.461c0,0-0.183,0.125-0.292,0.125
	c-0.119,0-0.257-0.125-0.348-0.393c-0.091-0.299-0.558-1.479-1.553-3.781l-1.225-2.766c-0.439-1.021-0.785-1.688-0.904-1.9
	c-0.439-0.762-0.996-0.822-1.596-0.926c-0.068-0.094-0.068-0.174-0.068-0.258c0-0.08,0-0.135,0.041-0.238h0.627
	c0.722,0,1.32,0.037,1.855,0.037c0.622,0,1.663-0.059,2.362-0.059h0.412c0.068,0.021,0.091,0.156,0.091,0.219
	c0,0.041,0,0.205-0.042,0.281c-0.461,0.041-1.512,0.018-1.512,0.665c0,0.144,0.027,0.397,0.096,0.569l2.5,5.924l2.084-4.922
	c0.256-0.549,0.283-1.039,0.283-1.293c0-0.555-0.397-0.799-1.439-0.926c-0.027-0.07-0.069-0.164-0.069-0.228
	c0-0.095,0.042-0.231,0.069-0.29h0.302c0.457,0,0.928,0.059,1.964,0.059c0.183,0,0.906-0.037,1.247-0.037h0.718
	c0.049,0.08,0.097,0.135,0.097,0.221C106.248,72.529,106.201,72.675,106.151,72.734"/>
<path fill="#231F20" d="M116.73,82.216c-3.03,0-4.675-0.084-5.091-0.084c-0.325,0-1.06-0.024-1.435-0.024
	c-0.416,0-1.39,0.07-2.454,0.07l-0.604-0.023c-0.041-0.084-0.041-0.141-0.041-0.221c0-0.078,0-0.197,0.019-0.291
	c0.808-0.055,1.389-0.195,1.525-0.322c0.166-0.195,0.28-0.621,0.334-1.529c0-0.463,0.019-0.969,0.019-1.488
	c0-0.768-0.019-1.688-0.019-2.816c0-0.773,0-1.234,0-1.559c-0.031-1.104-0.556-1.104-1.695-1.225
	c-0.022-0.109-0.045-0.196-0.045-0.268c0-0.062,0.022-0.219,0.091-0.254h0.558c0.37,0,1.361,0.018,3.263,0.018
	c1.735,0,3.422,0.039,3.793,0.039c0.233,0,0.905,0.01,1.045,0.01c0.229,0,0.32,0.027,0.32,0.229l0.136,2.275
	c-0.136,0.064-0.16,0.09-0.273,0.09c-0.092,0-0.165,0-0.234-0.025c-0.667-1.131-0.995-1.354-1.502-1.734
	c-0.184-0.143-0.467-0.221-0.883-0.258c-0.137,0-0.484-0.02-1.344-0.02c-0.689,0-1.037,0.02-1.133,0.033
	c-0.114,0-0.091-0.014-0.137,0.383c-0.019,0.242-0.046,0.693-0.046,2.014v1.295h0.347c0.439,0,0.883-0.047,1.134-0.115
	c0.394-0.104,0.809-0.395,1.019-0.719c0.097-0.115,0.184-0.658,0.229-0.832c0.074-0.047,0.188-0.07,0.33-0.07
	c0.095,0,0.182,0.023,0.25,0.08c-0.022,0.406-0.091,1.17-0.091,2.143c0,0.488,0.046,1.551,0.046,1.988
	c-0.092,0.07-0.137,0.087-0.28,0.087c-0.068,0-0.201-0.017-0.278-0.038c-0.087-0.857-0.229-1.438-0.95-1.736
	c-0.389-0.16-0.713-0.207-1.105-0.207c-0.207,0-0.467,0.024-0.677,0.047v2.611c0,0.604,0.054,0.973,0.145,1.184
	c0.065,0.174,0.297,0.521,0.6,0.557c0.137,0.02,0.389,0.066,0.923,0.066h1.435c0.37,0,0.904-0.047,1.091-0.16
	c0.348-0.232,1.272-1.227,1.596-2.143c0.14-0.056,0.21-0.056,0.306-0.056c0.091,0,0.179,0.024,0.292,0.069v2.648
	C117.26,82.178,117.099,82.216,116.73,82.216"/>
<path fill="#231F20" d="M128.767,75.365c-0.068,0-0.166-0.027-0.274-0.037c-0.237-0.615-0.512-1.182-0.744-1.48
	c-0.416-0.51-0.805-0.85-1.855-0.973c-0.229-0.014-0.786-0.014-0.969-0.014l-0.027,4.406c0,0.699,0,1.518,0.027,3.035
	c0.023,1.17,0.529,1.17,1.736,1.318c0.072,0.129,0.096,0.209,0.096,0.289s-0.024,0.16-0.078,0.244h-0.437
	c-0.691,0-2.081-0.047-2.519-0.047c-0.302,0-1.827,0.07-2.55,0.07c-0.064-0.107-0.087-0.107-0.087-0.268
	c0-0.08,0.022-0.16,0.069-0.268c1.594-0.115,1.759-0.416,1.8-0.92c0.05-0.326,0.05-1.648,0.05-2.99v-3.654
	c0-0.455-0.027-0.914-0.091-1.217c-0.306,0-1.281,0-1.554,0.107c-0.809,0.299-1.389,0.982-2.011,2.195
	c-0.073,0.035-0.188,0.035-0.256,0.035c-0.091,0-0.187-0.035-0.233-0.107v-2.562c0-0.236,0.023-0.291,0.301-0.291
	c0.229,0,0.599,0.01,1.088,0.01c0.347,0,1.805,0.027,3.633,0.027c2.408,0,4.194-0.059,4.656-0.059c0.229,0,0.388,0,0.479,0.076
	c0.024,0.049,0,0.236,0,0.371v2.57C128.977,75.328,128.864,75.365,128.767,75.365"/>
<path fill="#231F20" d="M105.672,91.031c-0.096,0-0.16-0.024-0.306-0.039c-0.21-0.61-0.48-1.178-0.741-1.479
	c-0.393-0.507-0.805-0.848-1.851-0.973c-0.228-0.01-0.785-0.01-0.968-0.01l-0.023,4.408c0,0.692,0,1.518,0.023,3.031
	c0.022,1.17,0.558,1.17,1.755,1.316c0.073,0.131,0.073,0.211,0.073,0.295c0,0.08,0,0.158-0.05,0.238h-0.434
	c-0.722,0-2.106-0.041-2.527-0.041c-0.302,0-1.827,0.066-2.567,0.066c-0.047-0.105-0.074-0.105-0.074-0.264
	c0-0.084,0.027-0.164,0.051-0.271c1.599-0.111,1.759-0.412,1.828-0.926c0.022-0.32,0.022-1.639,0.022-2.982v-3.66
	c0-0.447,0-0.916-0.064-1.211c-0.306,0-1.303,0-1.582,0.104c-0.808,0.299-1.361,0.982-1.987,2.201
	c-0.091,0.031-0.21,0.031-0.274,0.031c-0.096,0-0.164-0.031-0.232-0.104v-2.568c0-0.234,0.045-0.289,0.297-0.289
	c0.26,0,0.604,0.014,1.092,0.014c0.37,0,1.823,0.018,3.66,0.018c2.381,0,4.186-0.056,4.625-0.056c0.256,0,0.417,0,0.484,0.079
	c0.05,0.053,0.023,0.234,0.023,0.375v2.562C105.859,90.992,105.764,91.031,105.672,91.031"/>
<path fill="#231F20" d="M117.099,97.882c-3.005,0-4.673-0.084-5.066-0.084c-0.32,0-1.065-0.019-1.453-0.019
	c-0.398,0-1.39,0.066-2.436,0.066l-0.6-0.025c-0.05-0.08-0.072-0.135-0.072-0.215c0-0.084,0-0.197,0.05-0.295
	c0.809-0.051,1.384-0.197,1.503-0.318c0.188-0.194,0.274-0.627,0.32-1.531c0.027-0.463,0.051-0.969,0.051-1.49
	c0-0.764-0.023-1.691-0.023-2.812c0-0.776-0.027-1.242-0.027-1.564c-0.019-1.098-0.53-1.098-1.664-1.221
	c-0.041-0.107-0.068-0.2-0.068-0.266c0-0.066,0.046-0.226,0.115-0.264h0.534c0.387,0,1.362,0.027,3.263,0.027
	c1.759,0,3.423,0.035,3.815,0.035c0.21,0,0.906,0.014,1.019,0.014c0.262,0,0.348,0.018,0.348,0.229l0.116,2.27
	c-0.116,0.07-0.161,0.089-0.28,0.089c-0.068,0-0.133,0-0.229-0.019c-0.649-1.139-0.974-1.356-1.499-1.742
	c-0.188-0.135-0.443-0.215-0.858-0.25c-0.143,0-0.484-0.025-1.367-0.025c-0.672,0-1.041,0.025-1.115,0.039
	c-0.132,0-0.109-0.014-0.16,0.383c0,0.239-0.027,0.693-0.027,2.006v1.299h0.33c0.461,0,0.905-0.043,1.133-0.115
	c0.416-0.102,0.809-0.396,1.038-0.715c0.079-0.115,0.188-0.664,0.211-0.838c0.096-0.041,0.209-0.063,0.325-0.063
	c0.119,0,0.209,0.022,0.278,0.079c-0.023,0.406-0.11,1.171-0.11,2.139c0,0.491,0.064,1.553,0.064,1.992
	c-0.113,0.07-0.141,0.081-0.273,0.081c-0.097,0-0.211-0.011-0.307-0.032c-0.092-0.857-0.206-1.438-0.945-1.736
	c-0.399-0.166-0.719-0.211-1.088-0.211c-0.206,0-0.467,0.023-0.672,0.045v2.617c0,0.598,0.045,0.973,0.115,1.184
	c0.091,0.175,0.329,0.518,0.602,0.553c0.143,0.023,0.416,0.068,0.928,0.068h1.458c0.37,0,0.877-0.045,1.065-0.158
	c0.369-0.234,1.293-1.23,1.621-2.143c0.115-0.062,0.201-0.062,0.298-0.062c0.068,0,0.183,0.022,0.274,0.071v2.652
	C117.631,97.846,117.471,97.882,117.099,97.882"/>
<path fill="#231F20" d="M124.138,98.102c-0.837,0-1.759-0.322-2.317-0.604c-0.091-0.047-0.273-0.08-0.365-0.08
	c-0.12,0-0.42,0.15-0.74,0.38c-0.233,0-0.516-0.112-0.581-0.3c0-0.211,0.188-0.834,0.188-1.227c0-0.234-0.074-1.352-0.096-1.619
	c0.096-0.141,0.278-0.209,0.443-0.209c0.063,0,0.113,0,0.154,0.014c0.21,0.406,0.631,1.486,0.927,1.928
	c0.627,0.729,1.549,1.057,2.221,1.057c0.74,0,1.299-0.154,1.626-0.488c0.458-0.438,0.553-0.729,0.553-1.211
	c0-0.358-0.072-0.664-0.278-0.901c-0.255-0.329-0.461-0.47-1.042-0.745c-0.439-0.211-1.988-0.589-2.545-0.889
	c-0.695-0.322-1.038-0.604-1.389-0.986c-0.417-0.535-0.576-1.25-0.576-1.818c0-1.603,1.269-2.799,3.075-2.799
	c0.67,0,1.595,0.059,2.385,0.68c0.165-0.176,0.369-0.377,0.575-0.561c0.302,0,0.508,0.159,0.531,0.262
	c-0.023,0.244-0.157,0.869-0.157,1.365c0,0.268,0.157,1.32,0.157,1.486c-0.115,0.041-0.229,0.135-0.393,0.135
	c-0.047,0-0.11-0.02-0.184-0.041c-0.273-0.492-0.53-1.303-0.832-1.742c-0.465-0.623-1.114-0.852-1.992-0.852
	c-0.992,0-1.8,0.621-1.8,1.479c0,0.834,0.667,1.227,1.225,1.483c0.411,0.159,0.922,0.36,1.502,0.534
	c0.745,0.25,1.293,0.447,1.596,0.611c1.156,0.586,1.64,1.441,1.64,2.635C127.652,96.918,125.989,98.102,124.138,98.102"/>
<path fill="#231F20" d="M109.693,113.572c-3.026,0-4.676-0.08-5.091-0.08c-0.325,0-1.061-0.023-1.431-0.023
	c-0.416,0-1.389,0.064-2.459,0.064l-0.597-0.02c-0.046-0.08-0.046-0.139-0.046-0.219c0-0.084,0-0.201,0.019-0.291
	c0.809-0.057,1.394-0.195,1.53-0.326c0.165-0.195,0.274-0.623,0.33-1.525c0-0.465,0.018-0.975,0.018-1.492
	c0-0.764-0.018-1.691-0.018-2.809c0-0.781,0-1.24,0-1.566c-0.028-1.096-0.557-1.096-1.691-1.229c-0.023-0.102-0.05-0.195-0.05-0.266
	c0-0.057,0.027-0.215,0.091-0.252h0.558c0.37,0,1.366,0.023,3.263,0.023c1.741,0,3.427,0.031,3.797,0.031
	c0.229,0,0.9,0.016,1.037,0.016c0.238,0,0.325,0.024,0.325,0.232l0.142,2.266c-0.142,0.07-0.165,0.094-0.278,0.094
	c-0.092,0-0.157,0-0.234-0.023c-0.666-1.133-0.991-1.357-1.503-1.736c-0.183-0.139-0.466-0.219-0.877-0.252
	c-0.142,0-0.484-0.025-1.343-0.025c-0.69,0-1.042,0.025-1.134,0.035c-0.114,0-0.091-0.01-0.137,0.379
	c-0.028,0.242-0.05,0.693-0.05,2.016v1.297h0.347c0.439,0,0.883-0.047,1.133-0.117c0.394-0.107,0.809-0.395,1.019-0.721
	c0.096-0.111,0.188-0.656,0.229-0.826c0.078-0.049,0.188-0.072,0.329-0.072c0.091,0,0.188,0.023,0.251,0.086
	c-0.022,0.4-0.086,1.164-0.086,2.139c0,0.486,0.042,1.547,0.042,1.986c-0.092,0.072-0.136,0.08-0.274,0.08
	c-0.073,0-0.206-0.008-0.278-0.033c-0.092-0.855-0.234-1.436-0.952-1.734c-0.393-0.16-0.717-0.212-1.106-0.212
	c-0.21,0-0.466,0.024-0.675,0.052v2.616c0,0.599,0.044,0.968,0.141,1.175c0.068,0.174,0.297,0.518,0.6,0.557
	c0.141,0.023,0.396,0.068,0.932,0.068h1.426c0.375,0,0.904-0.045,1.092-0.162c0.343-0.23,1.27-1.227,1.595-2.138
	c0.146-0.058,0.208-0.058,0.301-0.058c0.096,0,0.188,0.023,0.301,0.066v2.652C110.227,113.533,110.062,113.572,109.693,113.572"/>
<path fill="#231F20" d="M124.275,104.057c-1.016,0.039-1.896,0.59-1.896,2.211l-0.023,5.152c0,0.195,0.095,1.656,0.095,2.207
	c-0.164,0.102-0.324,0.168-0.416,0.168c-0.054,0-0.14-0.066-0.255-0.168l-7.061-7.588l0.063,1.549l0.033,2.801
	c0,0.219,0.041,0.745,0.086,1.133c0.047,0.627,0.229,0.836,0.512,1.069c0.343,0.298,0.924,0.392,1.339,0.437
	c0.049,0.08,0.07,0.16,0.07,0.236c0,0.031-0.021,0.156-0.092,0.25h-0.764c-0.648,0-1.151-0.021-1.828-0.021
	c-0.438,0-1.064,0.041-1.508,0.041h-0.32c-0.022-0.064-0.022-0.176-0.022-0.229c0-0.041,0-0.135,0.044-0.252
	c0.508-0.049,1.293-0.281,1.6-0.695c0.119-0.256,0.161-0.719,0.161-1.205v-3.586c0-0.58-0.023-0.869-0.042-1.433
	c-0.027-0.466-0.119-0.813-0.352-1.089c-0.019-0.061-0.261-0.305-0.49-0.523c-0.232-0.197-0.785-0.357-1.133-0.496
	c-0.045-0.094-0.072-0.205-0.072-0.232c0-0.059,0.027-0.184,0.072-0.254h0.256c0.207,0,1.293,0.055,2.135,0.055h0.48
	c0.095,0.04,0.25,0.141,0.301,0.199l5.232,5.717c0.397,0.439,0.9,1.016,1.184,1.389v-4.123c0-0.549-0.033-0.943-0.056-1.146
	c-0.041-0.424-0.131-0.785-0.296-1.076c-0.159-0.25-1.134-0.389-1.646-0.496c-0.044-0.102-0.044-0.215-0.044-0.299
	c0-0.055,0-0.124,0.027-0.219h0.298c0.487,0,1.275,0.07,1.759,0.07c1.206,0,1.576-0.033,2.175-0.033h0.394
	c0.045,0.08,0.045,0.182,0.045,0.244C124.32,103.861,124.32,103.977,124.275,104.057"/>
<path fill="#231F20" d="M157.258,72.703c-0.996,0.031-1.9,0.59-1.9,2.207v5.148c0,0.199,0.068,1.657,0.068,2.213
	c-0.137,0.104-0.32,0.158-0.393,0.158c-0.073,0-0.136-0.055-0.274-0.158l-7.06-7.59l0.096,1.549l0.022,2.803
	c0,0.215,0.041,0.734,0.063,1.131c0.069,0.625,0.256,0.83,0.512,1.062c0.371,0.301,0.951,0.395,1.343,0.441
	c0.046,0.082,0.064,0.162,0.064,0.229c0,0.037-0.018,0.164-0.064,0.258h-0.785c-0.63,0-1.133-0.022-1.833-0.022
	c-0.438,0-1.042,0.046-1.48,0.046h-0.324c-0.022-0.07-0.046-0.188-0.046-0.23c0-0.051,0-0.139,0.068-0.256
	c0.489-0.049,1.276-0.277,1.573-0.697c0.142-0.254,0.165-0.713,0.165-1.203v-3.584c0-0.58,0-0.869-0.023-1.436
	c-0.018-0.461-0.142-0.811-0.347-1.086c-0.046-0.062-0.255-0.304-0.511-0.521c-0.211-0.195-0.787-0.359-1.129-0.5
	c-0.023-0.094-0.051-0.205-0.051-0.229c0-0.062,0.027-0.188,0.051-0.254h0.273c0.184,0,1.276,0.057,2.108,0.057h0.484
	c0.091,0.037,0.26,0.135,0.324,0.197l5.232,5.715c0.393,0.443,0.9,1.018,1.178,1.389v-4.116c0-0.56-0.045-0.952-0.068-1.147
	c-0.022-0.428-0.137-0.787-0.301-1.076c-0.161-0.26-1.134-0.395-1.619-0.496c-0.045-0.107-0.073-0.227-0.073-0.305
	c0-0.057,0-0.123,0.051-0.217h0.297c0.489,0,1.28,0.066,1.76,0.066c1.184,0,1.572-0.031,2.175-0.031h0.374
	c0.041,0.076,0.074,0.182,0.074,0.242C157.332,72.507,157.299,72.623,157.258,72.703"/>
<path fill="#231F20" d="M166.027,73.646c-0.484-0.654-1.088-1.051-1.993-1.051c-0.827,0-1.361,0.373-1.85,1.051
	c-0.604,0.768-0.923,1.98-0.923,3.529c0,1.529,0.319,2.738,0.877,3.51c0.511,0.729,1.088,1.1,1.965,1.1
	c1.069,0,1.691-0.5,2.176-1.367c0.443-0.762,0.652-1.824,0.652-3.205C166.932,75.561,166.604,74.404,166.027,73.646 M167.65,80.951
	c-0.968,0.959-2.312,1.504-3.564,1.504c-1.184,0-2.551-0.508-3.5-1.438c-1.037-0.992-1.5-2.336-1.5-3.805
	c0-1.424,0.462-2.764,1.5-3.781c1.115-1.059,2.317-1.496,3.519-1.496c0.882,0,1.691,0.219,2.642,0.739
	c1.548,0.985,2.449,2.628,2.449,4.435C169.194,78.518,168.641,79.932,167.65,80.951z"/>
<path fill="#231F20" d="M181.857,72.734c-0.9,0.07-1.5,0.559-1.783,1.18l-3.792,8.461c0,0-0.188,0.125-0.301,0.125
	c-0.115,0-0.28-0.125-0.352-0.393c-0.088-0.299-0.549-1.479-1.568-3.781l-1.206-2.766c-0.439-1.021-0.787-1.688-0.9-1.9
	c-0.465-0.762-1.001-0.822-1.599-0.926c-0.092-0.094-0.092-0.174-0.092-0.258c0-0.08,0-0.135,0.064-0.238h0.625
	c0.699,0,1.299,0.037,1.833,0.037c0.626,0,1.663-0.059,2.381-0.059h0.397c0.096,0.021,0.114,0.156,0.114,0.219
	c0,0.041,0,0.205-0.05,0.281c-0.484,0.041-1.5,0.018-1.5,0.665c0,0.144,0,0.397,0.092,0.569l2.477,5.924l2.107-4.922
	c0.232-0.549,0.251-1.039,0.251-1.293c0-0.555-0.394-0.799-1.435-0.926c-0.019-0.07-0.046-0.164-0.046-0.228
	c0-0.095,0.028-0.231,0.046-0.29h0.301c0.467,0,0.927,0.059,1.992,0.059c0.16,0,0.9-0.037,1.251-0.037h0.713
	c0.051,0.08,0.074,0.135,0.074,0.221C181.953,72.529,181.93,72.675,181.857,72.734"/>
<path fill="#231F20" d="M153.991,91.031c-0.091,0-0.16-0.024-0.297-0.039c-0.209-0.61-0.488-1.178-0.745-1.479
	c-0.392-0.507-0.808-0.848-1.845-0.973c-0.238-0.01-0.788-0.01-0.974-0.01l-0.027,4.408c0,0.692,0,1.518,0.027,3.031
	c0.019,1.17,0.548,1.17,1.759,1.316c0.068,0.131,0.068,0.211,0.068,0.295c0,0.08,0,0.158-0.045,0.238h-0.439
	c-0.717,0-2.111-0.041-2.522-0.041c-0.306,0-1.833,0.066-2.573,0.066c-0.05-0.105-0.068-0.105-0.068-0.264
	c0-0.084,0.019-0.164,0.046-0.271c1.595-0.111,1.754-0.412,1.832-0.926c0.019-0.32,0.019-1.639,0.019-2.982v-3.66
	c0-0.447,0-0.916-0.069-1.211c-0.301,0-1.293,0-1.571,0.104c-0.814,0.299-1.372,0.982-1.992,2.201
	c-0.092,0.031-0.207,0.031-0.279,0.031c-0.096,0-0.161-0.031-0.229-0.104v-2.568c0-0.234,0.045-0.289,0.301-0.289
	c0.252,0,0.599,0.014,1.088,0.014c0.37,0,1.828,0.018,3.65,0.018c2.391,0,4.191-0.056,4.63-0.056c0.255,0,0.415,0,0.493,0.079
	c0.041,0.053,0.019,0.234,0.019,0.375v2.562C154.174,90.992,154.082,91.031,153.991,91.031"/>
<path fill="#231F20" d="M159.662,89.947h-0.023c-0.21,0.377-0.58,1.242-0.713,1.604c-0.535,1.295-0.722,1.736-0.809,1.918h2.98
	C160.868,92.885,160.101,91.041,159.662,89.947 M165.977,97.873h-0.785c-0.508,0-1.088-0.075-1.692-0.075
	c-0.945,0-2.152,0.075-2.609,0.075c-0.045-0.053-0.077-0.146-0.077-0.26c0-0.07,0.032-0.162,0.055-0.231
	c0.974-0.044,1.366-0.206,1.366-0.599c0-0.16,0-0.488-0.305-1.299c-0.298-0.728-0.462-1.066-0.53-1.248
	c-0.051-0.074-0.068-0.103-0.28-0.103h-3.148c-0.206,0.237-0.461,0.944-0.74,1.903c-0.063,0.258-0.063,0.492-0.063,0.586
	c0,0.316,0.297,0.688,1.407,0.715c0.068,0.113,0.068,0.205,0.068,0.275c0,0.072,0,0.152-0.022,0.232h-0.278
	c-0.736,0-0.946-0.048-1.732-0.048c-0.512,0-1.741,0.048-2.152,0.048c-0.024-0.08-0.045-0.119-0.045-0.209
	c0-0.068,0-0.139,0.045-0.255c0.599-0.122,1.157-0.296,1.436-0.731c0.159-0.238,0.693-1.166,1.274-2.596
	c0.552-1.334,1.224-3.023,1.526-3.73c0.416-0.871,0.553-1.154,0.694-1.461c0.206-0.438,0.438-0.879,0.53-1.037
	c0.092-0.117,0.297-0.188,0.393-0.188c0.16,0,0.371,0.107,0.439,0.205c0.096,0.188,0.21,0.385,0.232,0.5
	c0.577,1.377,1.042,2.607,1.76,4.314c0.37,0.871,0.557,1.414,0.945,2.316c0.283,0.566,0.439,0.996,0.718,1.518
	c0.374,0.752,0.973,0.768,1.571,0.916c0.028,0.066,0.091,0.135,0.091,0.229C166.068,97.727,166.027,97.779,165.977,97.873z"/>
<path fill="#231F20" d="M181.441,97.873l-4.054-0.053h-1.106c-0.046-0.08-0.073-0.207-0.073-0.252c0-0.127,0.027-0.15,0.091-0.258
	c0.209-0.023,0.744,0,0.997-0.09c0.415-0.188,0.58-0.589,0.58-1.191v-5.846c0,0,0-1.052,0-1.357h-0.023l-2.129,4.67
	c-0.234,0.506-0.508,1.062-0.741,1.621c-0.484,1.086-0.744,1.836-0.877,2.265c-0.074,0.187-0.233,0.187-0.324,0.187
	c-0.142,0-0.233-0.047-0.306-0.281c-0.276-0.598-0.462-0.992-0.549-1.25l-3.336-7.332h-0.068v1.877l0.068,4.684
	c0,1.424,0.736,2.092,1.873,2.092c0.047,0.084,0.096,0.211,0.096,0.248c0,0.057-0.028,0.16-0.072,0.24
	c-0.069,0-0.297,0.027-0.508,0.027c-0.137,0-0.881-0.075-1.941-0.075c-0.307,0-0.932,0.022-1.417,0.022h-0.671
	c-0.019-0.08-0.041-0.158-0.041-0.238c0-0.039,0.021-0.141,0.041-0.225c0.279-0.07,1.248-0.301,1.458-0.506
	c0.21-0.201,0.397-0.627,0.397-1.609v-5.139c-0.023-0.822-0.118-1.131-0.512-1.412c-0.159-0.127-0.786-0.195-1.32-0.267
	c-0.042-0.089-0.063-0.196-0.063-0.276c0-0.066,0.021-0.164,0.063-0.267c0.397,0,1.092,0.038,1.782,0.038h2.436
	c0.091,0.064,0.133,0.111,0.205,0.253l2.984,6.771l0.535-1.357c0.461-1.086,1.133-2.719,2.079-4.492
	c0.206-0.389,0.467-0.889,0.608-1.156l3.792-0.056c0.047,0.079,0.091,0.149,0.091,0.243c0,0.104-0.022,0.158-0.068,0.252
	c-0.419,0.074-1.133,0.074-1.484,0.65c-0.109,0.188-0.184,0.371-0.184,1.193v4.82c0,1.857,0.462,2.045,0.672,2.18
	c0.119,0.066,0.699,0.137,1.02,0.137c0.044,0.094,0.072,0.164,0.072,0.256C181.514,97.766,181.464,97.779,181.441,97.873"/>
<path fill="#231F20" d="M153.763,106.721c-0.091,0-0.165-0.023-0.302-0.033c-0.205-0.617-0.484-1.18-0.74-1.482
	c-0.393-0.51-0.809-0.844-1.855-0.975c-0.229-0.008-0.786-0.008-0.973-0.008l-0.019,4.406c0,0.697,0,1.521,0.019,3.037
	c0.027,1.16,0.556,1.16,1.764,1.316c0.068,0.125,0.068,0.205,0.068,0.285c0,0.09,0,0.17-0.046,0.246h-0.443
	c-0.713,0-2.103-0.045-2.518-0.045c-0.302,0-1.833,0.064-2.573,0.064c-0.045-0.096-0.068-0.096-0.068-0.266
	c0-0.08,0.023-0.16,0.046-0.264c1.6-0.115,1.759-0.413,1.828-0.924c0.027-0.323,0.027-1.643,0.027-2.986v-3.656
	c0-0.453,0-0.916-0.073-1.215c-0.297,0-1.293,0-1.577,0.102c-0.809,0.305-1.362,0.988-1.983,2.201
	c-0.096,0.031-0.21,0.031-0.284,0.031c-0.091,0-0.154-0.031-0.229-0.102v-2.568c0-0.23,0.05-0.293,0.302-0.293
	c0.251,0,0.598,0.016,1.087,0.016c0.37,0,1.828,0.024,3.655,0.024c2.381,0,4.191-0.058,4.63-0.058c0.256,0,0.415,0,0.484,0.08
	c0.05,0.047,0.028,0.23,0.028,0.369v2.568C153.945,106.688,153.854,106.721,153.763,106.721"/>
<path fill="#231F20" d="M166.188,104.096c-0.905,0.068-1.504,0.551-1.782,1.176l-3.793,8.457c0,0-0.187,0.133-0.302,0.133
	c-0.119,0-0.278-0.133-0.348-0.393c-0.091-0.299-0.556-1.482-1.572-3.785l-1.206-2.766c-0.439-1.021-0.786-1.691-0.904-1.9
	c-0.457-0.764-0.992-0.818-1.596-0.922c-0.095-0.094-0.095-0.173-0.095-0.254c0-0.084,0-0.139,0.072-0.248h0.627
	c0.694,0,1.296,0.04,1.823,0.04c0.63,0,1.668-0.058,2.389-0.058h0.393c0.091,0.018,0.115,0.158,0.115,0.217
	c0,0.049,0,0.209-0.047,0.277c-0.484,0.045-1.503,0.025-1.503,0.67c0,0.144,0,0.394,0.092,0.572l2.472,5.92l2.107-4.916
	c0.233-0.555,0.26-1.045,0.26-1.299c0-0.552-0.393-0.795-1.435-0.922c-0.027-0.07-0.049-0.164-0.049-0.234
	c0-0.094,0.022-0.228,0.049-0.285h0.297c0.462,0,0.932,0.058,1.992,0.058c0.161,0,0.905-0.04,1.247-0.04h0.723
	c0.041,0.081,0.065,0.141,0.065,0.227C166.28,103.887,166.256,104.035,166.188,104.096"/>
<path fill="#231F20" d="M181.646,113.559l-4.025-0.045h-1.134c-0.041-0.076-0.041-0.209-0.041-0.25c0-0.132,0-0.156,0.063-0.26
	c0.229-0.021,0.745,0,1.016-0.094c0.396-0.182,0.557-0.588,0.557-1.188v-5.844c0,0,0.027-1.059,0.027-1.357h-0.05l-2.106,4.66
	c-0.252,0.516-0.507,1.068-0.759,1.623c-0.465,1.088-0.745,1.84-0.878,2.271c-0.054,0.188-0.209,0.188-0.327,0.188
	c-0.116,0-0.207-0.053-0.304-0.281c-0.25-0.604-0.437-0.996-0.528-1.25l-3.36-7.336h-0.068v1.871l0.068,4.688
	c0.027,1.424,0.74,2.098,1.896,2.098c0.051,0.079,0.074,0.211,0.074,0.242c0,0.062,0,0.16-0.046,0.238
	c-0.091,0-0.301,0.025-0.529,0.025c-0.143,0-0.864-0.066-1.924-0.066c-0.324,0-0.951,0.021-1.417,0.021h-0.667
	c-0.045-0.076-0.064-0.156-0.064-0.246c0-0.029,0.019-0.136,0.064-0.215c0.256-0.07,1.252-0.307,1.458-0.512
	c0.187-0.197,0.366-0.621,0.366-1.604l0.032-2.367l-0.032-2.771c-0.018-0.823-0.087-1.138-0.503-1.416
	c-0.164-0.13-0.786-0.194-1.297-0.269c-0.069-0.09-0.088-0.192-0.088-0.273c0-0.074,0.019-0.167,0.088-0.266
	c0.369,0,1.086,0.033,1.759,0.033h2.454c0.069,0.065,0.142,0.117,0.183,0.252l2.988,6.772l0.554-1.358
	c0.438-1.084,1.137-2.719,2.087-4.486c0.183-0.393,0.461-0.889,0.599-1.155l3.774-0.058c0.041,0.08,0.114,0.15,0.114,0.244
	c0,0.103-0.05,0.156-0.096,0.25c-0.393,0.066-1.109,0.066-1.454,0.646c-0.118,0.188-0.208,0.371-0.208,1.193v4.826
	c0,1.854,0.461,2.035,0.689,2.174c0.096,0.072,0.676,0.143,0.997,0.143c0.073,0.092,0.096,0.158,0.096,0.252
	C181.742,113.455,181.701,113.469,181.646,113.559"/>
<path fill="#231F20" d="M193.833,129.494c-2.902,0.416-12.133,1.621-20.742,1.621c-12.319,0-27.514-1.934-27.66-1.942l-1.334-0.188
	c0,0,0,3.09,0,4.047c-1.165,0.432-3.725,1.227-6.713,1.227c-2.923,0-5.318-0.785-6.434-1.21c0-0.946,0-4.063,0-4.063l-1.33,0.188
	c-0.146,0.009-15.363,1.942-27.62,1.942c-8.636,0-17.88-1.205-20.782-1.621v-59.76c1.087-0.215,4.313-0.902,5.886-1.232v54.143
	c0.58,1.237,3.057,4.121,14.376,4.121l14.325-1.889l10.949-1.562c7.307,0,9.602,3.889,9.701,4.051l0.338-0.188h1.691l0.33,0.174
	c0.086-0.158,2.349-4.037,9.6-4.037l10.936,1.553l14.431,1.898c11.469,0,14.325-3.021,14.614-3.357l0.219-55.184
	c1.503,0.412,4.258,1.18,5.218,1.455V129.494 M89.473,62.412c1.892,0.951,5.296,1.955,12.009,1.955l14.431-1.908l10.936-1.557
	c7.184,0,9.477,3.822,9.601,4.031v59.078c-1.75-1.461-4.689-3.057-9.693-3.057l-11.461,1.609l-13.813,1.84
	c-10.117,0-12.224-2.443-12.242-2.467C89.24,121.938,89.44,66.451,89.473,62.412z M138.815,64.934
	c0.086-0.158,2.349-4.031,9.6-4.031l10.936,1.547l14.431,1.896c6.987,0,10.551-1.1,12.52-2.045v60.236
	c-0.15-0.295-2.988,1.867-12.52,1.867l-13.929-1.854l-11.438-1.596c-4.967,0-7.873,1.582-9.6,3.033V64.934z M188.629,65.758
	l0.032-8.498l-2.062,2.182c-0.017,0.024-2.541,2.541-12.817,2.541l-13.929-1.848l-11.438-1.598c-6.283,0-9.417,2.57-10.789,4.119
	c-1.375-1.549-4.537-4.119-10.779-4.119l-11.451,1.605l-13.915,1.867c-10.117,0-12.224-2.443-12.242-2.465l-2.099-2.57l-0.036,3.275
	v5.832l-8.248,1.736v63.725l0.996,0.146c0.113,0.027,11.615,1.811,22.148,1.811c10.378,0,22.703-1.371,26.591-1.83
	c0,1.016,0,2.893,0,2.893l0.645,0.334c0.151,0.069,3.569,1.754,8.147,1.754c4.606,0,8.239-1.672,8.391-1.74l0.686-0.326
	c0,0,0-1.898,0-2.914c3.888,0.459,16.199,1.83,26.631,1.83c10.488,0,21.989-1.783,22.108-1.811l0.997-0.146v-63.67L188.629,65.758z"
	/>
<g>
	<path stroke="#FFFFFF" stroke-width="4" stroke-miterlimit="10" d="M578.905,214.069c9.065,3.847,15.723,10.101,20.305,18.429
		c-4.447,6.415-8.657,13.069-13.223,19.366C583.689,239.203,581.223,226.71,578.905,214.069z"/>
	<path stroke="#FFFFFF" stroke-width="4" stroke-miterlimit="10" d="M520.804,253.655c0-0.824,0-1.648,0-2.473
		c0.241-3.941,0.772-7.59,1.792-10.749c7.812-1.46,15.516-3.027,23.292-4.523c-7.262,10.911-14.45,21.896-21.756,32.762
		C522.28,264.41,521.104,259.471,520.804,253.655z"/>
	<path stroke="#FFFFFF" stroke-width="4" stroke-miterlimit="10" d="M604.329,251.183c0,0.824,0,1.648,0,2.473
		c-0.241,3.94-0.771,7.591-1.792,10.75c-7.918,1.439-15.694,3.02-23.547,4.523c7.339-10.836,14.744-22.057,22.097-32.592
		C602.876,240.577,604.041,245.443,604.329,251.183z"/>
	<path stroke="#FFFFFF" stroke-width="4" stroke-miterlimit="10" d="M539.403,252.29c2.422,12.821,4.77,25.719,7.082,38.649
		c-9.063-3.876-15.787-10.094-20.477-18.343C530.38,265.732,534.928,259.051,539.403,252.29z"/>
	<path stroke="#FFFFFF" stroke-width="4" stroke-miterlimit="10" d="M601.003,268.33c0.056,0,0.113,0,0.17,0
		c-3.952,9.302-10.353,16.153-18.856,20.902c-5.827-3.804-11.724-7.8-17.49-11.773c-0.786-0.54-1.492-1.062-2.304-1.706
		C575.43,273.359,588.195,270.823,601.003,268.33z"/>
	<path stroke="#FFFFFF" stroke-width="4" stroke-miterlimit="10" d="M561.33,210.657c0.825,0,1.65,0,2.474,0
		c4.072,0.278,7.944,0.757,11.092,1.961c1.493,7.55,2.849,15.238,4.351,22.78c-10.655-7.291-21.46-14.429-31.995-21.841
		C551.346,211.99,555.935,210.921,561.33,210.657z"/>
	<path stroke="#FFFFFF" stroke-width="4" stroke-miterlimit="10" d="M561.33,294.182c-4.006-0.26-7.768-0.765-10.92-1.876
		c-1.326-7.721-2.762-15.327-4.181-22.951c10.713,7.231,21.539,14.351,32.08,21.757c-4.2,1.657-8.915,2.799-14.504,3.07
		C562.98,294.182,562.155,294.182,561.33,294.182z"/>
	<path stroke="#FFFFFF" stroke-width="4" stroke-miterlimit="10" d="M532.349,223.512c0.587-0.582,1.174-1.161,1.761-1.74
		c2.971-2.597,5.939-4.785,8.904-6.281c6.53,4.53,13.06,8.911,19.589,13.388c-12.864,2.506-25.731,5.116-38.595,7.555
		C525.737,232.119,528.424,227.812,532.349,223.512z"/>
</g>
</svg>
