<svg width="16" height="16" viewBox="0 0 16 16" fill="none" xmlns="http://www.w3.org/2000/svg">
<path d="M5.77691 14.6671C6.36628 14.6671 6.93151 14.433 7.34826 14.0162C7.76501 13.5995 7.99913 13.0342 7.99913 12.4449V10.2227H5.77691C5.18754 10.2227 4.62231 10.4568 4.20556 10.8735C3.78881 11.2903 3.55469 11.8555 3.55469 12.4449C3.55469 13.0342 3.78881 13.5995 4.20556 14.0162C4.62231 14.433 5.18754 14.6671 5.77691 14.6671Z" fill="#0ACF83"/>
<path d="M3.55469 8.00152C3.55469 7.41215 3.78881 6.84692 4.20556 6.43017C4.62231 6.01342 5.18754 5.7793 5.77691 5.7793H7.99913V10.2237H5.77691C5.18754 10.2237 4.62231 9.98961 4.20556 9.57287C3.78881 9.15612 3.55469 8.59089 3.55469 8.00152Z" fill="#A259FF"/>
<path d="M3.55469 3.55621C3.55469 2.96714 3.78858 2.40217 4.20495 1.98547C4.62132 1.56877 5.1861 1.33444 5.77517 1.33398H7.9974V5.77843H5.77691C5.18754 5.77843 4.62231 5.5443 4.20556 5.12755C3.78881 4.71081 3.55469 4.14558 3.55469 3.55621Z" fill="#F24E1E"/>
<path d="M8 1.33398H10.2222C10.8116 1.33398 11.3768 1.56811 11.7936 1.98486C12.2103 2.40161 12.4444 2.96684 12.4444 3.55621C12.4444 4.14558 12.2103 4.71081 11.7936 5.12755C11.3768 5.5443 10.8116 5.77843 10.2222 5.77843H8V1.33398Z" fill="#FF7262"/>
<path d="M12.4444 8.00152C12.4444 8.59089 12.2103 9.15612 11.7936 9.57287C11.3768 9.98961 10.8116 10.2237 10.2222 10.2237C9.63285 10.2237 9.06762 9.98961 8.65087 9.57287C8.23413 9.15612 8 8.59089 8 8.00152C8 7.41215 8.23413 6.84692 8.65087 6.43017C9.06762 6.01342 9.63285 5.7793 10.2222 5.7793C10.8116 5.7793 11.3768 6.01342 11.7936 6.43017C12.2103 6.84692 12.4444 7.41215 12.4444 8.00152Z" fill="#1ABCFE"/>
</svg>
