<svg width="72" height="72" viewBox="0 0 72 72" fill="none" xmlns="http://www.w3.org/2000/svg">
<path d="M0 72V0H72V72H0Z" fill="#FFD600"/>
<path d="M47.076 53.894C48.46 56.142 49.964 58.296 53.15 58.296C55.826 58.296 57.23 56.966 57.23 55.126C57.23 52.924 55.778 52.142 52.834 50.86L51.22 50.172C46.562 48.196 43.464 45.72 43.464 40.49C43.464 35.67 47.154 32.002 52.92 32.002C57.026 32.002 59.976 33.424 62.104 37.148L57.076 40.362C55.97 38.386 54.774 37.608 52.92 37.608C51.028 37.608 49.83 38.802 49.83 40.362C49.83 42.29 51.03 43.07 53.8 44.264L55.414 44.952C60.904 47.29 64 49.678 64 55.046C64 60.83 59.432 64 53.3 64C47.302 64 43.896 60.99 42 57.264L47.076 53.894ZM23.904 54.058C24.916 55.87 26.454 57.264 28.666 57.264C30.782 57.264 32 56.428 32 53.178V32H38.666V54.202C38.666 60.936 34.76 64 29.056 64C23.902 64 20.182 60.508 18.666 57.264L23.904 54.058Z" fill="#000001"/>
</svg>
