<svg width="16" height="16" viewBox="0 0 16 16" fill="none" xmlns="http://www.w3.org/2000/svg">
<g clip-path="url(#clip0_2770_73618)">
<path fill-rule="evenodd" clip-rule="evenodd" d="M9.20702 4.304L9.19102 0H6.79102L6.80702 4.304L8.00702 5.952L9.20702 4.304ZM6.80702 11.68V16H9.20702V11.68L8.00702 10.032L6.80702 11.68Z" fill="#41B6D6"/>
<path fill-rule="evenodd" clip-rule="evenodd" d="M9.20812 11.6804L11.7361 15.1684L13.6721 13.7604L11.1441 10.2724L9.20812 9.64841V11.6804ZM6.80813 4.30441L4.26412 0.816406L2.32812 2.22441L4.85612 5.71241L6.80813 6.33641V4.30441Z" fill="#41B6D6"/>
<path fill-rule="evenodd" clip-rule="evenodd" d="M4.85544 5.71277L0.759437 4.38477L0.0234375 6.65677L4.11944 8.00077L6.05544 7.36077L4.85544 5.71277ZM9.94344 8.62477L11.1434 10.2728L15.2394 11.6008L15.9754 9.32876L11.8794 8.00077L9.94344 8.62477Z" fill="#00B9F1"/>
<path fill-rule="evenodd" clip-rule="evenodd" d="M11.8794 8.00077L15.9754 6.65677L15.2394 4.38477L11.1434 5.71277L9.94344 7.36077L11.8794 8.00077ZM4.11944 8.00077L0.0234375 9.32876L0.759437 11.6008L4.85544 10.2728L6.05544 8.62477L4.11944 8.00077Z" fill="#D63AFF"/>
<path fill-rule="evenodd" clip-rule="evenodd" d="M4.85612 10.2724L2.32812 13.7604L4.26412 15.1684L6.80813 11.6804V9.64841L4.85612 10.2724ZM11.1441 5.71241L13.6721 2.22441L11.7361 0.816406L9.20812 4.30441V6.33641L11.1441 5.71241Z" fill="#FB015B"/>
</g>
<defs>
<clipPath id="clip0_2770_73618">
<rect width="16" height="16" fill="white"/>
</clipPath>
</defs>
</svg>
