<svg width="16" height="16" viewBox="0 0 16 16" fill="none" xmlns="http://www.w3.org/2000/svg">
<path d="M8.00117 9.42422C8.78818 9.42422 9.42617 8.78622 9.42617 7.99922C9.42617 7.21221 8.78818 6.57422 8.00117 6.57422C7.21417 6.57422 6.57617 7.21221 6.57617 7.99922C6.57617 8.78622 7.21417 9.42422 8.00117 9.42422Z" fill="#61DAFB"/>
<path d="M13.4133 5.64922C13.1383 5.54922 12.8508 5.44922 12.5508 5.36172C12.6258 5.06172 12.6883 4.76172 12.7383 4.47422C13.0008 2.82422 12.7133 1.66172 11.9133 1.21172C11.6758 1.07422 11.4133 1.01172 11.1133 1.01172C10.2383 1.01172 9.12578 1.66172 8.00078 2.74922C6.87578 1.66172 5.76328 1.01172 4.88828 1.01172C4.58828 1.01172 4.32578 1.07422 4.08828 1.21172C3.28828 1.67422 3.00078 2.83672 3.26328 4.47422C3.31328 4.76172 3.37578 5.06172 3.45078 5.36172C3.15078 5.44922 2.86328 5.53672 2.58828 5.64922C1.02578 6.24922 0.175781 7.07422 0.175781 7.99922C0.175781 8.92422 1.03828 9.74922 2.58828 10.3492C2.86328 10.4492 3.15078 10.5492 3.45078 10.6367C3.37578 10.9367 3.31328 11.2367 3.26328 11.5242C3.00078 13.1742 3.28828 14.3367 4.08828 14.7867C4.32578 14.9242 4.58828 14.9867 4.88828 14.9867C5.77578 14.9867 6.88828 14.3367 8.00078 13.2492C9.12578 14.3367 10.2383 14.9867 11.1133 14.9867C11.4133 14.9867 11.6758 14.9242 11.9133 14.7867C12.7133 14.3242 13.0008 13.1617 12.7383 11.5242C12.6883 11.2367 12.6258 10.9367 12.5508 10.6367C12.8508 10.5492 13.1383 10.4617 13.4133 10.3492C14.9758 9.74922 15.8258 8.92422 15.8258 7.99922C15.8258 7.07422 14.9758 6.24922 13.4133 5.64922ZM11.5633 1.83672C12.0758 2.13672 12.2508 3.06172 12.0383 4.37422C12.0008 4.63672 11.9383 4.91172 11.8633 5.19922C11.2133 5.04922 10.5258 4.94922 9.80078 4.88672C9.37578 4.28672 8.93828 3.74922 8.50078 3.26172C9.42578 2.34922 10.3633 1.72422 11.1258 1.72422C11.2883 1.72422 11.4383 1.76172 11.5633 1.83672ZM10.1633 9.24922C9.93828 9.64922 9.67578 10.0492 9.40078 10.4492C8.93828 10.4867 8.47578 10.4992 8.00078 10.4992C7.51328 10.4992 7.05078 10.4867 6.60078 10.4492C6.32578 10.0492 6.07578 9.64922 5.85078 9.24922C5.61328 8.83672 5.38828 8.41172 5.18828 7.99922C5.38828 7.58672 5.61328 7.16172 5.85078 6.74922C6.07578 6.34922 6.33828 5.94922 6.61328 5.54922C7.07578 5.51172 7.53828 5.49922 8.01328 5.49922C8.50078 5.49922 8.96328 5.51172 9.41328 5.54922C9.68828 5.94922 9.93828 6.34922 10.1633 6.74922C10.4008 7.16172 10.6258 7.58672 10.8258 7.99922C10.6133 8.41172 10.4008 8.82422 10.1633 9.24922ZM11.2008 8.83672C11.3883 9.27422 11.5383 9.69922 11.6758 10.1242C11.2508 10.2242 10.8008 10.2992 10.3258 10.3617C10.4758 10.1242 10.6383 9.87422 10.7758 9.61172C10.9258 9.34922 11.0633 9.08672 11.2008 8.83672ZM8.00078 12.2242C7.70078 11.8992 7.41328 11.5492 7.13828 11.1867C7.42578 11.1992 7.71328 11.2117 8.00078 11.2117C8.28828 11.2117 8.57578 11.1992 8.86328 11.1867C8.58828 11.5492 8.30078 11.8992 8.00078 12.2242ZM5.67578 10.3492C5.20078 10.2867 4.75078 10.2117 4.32578 10.1117C4.46328 9.69922 4.61328 9.26172 4.80078 8.82422C4.93828 9.07422 5.07578 9.33672 5.22578 9.58672C5.37578 9.86172 5.52578 10.0992 5.67578 10.3492ZM4.80078 7.16172C4.61328 6.72422 4.46328 6.29922 4.32578 5.87422C4.75078 5.77422 5.20078 5.69922 5.67578 5.63672C5.52578 5.87422 5.36328 6.12422 5.22578 6.38672C5.07578 6.64922 4.93828 6.91172 4.80078 7.16172ZM8.00078 3.77422C8.30078 4.09922 8.58828 4.44922 8.86328 4.81172C8.57578 4.79922 8.28828 4.78672 8.00078 4.78672C7.71328 4.78672 7.42578 4.79922 7.13828 4.81172C7.41328 4.44922 7.70078 4.09922 8.00078 3.77422ZM10.7758 6.39922L10.3258 5.64922C10.8008 5.71172 11.2508 5.78672 11.6758 5.88672C11.5383 6.29922 11.3883 6.73672 11.2008 7.17422C11.0633 6.91172 10.9258 6.64922 10.7758 6.39922ZM3.96328 4.37422C3.75078 3.06172 3.92578 2.13672 4.43828 1.83672C4.56328 1.76172 4.71328 1.72422 4.87578 1.72422C5.62578 1.72422 6.56328 2.33672 7.50078 3.26172C7.06328 3.73672 6.62578 4.28672 6.20078 4.88672C5.47578 4.94922 4.78828 5.06172 4.13828 5.19922C4.06328 4.91172 4.01328 4.63672 3.96328 4.37422ZM0.875781 7.99922C0.875781 7.41172 1.58828 6.78672 2.83828 6.32422C3.08828 6.22422 3.36328 6.13672 3.63828 6.06172C3.83828 6.68672 4.08828 7.34922 4.38828 8.01172C4.08828 8.67422 3.82578 9.32422 3.63828 9.94922C1.91328 9.44922 0.875781 8.69922 0.875781 7.99922ZM4.43828 14.1617C3.92578 13.8617 3.75078 12.9367 3.96328 11.6242C4.00078 11.3617 4.06328 11.0867 4.13828 10.7992C4.78828 10.9492 5.47578 11.0492 6.20078 11.1117C6.62578 11.7117 7.06328 12.2492 7.50078 12.7367C6.57578 13.6492 5.63828 14.2742 4.87578 14.2742C4.71328 14.2742 4.56328 14.2367 4.43828 14.1617ZM12.0383 11.6242C12.2508 12.9367 12.0758 13.8617 11.5633 14.1617C11.4383 14.2367 11.2883 14.2742 11.1258 14.2742C10.3758 14.2742 9.43828 13.6617 8.50078 12.7367C8.93828 12.2617 9.37578 11.7117 9.80078 11.1117C10.5258 11.0492 11.2133 10.9367 11.8633 10.7992C11.9383 11.0867 11.9883 11.3617 12.0383 11.6242ZM13.1633 9.67422C12.9133 9.77422 12.6383 9.86172 12.3633 9.93672C12.1633 9.31172 11.9133 8.64922 11.6133 7.98672C11.9133 7.32422 12.1758 6.67422 12.3633 6.04922C14.0883 6.54922 15.1258 7.29922 15.1258 7.99922C15.1258 8.58672 14.4008 9.21172 13.1633 9.67422Z" fill="#61DAFB"/>
</svg>
