<svg width="16" height="16" viewBox="0 0 16 16" fill="none" xmlns="http://www.w3.org/2000/svg">
<g clip-path="url(#clip0_2770_73612)">
<path d="M0 8V0H16V16H0" fill="#007ACC"/>
<path d="M3.50781 8.02819V8.68019H5.58781V14.6002H7.06381V8.68019H9.14381V8.04019C9.14381 7.68019 9.14381 7.38819 9.12781 7.38019C9.12781 7.36819 7.85981 7.36419 6.31981 7.36419L3.51981 7.37619V8.03219L3.50781 8.02819ZM12.8558 7.36019C13.2638 7.45619 13.5758 7.64019 13.8558 7.93219C14.0038 8.09219 14.2238 8.37219 14.2398 8.44419C14.2398 8.46819 13.5478 8.93619 13.1278 9.19619C13.1118 9.20819 13.0478 9.14019 12.9838 9.03619C12.7758 8.74019 12.5638 8.61219 12.2318 8.58819C11.7518 8.55619 11.4318 8.80819 11.4318 9.22819C11.4318 9.35619 11.4558 9.42819 11.5038 9.53219C11.6118 9.75219 11.8118 9.88419 12.4318 10.1562C13.5758 10.6482 14.0718 10.9722 14.3718 11.4362C14.7118 11.9562 14.7878 12.7722 14.5598 13.3842C14.3038 14.0522 13.6798 14.5042 12.7878 14.6522C12.5078 14.7002 11.8678 14.6922 11.5678 14.6402C10.9278 14.5202 10.3158 14.2002 9.93981 13.7882C9.79181 13.6282 9.50781 13.2002 9.52381 13.1722L9.67581 13.0762L10.2758 12.7282L10.7278 12.4642L10.8318 12.6042C10.9638 12.8122 11.2598 13.0922 11.4318 13.1882C11.9518 13.4562 12.6478 13.4202 12.9918 13.1082C13.1398 12.9722 13.2038 12.8282 13.2038 12.6282C13.2038 12.4442 13.1758 12.3602 13.0838 12.2202C12.9558 12.0442 12.6998 11.9002 11.9798 11.5802C11.1518 11.2282 10.7998 11.0042 10.4718 10.6602C10.2838 10.4522 10.1118 10.1282 10.0318 9.86019C9.97181 9.62819 9.95181 9.06019 10.0078 8.83219C10.1798 8.03219 10.7838 7.47219 11.6478 7.31219C11.9278 7.25619 12.5878 7.28019 12.8638 7.35219L12.8558 7.36019Z" fill="white"/>
</g>
<defs>
<clipPath id="clip0_2770_73612">
<rect width="16" height="16" fill="white"/>
</clipPath>
</defs>
</svg>
