
<svg width="916" height="402" viewBox="0 0 916 402" fill="none" xmlns="http://www.w3.org/2000/svg">
<g clip-path="url(#clip0_10615_95430)">
<g filter="url(#filter0_i_10615_95430)">
<rect x="399.061" y="109.102" width="116.122" height="116.122" rx="30" fill="url(#paint0_linear_10615_95430)"/>
<path d="M434.78 177.934V171.726H459.484V177.934H434.78ZM425.18 187.662L443.292 146.19H451.1L469.34 187.662H461.468L445.596 150.222H448.796L432.988 187.662H425.18ZM476.736 146.19H484.032V187.662H476.736V146.19Z" fill="white"/>
</g>
<path d="M399.061 77.0663V-2.61778L414.677 -19.8359H500.768L515.183 -2.61778V77.0663L500.768 96.2865H414.677L399.061 77.0663Z" fill="url(#paint1_linear_10615_95430)" fill-opacity="0.6" stroke="url(#paint2_linear_10615_95430)" stroke-opacity="0.3"/>
<path d="M399.061 257.258V336.942L414.677 354.16H500.768L515.183 336.942V257.258L500.768 238.038H414.677L399.061 257.258Z" fill="url(#paint3_linear_10615_95430)" fill-opacity="0.6" stroke="url(#paint4_linear_10615_95430)" stroke-opacity="0.3"/>
<path d="M547.217 225.225L626.901 225.225L644.119 209.608L644.119 123.517L626.901 109.102L547.217 109.102L527.997 123.517L527.997 209.608L547.217 225.225Z" fill="url(#paint5_linear_10615_95430)" fill-opacity="0.6" stroke="url(#paint6_linear_10615_95430)" stroke-opacity="0.3"/>
<path d="M367.026 225.225L287.342 225.225L270.124 209.608L270.124 123.517L287.342 109.102L367.026 109.102L386.246 123.517L386.246 209.608L367.026 225.225Z" fill="url(#paint7_linear_10615_95430)" fill-opacity="0.6" stroke="url(#paint8_linear_10615_95430)" stroke-opacity="0.3"/>
<path d="M516.785 107.502L566.037 63.4551H632.907" stroke="url(#paint9_linear_10615_95430)" stroke-opacity="0.6" stroke-width="1.5"/>
<path opacity="0.6" d="M536.005 90.2838L544.814 82.2754" stroke="#006397" stroke-width="1.5" stroke-linecap="round"/>
<g opacity="0.3">
<path d="M686.563 90.6831L745.425 146.742H828.312" stroke="url(#paint10_linear_10615_95430)" stroke-opacity="0.6" stroke-width="1.5"/>
<path opacity="0.6" d="M779.46 146.742H795.077" stroke="#006397" stroke-width="1.5" stroke-linecap="round"/>
<path d="M686.563 242.844L745.425 186.785H828.312" stroke="url(#paint11_linear_10615_95430)" stroke-opacity="0.6" stroke-width="1.5"/>
<path opacity="0.6" d="M779.461 186.785H795.077" stroke="#006397" stroke-width="1.5" stroke-linecap="round"/>
</g>
<g opacity="0.3">
<path d="M233.285 90.6831L174.423 146.742H91.5357" stroke="url(#paint12_linear_10615_95430)" stroke-opacity="0.6" stroke-width="1.5"/>
<path opacity="0.6" d="M140.387 146.742H124.771" stroke="#006397" stroke-width="1.5" stroke-linecap="round"/>
<path d="M233.285 242.844L174.423 186.785H91.5357" stroke="url(#paint13_linear_10615_95430)" stroke-opacity="0.6" stroke-width="1.5"/>
<path opacity="0.6" d="M140.387 186.785H124.771" stroke="#006397" stroke-width="1.5" stroke-linecap="round"/>
</g>
<path d="M516.785 230.028L566.037 274.074H632.907" stroke="url(#paint14_linear_10615_95430)" stroke-opacity="0.6" stroke-width="1.5"/>
<path opacity="0.6" d="M536.005 247.245L544.814 255.254" stroke="#006397" stroke-width="1.5" stroke-linecap="round"/>
<path d="M395.857 107.502L346.605 63.4551H279.735" stroke="url(#paint15_linear_10615_95430)" stroke-opacity="0.6" stroke-width="1.5"/>
<path opacity="0.6" d="M376.637 90.2838L367.828 82.2754" stroke="#006397" stroke-width="1.5" stroke-linecap="round"/>
<path d="M395.857 230.028L346.605 274.074H279.735" stroke="url(#paint16_linear_10615_95430)" stroke-opacity="0.6" stroke-width="1.5"/>
<path opacity="0.6" d="M376.637 247.245L367.828 255.254" stroke="#006397" stroke-width="1.5" stroke-linecap="round"/>
<g filter="url(#filter1_b_10615_95430)">
<rect x="649.126" y="42.6309" width="48.0507" height="36.8388" rx="18" transform="rotate(22.0284 649.126 42.6309)" fill="url(#paint17_linear_10615_95430)" fill-opacity="0.3"/>
<rect x="649.402" y="43.2819" width="47.0507" height="35.8388" rx="17.5" transform="rotate(22.0284 649.402 43.2819)" stroke="url(#paint18_linear_10615_95430)"/>
<g filter="url(#filter2_d_10615_95430)">
<rect x="660.82" y="59.0547" width="7" height="12" rx="3.5" transform="rotate(22.0284 660.82 59.0547)" fill="url(#paint19_linear_10615_95430)"/>
</g>
<g filter="url(#filter3_d_10615_95430)">
<rect x="678.433" y="66.1816" width="7" height="12" rx="3.5" transform="rotate(22.0284 678.433 66.1816)" fill="url(#paint20_linear_10615_95430)"/>
</g>
</g>
<path d="M690.322 60.2812L698.02 52.209" stroke="#D3DEE9" stroke-opacity="0.7" stroke-width="1.5" stroke-linecap="round"/>
<path d="M692.991 62.0895L699.756 61.3312" stroke="#D3DEE9" stroke-opacity="0.7" stroke-width="1.5" stroke-linecap="round"/>
<path d="M692.169 65.6936L700.177 68.2587" stroke="#D3DEE9" stroke-opacity="0.7" stroke-width="1.5" stroke-linecap="round"/>
<rect x="651.903" y="253.18" width="19.0482" height="28.5949" rx="9.52408" transform="rotate(15.2126 651.903 253.18)" fill="url(#paint21_linear_10615_95430)" fill-opacity="0.3" stroke="url(#paint22_linear_10615_95430)"/>
<path fill-rule="evenodd" clip-rule="evenodd" d="M659.055 287.667C660.289 287.398 661.474 286.963 662.582 286.378C663.146 286.08 663.69 285.744 664.209 285.37C664.274 285.323 664.341 285.282 664.41 285.247C665.014 284.934 665.77 285.026 666.23 285.545C666.742 286.124 666.691 287.014 666.071 287.476C665.996 287.532 665.92 287.588 665.844 287.642C665.253 288.067 664.636 288.453 663.997 288.796C662.636 289.528 661.174 290.07 659.652 290.402C657.357 290.903 654.988 290.914 652.699 290.44L650.812 297.378C650.594 298.177 649.77 298.649 648.971 298.432C648.171 298.215 647.7 297.39 647.917 296.591L649.826 289.569C647.659 288.693 645.694 287.369 644.063 285.678C642.981 284.557 642.067 283.295 641.34 281.931C640.999 281.29 640.7 280.627 640.445 279.946C640.412 279.858 640.379 279.77 640.348 279.681C640.089 278.953 640.54 278.184 641.288 277.987C641.958 277.81 642.639 278.154 642.967 278.749C643.005 278.817 643.038 278.889 643.066 278.963C643.29 279.562 643.556 280.144 643.86 280.705C644.456 281.806 645.201 282.826 646.078 283.735C647.726 285.443 649.783 286.702 652.055 287.39C654.326 288.078 656.736 288.174 659.055 287.667Z" fill="#C1D5E9" fill-opacity="0.5"/>
<mask id="path-32-inside-1_10615_95430" fill="white">
<path d="M672.28 263.356C672.764 263.398 673.194 263.039 673.196 262.554C673.202 260.544 672.631 258.568 671.542 256.864C670.452 255.161 668.898 253.814 667.071 252.976C666.63 252.774 666.123 253.014 665.959 253.471V253.471C665.794 253.928 666.033 254.428 666.471 254.638C667.934 255.339 669.179 256.436 670.059 257.812C670.939 259.189 671.413 260.779 671.435 262.401C671.442 262.887 671.796 263.314 672.28 263.356V263.356Z"/>
</mask>
<path d="M672.28 263.356C672.764 263.398 673.194 263.039 673.196 262.554C673.202 260.544 672.631 258.568 671.542 256.864C670.452 255.161 668.898 253.814 667.071 252.976C666.63 252.774 666.123 253.014 665.959 253.471V253.471C665.794 253.928 666.033 254.428 666.471 254.638C667.934 255.339 669.179 256.436 670.059 257.812C670.939 259.189 671.413 260.779 671.435 262.401C671.442 262.887 671.796 263.314 672.28 263.356V263.356Z" stroke="#C1D5E9" stroke-opacity="0.5" stroke-width="8" mask="url(#path-32-inside-1_10615_95430)"/>
<mask id="path-33-inside-2_10615_95430" fill="white">
<path d="M675.787 257.224C676.258 257.105 676.546 256.625 676.388 256.165C675.677 254.105 674.343 252.315 672.57 251.047C672.175 250.765 671.632 250.904 671.383 251.322V251.322C671.135 251.739 671.275 252.276 671.665 252.565C673.042 253.586 674.089 254.989 674.675 256.6C674.841 257.057 675.316 257.344 675.787 257.224V257.224Z"/>
</mask>
<path d="M675.787 257.224C676.258 257.105 676.546 256.625 676.388 256.165C675.677 254.105 674.343 252.315 672.57 251.047C672.175 250.765 671.632 250.904 671.383 251.322V251.322C671.135 251.739 671.275 252.276 671.665 252.565C673.042 253.586 674.089 254.989 674.675 256.6C674.841 257.057 675.316 257.344 675.787 257.224V257.224Z" stroke="#C1D5E9" stroke-opacity="0.5" stroke-width="8" mask="url(#path-33-inside-2_10615_95430)"/>
<path d="M707.416 15.7457L759.088 -71.2281L787.299 -79.8947L881.266 -24.0675L885.834 4.07366L834.162 91.0475L805.964 102.678L711.997 46.8511L707.416 15.7457Z" fill="#EAF2FC" fill-opacity="0.2" stroke="url(#paint23_linear_10615_95430)" stroke-opacity="0.3"/>
<path d="M707.416 323.907L759.088 410.88L787.299 419.547L881.266 363.72L885.834 335.579L834.162 248.605L805.964 236.974L711.997 292.801L707.416 323.907Z" fill="#D9D9D9" fill-opacity="0.1" stroke="url(#paint24_linear_10615_95430)" stroke-opacity="0.3"/>
<path d="M211.827 15.7457L160.154 -71.2281L131.944 -79.8947L37.9769 -24.0675L33.4084 4.07366L85.081 91.0475L113.279 102.678L207.245 46.8511L211.827 15.7457Z" fill="#D9D9D9" fill-opacity="0.1" stroke="url(#paint25_linear_10615_95430)" stroke-opacity="0.3"/>
<path d="M211.827 323.907L160.154 410.88L131.944 419.547L37.9769 363.72L33.4084 335.579L85.081 248.605L113.279 236.974L207.245 292.801L211.827 323.907Z" fill="#D9D9D9" fill-opacity="0.1" stroke="url(#paint26_linear_10615_95430)" stroke-opacity="0.3"/>
<path d="M261.835 73.2539L269.68 85.8226" stroke="#C1D5E9" stroke-width="4" stroke-linecap="round"/>
<g filter="url(#filter4_b_10615_95430)">
<circle cx="255.603" cy="62.5145" r="13.2139" transform="rotate(-31.9687 255.603 62.5145)" fill="url(#paint27_linear_10615_95430)" fill-opacity="0.3"/>
<circle cx="255.603" cy="62.5145" r="12.7139" transform="rotate(-31.9687 255.603 62.5145)" stroke="url(#paint28_linear_10615_95430)"/>
</g>
<mask id="path-41-inside-3_10615_95430" fill="white">
<path d="M240.202 68.1736C239.84 68.4134 239.349 68.3116 239.136 67.9326C238.257 66.366 237.704 64.6269 237.51 62.8151C237.288 60.7379 237.545 58.6197 238.261 56.6209C238.978 54.6221 240.135 52.7953 241.645 51.2789C242.972 49.9474 244.539 48.8859 246.255 48.1543C246.647 47.9872 247.09 48.2025 247.224 48.6068V48.6068C247.353 48.9952 247.148 49.4137 246.772 49.5755C245.262 50.2256 243.882 51.1634 242.713 52.3371C241.37 53.6856 240.341 55.3102 239.704 57.0877C239.066 58.8652 238.838 60.7489 239.035 62.5961C239.205 64.1849 239.686 65.7107 240.449 67.0887C240.656 67.4619 240.558 67.9382 240.202 68.1736V68.1736Z"/>
</mask>
<path d="M240.202 68.1736C239.84 68.4134 239.349 68.3116 239.136 67.9326C238.257 66.366 237.704 64.6269 237.51 62.8151C237.288 60.7379 237.545 58.6197 238.261 56.6209C238.978 54.6221 240.135 52.7953 241.645 51.2789C242.972 49.9474 244.539 48.8859 246.255 48.1543C246.647 47.9872 247.09 48.2025 247.224 48.6068V48.6068C247.353 48.9952 247.148 49.4137 246.772 49.5755C245.262 50.2256 243.882 51.1634 242.713 52.3371C241.37 53.6856 240.341 55.3102 239.704 57.0877C239.066 58.8652 238.838 60.7489 239.035 62.5961C239.205 64.1849 239.686 65.7107 240.449 67.0887C240.656 67.4619 240.558 67.9382 240.202 68.1736V68.1736Z" stroke="#C1D5E9" stroke-opacity="0.5" stroke-width="8" mask="url(#path-41-inside-3_10615_95430)"/>
<path d="M264.037 280.373C257.876 282.116 251.826 279.266 250.396 274.215C248.967 269.164 252.628 263.567 258.789 261.824C264.95 260.081 271 262.93 272.429 267.981C272.911 269.684 272.938 271.183 272.526 272.56C272.112 273.94 271.245 275.241 269.864 276.523C269.74 276.638 269.69 276.778 269.666 276.869C269.642 276.966 269.633 277.066 269.632 277.153C269.628 277.329 269.65 277.533 269.681 277.739C269.74 278.134 269.846 278.618 269.948 279.084C269.953 279.108 269.959 279.133 269.964 279.157C270.073 279.657 270.175 280.129 270.224 280.494C270.231 280.546 270.237 280.594 270.241 280.638C270.191 280.622 270.136 280.603 270.076 280.581C269.722 280.452 269.274 280.255 268.803 280.046L268.76 280.027C268.312 279.828 267.846 279.622 267.462 279.479C267.265 279.406 267.071 279.343 266.901 279.307C266.816 279.289 266.721 279.275 266.627 279.274C266.54 279.274 266.4 279.284 266.263 279.36C266.138 279.431 266.024 279.495 265.919 279.555C265.241 279.941 264.921 280.122 264.037 280.373Z" fill="url(#paint29_linear_10615_95430)" fill-opacity="0.3" stroke="url(#paint30_linear_10615_95430)"/>
<g filter="url(#filter5_d_10615_95430)">
<rect x="254.399" y="271.576" width="3.62086" height="3.62086" rx="1.81043" transform="rotate(-15.7976 254.399 271.576)" fill="url(#paint31_linear_10615_95430)"/>
</g>
<g filter="url(#filter6_d_10615_95430)">
<rect x="259.277" y="270.197" width="3.62086" height="3.62086" rx="1.81043" transform="rotate(-15.7976 259.277 270.197)" fill="url(#paint32_linear_10615_95430)"/>
</g>
<g filter="url(#filter7_d_10615_95430)">
<rect x="264.155" y="268.816" width="3.62086" height="3.62086" rx="1.81043" transform="rotate(-15.7976 264.155 268.816)" fill="url(#paint33_linear_10615_95430)"/>
</g>
<g filter="url(#filter8_b_10615_95430)">
<path d="M220.235 278.13C221.813 283.706 225.298 286.809 231.304 288.007C232.107 288.168 233.384 294.064 234.222 294.126C235.003 294.183 237.842 288.888 238.644 288.855C240.317 288.788 240.931 288.831 242.64 288.348C252.618 285.525 258.765 276.373 256.37 267.906C253.975 259.44 243.944 254.865 233.965 257.688C223.987 260.511 217.839 269.663 220.235 278.13Z" fill="url(#paint34_linear_10615_95430)" fill-opacity="0.3"/>
<path d="M242.504 287.867C252.293 285.097 258.189 276.172 255.889 268.042C253.589 259.913 243.891 255.399 234.101 258.169C224.311 260.939 218.416 269.864 220.716 277.994C221.485 280.71 222.707 282.79 224.442 284.337C226.178 285.886 228.462 286.93 231.402 287.517C231.585 287.554 231.721 287.658 231.808 287.743C231.899 287.831 231.978 287.938 232.046 288.044C232.182 288.256 232.314 288.53 232.441 288.826C232.682 289.393 232.936 290.121 233.184 290.832L233.222 290.939C233.486 291.695 233.742 292.422 233.983 292.964C234.094 293.216 234.194 293.408 234.279 293.536C234.401 293.424 234.555 293.251 234.738 293.02C235.113 292.548 235.556 291.906 236.013 291.241L236.053 291.183C236.491 290.546 236.94 289.892 237.331 289.393C237.531 289.136 237.729 288.904 237.912 288.731C238.003 288.644 238.102 288.561 238.206 288.496C238.303 288.436 238.449 288.363 238.624 288.356C238.848 288.347 239.052 288.34 239.241 288.333C240.473 288.291 241.08 288.27 242.504 287.867Z" stroke="url(#paint35_linear_10615_95430)"/>
</g>
<g filter="url(#filter9_d_10615_95430)">
<rect width="5.68993" height="5.68993" rx="2.84496" transform="matrix(-0.962229 0.27224 0.27224 0.962229 248.085 267.885)" fill="url(#paint36_linear_10615_95430)"/>
</g>
<g filter="url(#filter10_d_10615_95430)">
<rect width="5.68993" height="5.68993" rx="2.84496" transform="matrix(-0.962229 0.27224 0.27224 0.962229 240.42 270.053)" fill="url(#paint37_linear_10615_95430)"/>
</g>
<g filter="url(#filter11_d_10615_95430)">
<rect width="5.68993" height="5.68993" rx="2.84496" transform="matrix(-0.962229 0.27224 0.27224 0.962229 232.755 272.223)" fill="url(#paint38_linear_10615_95430)"/>
</g>
</g>
<defs>
<filter id="filter0_i_10615_95430" x="399.061" y="109.102" width="116.123" height="116.123" filterUnits="userSpaceOnUse" color-interpolation-filters="sRGB">
<feFlood flood-opacity="0" result="BackgroundImageFix"/>
<feBlend mode="normal" in="SourceGraphic" in2="BackgroundImageFix" result="shape"/>
<feColorMatrix in="SourceAlpha" type="matrix" values="0 0 0 0 0 0 0 0 0 0 0 0 0 0 0 0 0 0 127 0" result="hardAlpha"/>
<feOffset/>
<feGaussianBlur stdDeviation="7"/>
<feComposite in2="hardAlpha" operator="arithmetic" k2="-1" k3="1"/>
<feColorMatrix type="matrix" values="0 0 0 0 1 0 0 0 0 1 0 0 0 0 1 0 0 0 0.74 0"/>
<feBlend mode="normal" in2="shape" result="effect1_innerShadow_10615_95430"/>
</filter>
<filter id="filter1_b_10615_95430" x="631.31" y="38.6309" width="66.3599" height="60.1719" filterUnits="userSpaceOnUse" color-interpolation-filters="sRGB">
<feFlood flood-opacity="0" result="BackgroundImageFix"/>
<feGaussianBlur in="BackgroundImageFix" stdDeviation="2"/>
<feComposite in2="SourceAlpha" operator="in" result="effect1_backgroundBlur_10615_95430"/>
<feBlend mode="normal" in="SourceGraphic" in2="effect1_backgroundBlur_10615_95430" result="shape"/>
</filter>
<filter id="filter2_d_10615_95430" x="657.376" y="60.1113" width="9.87695" height="13.6367" filterUnits="userSpaceOnUse" color-interpolation-filters="sRGB">
<feFlood flood-opacity="0" result="BackgroundImageFix"/>
<feColorMatrix in="SourceAlpha" type="matrix" values="0 0 0 0 0 0 0 0 0 0 0 0 0 0 0 0 0 0 127 0" result="hardAlpha"/>
<feOffset dx="1" dy="2"/>
<feComposite in2="hardAlpha" operator="out"/>
<feColorMatrix type="matrix" values="0 0 0 0 0 0 0 0 0 0 0 0 0 0 0 0 0 0 0.04 0"/>
<feBlend mode="normal" in2="BackgroundImageFix" result="effect1_dropShadow_10615_95430"/>
<feBlend mode="normal" in="SourceGraphic" in2="effect1_dropShadow_10615_95430" result="shape"/>
</filter>
<filter id="filter3_d_10615_95430" x="674.989" y="67.2383" width="9.87695" height="13.6367" filterUnits="userSpaceOnUse" color-interpolation-filters="sRGB">
<feFlood flood-opacity="0" result="BackgroundImageFix"/>
<feColorMatrix in="SourceAlpha" type="matrix" values="0 0 0 0 0 0 0 0 0 0 0 0 0 0 0 0 0 0 127 0" result="hardAlpha"/>
<feOffset dx="1" dy="2"/>
<feComposite in2="hardAlpha" operator="out"/>
<feColorMatrix type="matrix" values="0 0 0 0 0 0 0 0 0 0 0 0 0 0 0 0 0 0 0.04 0"/>
<feBlend mode="normal" in2="BackgroundImageFix" result="effect1_dropShadow_10615_95430"/>
<feBlend mode="normal" in="SourceGraphic" in2="effect1_dropShadow_10615_95430" result="shape"/>
</filter>
<filter id="filter4_b_10615_95430" x="238.387" y="45.2988" width="34.4316" height="34.4316" filterUnits="userSpaceOnUse" color-interpolation-filters="sRGB">
<feFlood flood-opacity="0" result="BackgroundImageFix"/>
<feGaussianBlur in="BackgroundImageFix" stdDeviation="2"/>
<feComposite in2="SourceAlpha" operator="in" result="effect1_backgroundBlur_10615_95430"/>
<feBlend mode="normal" in="SourceGraphic" in2="effect1_backgroundBlur_10615_95430" result="shape"/>
</filter>
<filter id="filter5_d_10615_95430" x="254.823" y="271.014" width="4.12207" height="4.12305" filterUnits="userSpaceOnUse" color-interpolation-filters="sRGB">
<feFlood flood-opacity="0" result="BackgroundImageFix"/>
<feColorMatrix in="SourceAlpha" type="matrix" values="0 0 0 0 0 0 0 0 0 0 0 0 0 0 0 0 0 0 127 0" result="hardAlpha"/>
<feOffset dx="0.5" dy="0.5"/>
<feComposite in2="hardAlpha" operator="out"/>
<feColorMatrix type="matrix" values="0 0 0 0 0 0 0 0 0 0 0 0 0 0 0 0 0 0 0.04 0"/>
<feBlend mode="normal" in2="BackgroundImageFix" result="effect1_dropShadow_10615_95430"/>
<feBlend mode="normal" in="SourceGraphic" in2="effect1_dropShadow_10615_95430" result="shape"/>
</filter>
<filter id="filter6_d_10615_95430" x="259.701" y="269.635" width="4.12207" height="4.12305" filterUnits="userSpaceOnUse" color-interpolation-filters="sRGB">
<feFlood flood-opacity="0" result="BackgroundImageFix"/>
<feColorMatrix in="SourceAlpha" type="matrix" values="0 0 0 0 0 0 0 0 0 0 0 0 0 0 0 0 0 0 127 0" result="hardAlpha"/>
<feOffset dx="0.5" dy="0.5"/>
<feComposite in2="hardAlpha" operator="out"/>
<feColorMatrix type="matrix" values="0 0 0 0 0 0 0 0 0 0 0 0 0 0 0 0 0 0 0.04 0"/>
<feBlend mode="normal" in2="BackgroundImageFix" result="effect1_dropShadow_10615_95430"/>
<feBlend mode="normal" in="SourceGraphic" in2="effect1_dropShadow_10615_95430" result="shape"/>
</filter>
<filter id="filter7_d_10615_95430" x="264.579" y="268.254" width="4.12207" height="4.12305" filterUnits="userSpaceOnUse" color-interpolation-filters="sRGB">
<feFlood flood-opacity="0" result="BackgroundImageFix"/>
<feColorMatrix in="SourceAlpha" type="matrix" values="0 0 0 0 0 0 0 0 0 0 0 0 0 0 0 0 0 0 127 0" result="hardAlpha"/>
<feOffset dx="0.5" dy="0.5"/>
<feComposite in2="hardAlpha" operator="out"/>
<feColorMatrix type="matrix" values="0 0 0 0 0 0 0 0 0 0 0 0 0 0 0 0 0 0 0.04 0"/>
<feBlend mode="normal" in2="BackgroundImageFix" result="effect1_dropShadow_10615_95430"/>
<feBlend mode="normal" in="SourceGraphic" in2="effect1_dropShadow_10615_95430" result="shape"/>
</filter>
<filter id="filter8_b_10615_95430" x="215.717" y="252.854" width="45.1704" height="45.2734" filterUnits="userSpaceOnUse" color-interpolation-filters="sRGB">
<feFlood flood-opacity="0" result="BackgroundImageFix"/>
<feGaussianBlur in="BackgroundImageFix" stdDeviation="2"/>
<feComposite in2="SourceAlpha" operator="in" result="effect1_backgroundBlur_10615_95430"/>
<feBlend mode="normal" in="SourceGraphic" in2="effect1_backgroundBlur_10615_95430" result="shape"/>
</filter>
<filter id="filter9_d_10615_95430" x="243.276" y="268.551" width="6.19141" height="6.19141" filterUnits="userSpaceOnUse" color-interpolation-filters="sRGB">
<feFlood flood-opacity="0" result="BackgroundImageFix"/>
<feColorMatrix in="SourceAlpha" type="matrix" values="0 0 0 0 0 0 0 0 0 0 0 0 0 0 0 0 0 0 127 0" result="hardAlpha"/>
<feOffset dx="0.5" dy="0.5"/>
<feComposite in2="hardAlpha" operator="out"/>
<feColorMatrix type="matrix" values="0 0 0 0 0 0 0 0 0 0 0 0 0 0 0 0 0 0 0.04 0"/>
<feBlend mode="normal" in2="BackgroundImageFix" result="effect1_dropShadow_10615_95430"/>
<feBlend mode="normal" in="SourceGraphic" in2="effect1_dropShadow_10615_95430" result="shape"/>
</filter>
<filter id="filter10_d_10615_95430" x="235.611" y="270.719" width="6.19141" height="6.19141" filterUnits="userSpaceOnUse" color-interpolation-filters="sRGB">
<feFlood flood-opacity="0" result="BackgroundImageFix"/>
<feColorMatrix in="SourceAlpha" type="matrix" values="0 0 0 0 0 0 0 0 0 0 0 0 0 0 0 0 0 0 127 0" result="hardAlpha"/>
<feOffset dx="0.5" dy="0.5"/>
<feComposite in2="hardAlpha" operator="out"/>
<feColorMatrix type="matrix" values="0 0 0 0 0 0 0 0 0 0 0 0 0 0 0 0 0 0 0.04 0"/>
<feBlend mode="normal" in2="BackgroundImageFix" result="effect1_dropShadow_10615_95430"/>
<feBlend mode="normal" in="SourceGraphic" in2="effect1_dropShadow_10615_95430" result="shape"/>
</filter>
<filter id="filter11_d_10615_95430" x="227.946" y="272.889" width="6.19141" height="6.19141" filterUnits="userSpaceOnUse" color-interpolation-filters="sRGB">
<feFlood flood-opacity="0" result="BackgroundImageFix"/>
<feColorMatrix in="SourceAlpha" type="matrix" values="0 0 0 0 0 0 0 0 0 0 0 0 0 0 0 0 0 0 127 0" result="hardAlpha"/>
<feOffset dx="0.5" dy="0.5"/>
<feComposite in2="hardAlpha" operator="out"/>
<feColorMatrix type="matrix" values="0 0 0 0 0 0 0 0 0 0 0 0 0 0 0 0 0 0 0.04 0"/>
<feBlend mode="normal" in2="BackgroundImageFix" result="effect1_dropShadow_10615_95430"/>
<feBlend mode="normal" in="SourceGraphic" in2="effect1_dropShadow_10615_95430" result="shape"/>
</filter>
<linearGradient id="paint0_linear_10615_95430" x1="457.122" y1="109.102" x2="457.122" y2="225.224" gradientUnits="userSpaceOnUse">
<stop stop-color="#2C94CB"/>
<stop offset="1" stop-color="#006397"/>
</linearGradient>
<linearGradient id="paint1_linear_10615_95430" x1="457.122" y1="-6.22158" x2="457.122" y2="96.2865" gradientUnits="userSpaceOnUse">
<stop stop-color="#D3E4F8" stop-opacity="0"/>
<stop offset="1" stop-color="#D3E4F8"/>
</linearGradient>
<linearGradient id="paint2_linear_10615_95430" x1="457.122" y1="24.6109" x2="457.122" y2="96.2865" gradientUnits="userSpaceOnUse">
<stop stop-color="#B7C8DB" stop-opacity="0"/>
<stop offset="1" stop-color="#B7C8DB"/>
</linearGradient>
<linearGradient id="paint3_linear_10615_95430" x1="457.122" y1="340.546" x2="457.122" y2="238.038" gradientUnits="userSpaceOnUse">
<stop stop-color="#D3E4F8" stop-opacity="0"/>
<stop offset="1" stop-color="#D3E4F8"/>
</linearGradient>
<linearGradient id="paint4_linear_10615_95430" x1="457.122" y1="309.713" x2="457.122" y2="238.038" gradientUnits="userSpaceOnUse">
<stop stop-color="#B7C8DB" stop-opacity="0"/>
<stop offset="1" stop-color="#B7C8DB"/>
</linearGradient>
<linearGradient id="paint5_linear_10615_95430" x1="630.505" y1="167.163" x2="527.997" y2="167.163" gradientUnits="userSpaceOnUse">
<stop stop-color="#D3E4F8" stop-opacity="0"/>
<stop offset="1" stop-color="#D3E4F8"/>
</linearGradient>
<linearGradient id="paint6_linear_10615_95430" x1="599.672" y1="167.163" x2="527.997" y2="167.163" gradientUnits="userSpaceOnUse">
<stop stop-color="#B7C8DB" stop-opacity="0"/>
<stop offset="1" stop-color="#B7C8DB"/>
</linearGradient>
<linearGradient id="paint7_linear_10615_95430" x1="283.738" y1="167.163" x2="386.246" y2="167.163" gradientUnits="userSpaceOnUse">
<stop stop-color="#D3E4F8" stop-opacity="0"/>
<stop offset="1" stop-color="#D3E4F8"/>
</linearGradient>
<linearGradient id="paint8_linear_10615_95430" x1="314.571" y1="167.163" x2="386.246" y2="167.163" gradientUnits="userSpaceOnUse">
<stop stop-color="#B7C8DB" stop-opacity="0"/>
<stop offset="1" stop-color="#B7C8DB"/>
</linearGradient>
<linearGradient id="paint9_linear_10615_95430" x1="640.916" y1="63.4551" x2="586.458" y2="63.4551" gradientUnits="userSpaceOnUse">
<stop stop-color="#B7C8DB" stop-opacity="0"/>
<stop offset="1" stop-color="#B7C8DB"/>
</linearGradient>
<linearGradient id="paint10_linear_10615_95430" x1="737.817" y1="125.119" x2="689.366" y2="83.4755" gradientUnits="userSpaceOnUse">
<stop stop-color="#B7C8DB"/>
<stop offset="1" stop-color="#B7C8DB" stop-opacity="0"/>
</linearGradient>
<linearGradient id="paint11_linear_10615_95430" x1="737.817" y1="208.408" x2="689.366" y2="250.052" gradientUnits="userSpaceOnUse">
<stop stop-color="#B7C8DB"/>
<stop offset="1" stop-color="#B7C8DB" stop-opacity="0"/>
</linearGradient>
<linearGradient id="paint12_linear_10615_95430" x1="182.031" y1="125.119" x2="230.482" y2="83.4755" gradientUnits="userSpaceOnUse">
<stop stop-color="#B7C8DB"/>
<stop offset="1" stop-color="#B7C8DB" stop-opacity="0"/>
</linearGradient>
<linearGradient id="paint13_linear_10615_95430" x1="182.031" y1="208.408" x2="230.482" y2="250.052" gradientUnits="userSpaceOnUse">
<stop stop-color="#B7C8DB"/>
<stop offset="1" stop-color="#B7C8DB" stop-opacity="0"/>
</linearGradient>
<linearGradient id="paint14_linear_10615_95430" x1="640.916" y1="274.074" x2="586.458" y2="274.074" gradientUnits="userSpaceOnUse">
<stop stop-color="#B7C8DB" stop-opacity="0"/>
<stop offset="1" stop-color="#B7C8DB"/>
</linearGradient>
<linearGradient id="paint15_linear_10615_95430" x1="271.727" y1="63.4551" x2="326.184" y2="63.4551" gradientUnits="userSpaceOnUse">
<stop stop-color="#B7C8DB" stop-opacity="0"/>
<stop offset="1" stop-color="#B7C8DB"/>
</linearGradient>
<linearGradient id="paint16_linear_10615_95430" x1="271.727" y1="274.074" x2="326.184" y2="274.074" gradientUnits="userSpaceOnUse">
<stop stop-color="#B7C8DB" stop-opacity="0"/>
<stop offset="1" stop-color="#B7C8DB"/>
</linearGradient>
<linearGradient id="paint17_linear_10615_95430" x1="673.152" y1="42.6309" x2="673.152" y2="79.4697" gradientUnits="userSpaceOnUse">
<stop stop-color="#DDE5FC"/>
<stop offset="1" stop-color="#A7AEC7"/>
</linearGradient>
<linearGradient id="paint18_linear_10615_95430" x1="673.152" y1="22.0011" x2="673.152" y2="79.4697" gradientUnits="userSpaceOnUse">
<stop stop-color="#C1D5E9"/>
<stop offset="1" stop-color="#C1D5E9" stop-opacity="0"/>
</linearGradient>
<linearGradient id="paint19_linear_10615_95430" x1="664.32" y1="59.0547" x2="664.32" y2="71.0547" gradientUnits="userSpaceOnUse">
<stop stop-color="#D4E7FC"/>
<stop offset="1" stop-color="#AEC1D7"/>
</linearGradient>
<linearGradient id="paint20_linear_10615_95430" x1="681.933" y1="66.1816" x2="681.933" y2="78.1816" gradientUnits="userSpaceOnUse">
<stop stop-color="#D4E7FC"/>
<stop offset="1" stop-color="#AEC1D7"/>
</linearGradient>
<linearGradient id="paint21_linear_10615_95430" x1="661.575" y1="252.566" x2="661.575" y2="282.161" gradientUnits="userSpaceOnUse">
<stop stop-color="#DDE5FC"/>
<stop offset="1" stop-color="#A7AEC7"/>
</linearGradient>
<linearGradient id="paint22_linear_10615_95430" x1="661.575" y1="252.566" x2="661.575" y2="282.161" gradientUnits="userSpaceOnUse">
<stop stop-color="#C1D5E9"/>
<stop offset="1" stop-color="#C1D5E9" stop-opacity="0"/>
</linearGradient>
<linearGradient id="paint23_linear_10615_95430" x1="804.804" y1="-3.85754" x2="758.325" y2="74.3752" gradientUnits="userSpaceOnUse">
<stop stop-color="#B7C8DB" stop-opacity="0"/>
<stop offset="1" stop-color="#B7C8DB"/>
</linearGradient>
<linearGradient id="paint24_linear_10615_95430" x1="804.804" y1="343.51" x2="758.325" y2="265.277" gradientUnits="userSpaceOnUse">
<stop stop-color="#B7C8DB" stop-opacity="0"/>
<stop offset="1" stop-color="#B7C8DB"/>
</linearGradient>
<linearGradient id="paint25_linear_10615_95430" x1="114.438" y1="-3.85754" x2="160.918" y2="74.3752" gradientUnits="userSpaceOnUse">
<stop stop-color="#B7C8DB" stop-opacity="0"/>
<stop offset="1" stop-color="#B7C8DB"/>
</linearGradient>
<linearGradient id="paint26_linear_10615_95430" x1="114.438" y1="343.51" x2="160.918" y2="265.277" gradientUnits="userSpaceOnUse">
<stop stop-color="#B7C8DB" stop-opacity="0"/>
<stop offset="1" stop-color="#B7C8DB"/>
</linearGradient>
<linearGradient id="paint27_linear_10615_95430" x1="255.603" y1="49.3005" x2="255.603" y2="75.7284" gradientUnits="userSpaceOnUse">
<stop stop-color="#DDE5FC"/>
<stop offset="1" stop-color="#A7AEC7"/>
</linearGradient>
<linearGradient id="paint28_linear_10615_95430" x1="255.603" y1="49.3005" x2="255.603" y2="75.7284" gradientUnits="userSpaceOnUse">
<stop stop-color="#C1D5E9"/>
<stop offset="1" stop-color="#C1D5E9" stop-opacity="0"/>
</linearGradient>
<linearGradient id="paint29_linear_10615_95430" x1="258.653" y1="261.343" x2="264.741" y2="282.862" gradientUnits="userSpaceOnUse">
<stop stop-color="#DDE5FC"/>
<stop offset="1" stop-color="#A7AEC7"/>
</linearGradient>
<linearGradient id="paint30_linear_10615_95430" x1="258.653" y1="261.343" x2="264.741" y2="282.862" gradientUnits="userSpaceOnUse">
<stop stop-color="#C1D5E9"/>
<stop offset="1" stop-color="#C1D5E9" stop-opacity="0"/>
</linearGradient>
<linearGradient id="paint31_linear_10615_95430" x1="256.209" y1="271.576" x2="256.209" y2="275.197" gradientUnits="userSpaceOnUse">
<stop stop-color="#D4E7FC"/>
<stop offset="1" stop-color="#AEC1D7"/>
</linearGradient>
<linearGradient id="paint32_linear_10615_95430" x1="261.087" y1="270.197" x2="261.087" y2="273.818" gradientUnits="userSpaceOnUse">
<stop stop-color="#D4E7FC"/>
<stop offset="1" stop-color="#AEC1D7"/>
</linearGradient>
<linearGradient id="paint33_linear_10615_95430" x1="265.965" y1="268.816" x2="265.965" y2="272.437" gradientUnits="userSpaceOnUse">
<stop stop-color="#D4E7FC"/>
<stop offset="1" stop-color="#AEC1D7"/>
</linearGradient>
<linearGradient id="paint34_linear_10615_95430" x1="233.965" y1="257.688" x2="243.533" y2="291.504" gradientUnits="userSpaceOnUse">
<stop stop-color="#DDE5FC"/>
<stop offset="1" stop-color="#A7AEC7"/>
</linearGradient>
<linearGradient id="paint35_linear_10615_95430" x1="233.965" y1="257.688" x2="243.533" y2="291.504" gradientUnits="userSpaceOnUse">
<stop stop-color="#C1D5E9"/>
<stop offset="1" stop-color="#C1D5E9" stop-opacity="0"/>
</linearGradient>
<linearGradient id="paint36_linear_10615_95430" x1="2.84496" y1="0" x2="2.84496" y2="5.68993" gradientUnits="userSpaceOnUse">
<stop stop-color="#D4E7FC"/>
<stop offset="1" stop-color="#AEC1D7"/>
</linearGradient>
<linearGradient id="paint37_linear_10615_95430" x1="2.84496" y1="0" x2="2.84496" y2="5.68993" gradientUnits="userSpaceOnUse">
<stop stop-color="#D4E7FC"/>
<stop offset="1" stop-color="#AEC1D7"/>
</linearGradient>
<linearGradient id="paint38_linear_10615_95430" x1="2.84496" y1="0" x2="2.84496" y2="5.68993" gradientUnits="userSpaceOnUse">
<stop stop-color="#D4E7FC"/>
<stop offset="1" stop-color="#AEC1D7"/>
</linearGradient>
<clipPath id="clip0_10615_95430">
<rect width="916" height="402" fill="white"/>
</clipPath>
</defs>
</svg>
